libre-caslon-text_italic.sfdir
StartChar: exclam
Encoding: 33 33 247
Width: 336
Flags: W
LayerCount: 2
Back
Fore
SplineSet
137 230 m 1,0,-1
 218 571 l 2,1,2
 232 629 232 629 243 671.5 c 128,-1,3
 254 714 254 714 259 729 c 0,4,5
 267 752 267 752 284.5 766 c 128,-1,6
 302 780 302 780 327 780 c 0,7,8
 356 780 356 780 373.5 762.5 c 128,-1,9
 391 745 391 745 391 717 c 0,10,11
 391 706 391 706 388 694 c 128,-1,12
 385 682 385 682 376 664 c 128,-1,13
 367 646 367 646 351.5 619.5 c 128,-1,14
 336 593 336 593 312 553 c 0,15,16
 292 520 292 520 274 485.5 c 128,-1,17
 256 451 256 451 239.5 412 c 128,-1,18
 223 373 223 373 206.5 328.5 c 128,-1,19
 190 284 190 284 172 230 c 1,20,-1
 137 230 l 1,0,-1
107 115 m 0,21,22
 133 115 133 115 151.5 98.5 c 128,-1,23
 170 82 170 82 170 57 c 0,24,25
 170 30 170 30 147.5 10 c 128,-1,26
 125 -10 125 -10 95 -10 c 0,27,28
 69 -10 69 -10 52.5 6 c 128,-1,29
 36 22 36 22 36 47 c 0,30,31
 36 75 36 75 57 95 c 128,-1,32
 78 115 78 115 107 115 c 0,21,22
EndSplineSet
EndChar
StartChar: quotedbl
Encoding: 34 34 399
Width: 372
Flags: W
LayerCount: 2
Back
Fore
SplineSet
210 545 m 1,0,1
 223 590 223 590 228.5 624 c 128,-1,2
 234 658 234 658 235.5 684.5 c 128,-1,3
 237 711 237 711 238 731.5 c 128,-1,4
 239 752 239 752 245 770 c 0,5,6
 254 798 254 798 273.5 814 c 128,-1,7
 293 830 293 830 318 830 c 0,8,9
 338 830 338 830 347 820.5 c 128,-1,10
 356 811 356 811 356 795 c 0,11,12
 356 775 356 775 345 752.5 c 128,-1,13
 334 730 334 730 316.5 701 c 128,-1,14
 299 672 299 672 278.5 634 c 128,-1,15
 258 596 258 596 240 545 c 1,16,-1
 210 545 l 1,0,1
362 545 m 1,17,18
 375 590 375 590 380.5 624 c 128,-1,19
 386 658 386 658 387.5 684.5 c 128,-1,20
 389 711 389 711 390 731.5 c 128,-1,21
 391 752 391 752 397 770 c 0,22,23
 406 798 406 798 425.5 814 c 128,-1,24
 445 830 445 830 470 830 c 0,25,26
 490 830 490 830 499 820.5 c 128,-1,27
 508 811 508 811 508 795 c 0,28,29
 508 775 508 775 497 752.5 c 128,-1,30
 486 730 486 730 468.5 701 c 128,-1,31
 451 672 451 672 430.5 634 c 128,-1,32
 410 596 410 596 392 545 c 1,33,-1
 362 545 l 1,17,18
EndSplineSet
Substitution2: "'tnum' Tabular Numbers in Latin lookup 3 subtable" quotedbl.tnum
EndChar
StartChar: numbersign
Encoding: 35 35 350
Width: 667
Flags: W
LayerCount: 2
Back
Fore
SplineSet
612 696 m 1,0,-1
 552 525 l 1,1,-1
 695 525 l 1,2,-1
 672 469 l 1,3,-1
 532 469 l 1,4,-1
 479 318 l 1,5,-1
 619 318 l 1,6,-1
 594 262 l 1,7,-1
 460 262 l 1,8,-1
 400 92 l 1,9,-1
 343 92 l 1,10,-1
 402 262 l 1,11,-1
 254 262 l 1,12,-1
 194 92 l 1,13,-1
 136 92 l 1,14,-1
 195 262 l 1,15,-1
 51 262 l 1,16,-1
 75 318 l 1,17,-1
 215 318 l 1,18,-1
 268 469 l 1,19,-1
 128 469 l 1,20,-1
 151 525 l 1,21,-1
 287 525 l 1,22,-1
 348 696 l 1,23,-1
 406 696 l 1,24,-1
 346 525 l 1,25,-1
 494 525 l 1,26,-1
 555 696 l 1,27,-1
 612 696 l 1,0,-1
273 318 m 1,28,-1
 422 318 l 1,29,-1
 475 469 l 1,30,-1
 326 469 l 1,31,-1
 273 318 l 1,28,-1
EndSplineSet
Substitution2: "'tnum' Tabular Numbers in Latin lookup 3 subtable" numbersign.tnum
EndChar
StartChar: dollar
Encoding: 36 36 213
Width: 577
Flags: W
LayerCount: 2
Back
Fore
SplineSet
503 772 m 1,0,1
 562 757 562 757 597.5 718.5 c 128,-1,2
 633 680 633 680 633 629 c 0,3,4
 633 600 633 600 619 584 c 128,-1,5
 605 568 605 568 580 568 c 0,6,7
 534 568 534 568 525 635 c 0,8,9
 520 673 520 673 511 695 c 128,-1,10
 502 717 502 717 485 728 c 1,11,-1
 367 434 l 1,12,13
 401 393 401 393 423 364 c 128,-1,14
 445 335 445 335 457.5 311.5 c 128,-1,15
 470 288 470 288 474.5 267 c 128,-1,16
 479 246 479 246 479 223 c 0,17,18
 479 172 479 172 458 129.5 c 128,-1,19
 437 87 437 87 400 56 c 128,-1,20
 363 25 363 25 311 7.5 c 128,-1,21
 259 -10 259 -10 198 -10 c 2,22,-1
 188 -10 l 1,23,-1
 132 -150 l 1,24,-1
 87 -150 l 1,25,-1
 145 -5 l 1,26,27
 82 8 82 8 42.5 47.5 c 128,-1,28
 3 87 3 87 3 141 c 0,29,30
 3 170 3 170 17 186 c 128,-1,31
 31 202 31 202 56 202 c 0,32,33
 102 202 102 202 111 135 c 0,34,35
 117 90 117 90 128 67 c 128,-1,36
 139 44 139 44 162 36 c 1,37,-1
 287 346 l 1,38,39
 267 367 267 367 248.5 388 c 128,-1,40
 230 409 230 409 215 433 c 128,-1,41
 200 457 200 457 191 486 c 128,-1,42
 182 515 182 515 182 551 c 0,43,44
 182 601 182 601 201 643 c 128,-1,45
 220 685 220 685 254 715.5 c 128,-1,46
 288 746 288 746 335 763 c 128,-1,47
 382 780 382 780 438 780 c 0,48,49
 444 780 444 780 450 779.5 c 128,-1,50
 456 779 456 779 461 779 c 1,51,-1
 515 912 l 1,52,-1
 560 912 l 1,53,-1
 503 772 l 1,0,1
204 30 m 1,54,55
 283 30 283 30 327 69 c 128,-1,56
 371 108 371 108 371 177 c 0,57,58
 371 219 371 219 355.5 251 c 128,-1,59
 340 283 340 283 317 311 c 1,60,-1
 204 30 l 1,54,55
287 586 m 0,61,62
 287 569 287 569 288.5 556.5 c 128,-1,63
 290 544 290 544 295.5 531 c 128,-1,64
 301 518 301 518 310.5 503.5 c 128,-1,65
 320 489 320 489 337 469 c 1,66,-1
 445 739 l 1,67,68
 440 740 440 740 429 740 c 0,69,70
 360 740 360 740 323.5 700.5 c 128,-1,71
 287 661 287 661 287 586 c 0,61,62
EndSplineSet
Substitution2: "'tnum' Tabular Numbers in Latin lookup 3 subtable" dollar.tnum
EndChar
StartChar: percent
Encoding: 37 37 385
Width: 961
Flags: W
LayerCount: 2
Back
Fore
SplineSet
207 0 m 1,0,-1
 756 770 l 1,1,-1
 826 770 l 1,2,-1
 275 0 l 1,3,-1
 207 0 l 1,0,-1
223 315 m 0,4,5
 174 315 174 315 151.5 342.5 c 128,-1,6
 129 370 129 370 129 430 c 0,7,8
 129 496 129 496 153 558.5 c 128,-1,9
 177 621 177 621 216.5 670.5 c 128,-1,10
 256 720 256 720 306.5 750 c 128,-1,11
 357 780 357 780 410 780 c 0,12,13
 511 780 511 780 511 664 c 0,14,15
 511 601 511 601 485.5 538.5 c 128,-1,16
 460 476 460 476 419.5 426.5 c 128,-1,17
 379 377 379 377 327 346 c 128,-1,18
 275 315 275 315 223 315 c 0,4,5
250 351 m 0,19,20
 277 351 277 351 307.5 383 c 128,-1,21
 338 415 338 415 364 464 c 128,-1,22
 390 513 390 513 407 570.5 c 128,-1,23
 424 628 424 628 424 679 c 0,24,25
 424 744 424 744 389 744 c 0,26,27
 371 744 371 744 351.5 729 c 128,-1,28
 332 714 332 714 313 689 c 128,-1,29
 294 664 294 664 276.5 630.5 c 128,-1,30
 259 597 259 597 246 560.5 c 128,-1,31
 233 524 233 524 225 486.5 c 128,-1,32
 217 449 217 449 217 415 c 0,33,34
 217 351 217 351 250 351 c 0,19,20
619 -10 m 0,35,36
 570 -10 570 -10 547.5 17.5 c 128,-1,37
 525 45 525 45 525 105 c 0,38,39
 525 171 525 171 549 233.5 c 128,-1,40
 573 296 573 296 612.5 345.5 c 128,-1,41
 652 395 652 395 702.5 425 c 128,-1,42
 753 455 753 455 806 455 c 0,43,44
 907 455 907 455 907 339 c 0,45,46
 907 276 907 276 881.5 213.5 c 128,-1,47
 856 151 856 151 815.5 101.5 c 128,-1,48
 775 52 775 52 723 21 c 128,-1,49
 671 -10 671 -10 619 -10 c 0,35,36
646 26 m 0,50,51
 673 26 673 26 703.5 58 c 128,-1,52
 734 90 734 90 760 139 c 128,-1,53
 786 188 786 188 803 245.5 c 128,-1,54
 820 303 820 303 820 354 c 0,55,56
 820 419 820 419 785 419 c 0,57,58
 768 419 768 419 748 404 c 128,-1,59
 728 389 728 389 709 364 c 128,-1,60
 690 339 690 339 672.5 305.5 c 128,-1,61
 655 272 655 272 642 235.5 c 128,-1,62
 629 199 629 199 621 161.5 c 128,-1,63
 613 124 613 124 613 90 c 0,64,65
 613 26 613 26 646 26 c 0,50,51
EndSplineSet
Substitution2: "'tnum' Tabular Numbers in Latin lookup 3 subtable" percent.tnum
EndChar
StartChar: ampersand
Encoding: 38 38 155
Width: 931
Flags: W
LayerCount: 2
Back
Fore
SplineSet
449 88 m 0,0,1
 519 88 519 88 578.5 106.5 c 128,-1,2
 638 125 638 125 681.5 157 c 128,-1,3
 725 189 725 189 750 232.5 c 128,-1,4
 775 276 775 276 775 326 c 0,5,6
 775 385 775 385 738.5 417 c 128,-1,7
 702 449 702 449 642 449 c 0,8,9
 618 449 618 449 596 443 c 128,-1,10
 574 437 574 437 558 427.5 c 128,-1,11
 542 418 542 418 532.5 405.5 c 128,-1,12
 523 393 523 393 523 381 c 0,13,14
 523 364 523 364 535 358.5 c 128,-1,15
 547 353 547 353 562 349 c 128,-1,16
 577 345 577 345 589 337.5 c 128,-1,17
 601 330 601 330 601 309 c 0,18,19
 601 289 601 289 584.5 278.5 c 128,-1,20
 568 268 568 268 547 268 c 0,21,22
 534 268 534 268 521 273 c 128,-1,23
 508 278 508 278 497.5 288.5 c 128,-1,24
 487 299 487 299 480 314.5 c 128,-1,25
 473 330 473 330 473 350 c 0,26,27
 473 381 473 381 483.5 404.5 c 128,-1,28
 494 428 494 428 522.5 446 c 128,-1,29
 551 464 551 464 601.5 478.5 c 128,-1,30
 652 493 652 493 733 507 c 0,31,32
 777 514 777 514 816 522.5 c 128,-1,33
 855 531 855 531 884 545.5 c 128,-1,34
 913 560 913 560 929.5 583.5 c 128,-1,35
 946 607 946 607 946 643 c 256,36,37
 946 679 946 679 927.5 696.5 c 128,-1,38
 909 714 909 714 885 714 c 0,39,40
 867 714 867 714 855 706 c 128,-1,41
 843 698 843 698 832.5 688 c 128,-1,42
 822 678 822 678 811 670 c 128,-1,43
 800 662 800 662 784 662 c 0,44,45
 767 662 767 662 756 672 c 128,-1,46
 745 682 745 682 745 701 c 0,47,48
 745 736 745 736 779 758 c 128,-1,49
 813 780 813 780 862 780 c 0,50,51
 916 780 916 780 950 751 c 128,-1,52
 984 722 984 722 984 660 c 0,53,54
 984 569 984 569 927 518.5 c 128,-1,55
 870 468 870 468 761 450 c 1,56,-1
 760 446 l 1,57,58
 794 432 794 432 813 396.5 c 128,-1,59
 832 361 832 361 832 311 c 0,60,61
 832 243 832 243 799 184.5 c 128,-1,62
 766 126 766 126 709 83 c 128,-1,63
 652 40 652 40 576.5 15 c 128,-1,64
 501 -10 501 -10 416 -10 c 0,65,66
 344 -10 344 -10 284.5 8.5 c 128,-1,67
 225 27 225 27 182.5 61 c 128,-1,68
 140 95 140 95 116.5 142.5 c 128,-1,69
 93 190 93 190 93 248 c 0,70,71
 93 320 93 320 126 375 c 128,-1,72
 159 430 159 430 220 464 c 1,73,74
 208 481 208 481 201 504.5 c 128,-1,75
 194 528 194 528 194 554 c 0,76,77
 194 590 194 590 208 622.5 c 128,-1,78
 222 655 222 655 246 679.5 c 128,-1,79
 270 704 270 704 301.5 718.5 c 128,-1,80
 333 733 333 733 368 733 c 0,81,82
 395 733 395 733 419 724.5 c 128,-1,83
 443 716 443 716 460.5 701.5 c 128,-1,84
 478 687 478 687 488.5 667.5 c 128,-1,85
 499 648 499 648 499 626 c 0,86,87
 499 598 499 598 484 581 c 128,-1,88
 469 564 469 564 443 564 c 0,89,90
 422 564 422 564 413 573.5 c 128,-1,91
 404 583 404 583 400.5 596.5 c 128,-1,92
 397 610 397 610 397 626.5 c 128,-1,93
 397 643 397 643 393 656.5 c 128,-1,94
 389 670 389 670 379 679.5 c 128,-1,95
 369 689 369 689 346 689 c 0,96,97
 324 689 324 689 304 679 c 128,-1,98
 284 669 284 669 269 652 c 128,-1,99
 254 635 254 635 245.5 612.5 c 128,-1,100
 237 590 237 590 237 564 c 0,101,102
 237 543 237 543 241.5 522 c 128,-1,103
 246 501 246 501 255 487 c 1,104,105
 268 492 268 492 283 495 c 128,-1,106
 298 498 298 498 312 498 c 0,107,108
 340 498 340 498 357.5 485 c 128,-1,109
 375 472 375 472 375 452 c 0,110,111
 375 430 375 430 359.5 416 c 128,-1,112
 344 402 344 402 319 402 c 0,113,114
 301 402 301 402 279.5 410.5 c 128,-1,115
 258 419 258 419 241 433 c 1,116,117
 205 419 205 419 181.5 381 c 128,-1,118
 158 343 158 343 158 294 c 0,119,120
 158 248 158 248 179.5 210 c 128,-1,121
 201 172 201 172 240 145 c 128,-1,122
 279 118 279 118 332.5 103 c 128,-1,123
 386 88 386 88 449 88 c 0,0,1
EndSplineSet
Substitution2: "'ss01' Style Set 1 in Latin lookup 10 subtable" ampersand.ss01
EndChar
StartChar: quotesingle
Encoding: 39 39 407
Width: 220
Flags: W
LayerCount: 2
Back
Fore
SplineSet
210 545 m 1,0,1
 223 590 223 590 228.5 624 c 128,-1,2
 234 658 234 658 235.5 684.5 c 128,-1,3
 237 711 237 711 238 731.5 c 128,-1,4
 239 752 239 752 245 770 c 0,5,6
 254 798 254 798 273.5 814 c 128,-1,7
 293 830 293 830 318 830 c 0,8,9
 338 830 338 830 347 820.5 c 128,-1,10
 356 811 356 811 356 795 c 0,11,12
 356 775 356 775 345 752.5 c 128,-1,13
 334 730 334 730 316.5 701 c 128,-1,14
 299 672 299 672 278.5 634 c 128,-1,15
 258 596 258 596 240 545 c 1,16,-1
 210 545 l 1,0,1
EndSplineSet
Substitution2: "'tnum' Tabular Numbers in Latin lookup 3 subtable" quotesingle.tnum
EndChar
StartChar: parenleft
Encoding: 40 40 383
Width: 318
Flags: W
LayerCount: 2
Back
Fore
SplineSet
97 -200 m 1,0,1
 82 -178 82 -178 68 -150 c 128,-1,2
 54 -122 54 -122 43 -88 c 128,-1,3
 32 -54 32 -54 25 -13.5 c 128,-1,4
 18 27 18 27 18 75 c 0,5,6
 18 181 18 181 53.5 291 c 128,-1,7
 89 401 89 401 148.5 502 c 128,-1,8
 208 603 208 603 286 688 c 128,-1,9
 364 773 364 773 449 830 c 1,10,-1
 457 820 l 1,11,12
 382 740 382 740 316 641 c 128,-1,13
 250 542 250 542 200.5 432.5 c 128,-1,14
 151 323 151 323 122 209.5 c 128,-1,15
 93 96 93 96 93 -12 c 0,16,17
 93 -72 93 -72 101 -115 c 128,-1,18
 109 -158 109 -158 117 -187 c 1,19,-1
 97 -200 l 1,0,1
EndSplineSet
EndChar
StartChar: parenright
Encoding: 41 41 384
Width: 329
Flags: W
LayerCount: 2
Back
Fore
SplineSet
-105 -187 m 1,0,1
 -82 -163 -82 -163 -48.5 -121.5 c 128,-1,2
 -15 -80 -15 -80 22.5 -23 c 128,-1,3
 60 34 60 34 97.5 105 c 128,-1,4
 135 176 135 176 165 258.5 c 128,-1,5
 195 341 195 341 213.5 434.5 c 128,-1,6
 232 528 232 528 232 630 c 0,7,8
 232 694 232 694 225.5 743 c 128,-1,9
 219 792 219 792 210 820 c 1,10,-1
 224 830 l 1,11,12
 242 810 242 810 257.5 779.5 c 128,-1,13
 273 749 273 749 284.5 710.5 c 128,-1,14
 296 672 296 672 303 626.5 c 128,-1,15
 310 581 310 581 310 530 c 0,16,17
 310 439 310 439 289.5 356.5 c 128,-1,18
 269 274 269 274 236 201.5 c 128,-1,19
 203 129 203 129 160 67 c 128,-1,20
 117 5 117 5 72.5 -45.5 c 128,-1,21
 28 -96 28 -96 -15.5 -135 c 128,-1,22
 -59 -174 -59 -174 -93 -200 c 1,23,-1
 -105 -187 l 1,0,1
EndSplineSet
EndChar
StartChar: asterisk
Encoding: 42 42 163
Width: 487
Flags: W
LayerCount: 2
Back
Fore
SplineSet
383 612 m 1,0,-1
 379 578 l 2,1,2
 375 544 375 544 375.5 518 c 128,-1,3
 376 492 376 492 371 472 c 0,4,5
 366 455 366 455 353.5 443.5 c 128,-1,6
 341 432 341 432 323 432 c 0,7,8
 295 432 295 432 295 458 c 0,9,10
 295 470 295 470 301 484 c 128,-1,11
 307 498 307 498 315 513 c 128,-1,12
 323 528 323 528 332.5 544.5 c 128,-1,13
 342 561 342 561 349 579 c 2,14,-1
 362 612 l 1,15,-1
 328 591 l 2,16,17
 309 579 309 579 293.5 565.5 c 128,-1,18
 278 552 278 552 264 540.5 c 128,-1,19
 250 529 250 529 236.5 521.5 c 128,-1,20
 223 514 223 514 208 514 c 0,21,22
 192 514 192 514 184 521.5 c 128,-1,23
 176 529 176 529 176 541 c 0,24,25
 176 563 176 563 189.5 573.5 c 128,-1,26
 203 584 203 584 224 590.5 c 128,-1,27
 245 597 245 597 271 602 c 128,-1,28
 297 607 297 607 323 618 c 2,29,-1
 356 631 l 1,30,-1
 328 644 l 2,31,32
 310 652 310 652 291 656.5 c 128,-1,33
 272 661 272 661 256 665.5 c 128,-1,34
 240 670 240 670 229.5 676.5 c 128,-1,35
 219 683 219 683 219 696 c 0,36,37
 219 716 219 716 234.5 731.5 c 128,-1,38
 250 747 250 747 273 747 c 0,39,40
 288 747 288 747 297 739.5 c 128,-1,41
 306 732 306 732 313.5 720.5 c 128,-1,42
 321 709 321 709 329 695 c 128,-1,43
 337 681 337 681 351 669 c 2,44,-1
 372 650 l 1,45,-1
 377 684 l 2,46,47
 379 693 379 693 379 701 c 128,-1,48
 379 709 379 709 379 716 c 0,49,50
 379 727 379 727 378.5 736 c 128,-1,51
 378 745 378 745 378 754 c 0,52,53
 378 793 378 793 395.5 811.5 c 128,-1,54
 413 830 413 830 433 830 c 0,55,56
 444 830 444 830 452 823.5 c 128,-1,57
 460 817 460 817 460 803 c 0,58,59
 460 787 460 787 454 774 c 128,-1,60
 448 761 448 761 440 747 c 128,-1,61
 432 733 432 733 422.5 717.5 c 128,-1,62
 413 702 413 702 406 682 c 2,63,-1
 394 650 l 1,64,-1
 424 670 l 2,65,66
 447 685 447 685 463.5 699 c 128,-1,67
 480 713 480 713 493.5 724 c 128,-1,68
 507 735 507 735 519.5 741.5 c 128,-1,69
 532 748 532 748 546 748 c 0,70,71
 563 748 563 748 570.5 740 c 128,-1,72
 578 732 578 732 578 720 c 0,73,74
 578 697 578 697 565 686.5 c 128,-1,75
 552 676 552 676 531 670 c 128,-1,76
 510 664 510 664 484 659.5 c 128,-1,77
 458 655 458 655 433 645 c 2,78,-1
 399 632 l 1,79,-1
 424 619 l 2,80,81
 443 609 443 609 462.5 604 c 128,-1,82
 482 599 482 599 498 594.5 c 128,-1,83
 514 590 514 590 524.5 584 c 128,-1,84
 535 578 535 578 535 565 c 0,85,86
 535 542 535 542 518 528.5 c 128,-1,87
 501 515 501 515 481 515 c 0,88,89
 466 515 466 515 456.5 522.5 c 128,-1,90
 447 530 447 530 439.5 541.5 c 128,-1,91
 432 553 432 553 424 566.5 c 128,-1,92
 416 580 416 580 404 592 c 2,93,-1
 383 612 l 1,0,-1
EndSplineSet
EndChar
StartChar: plus
Encoding: 43 43 392
Width: 512
Flags: W
LayerCount: 2
Back
Fore
SplineSet
247 315 m 1,0,-1
 67 315 l 1,1,-1
 67 364 l 1,2,-1
 247 364 l 1,3,-1
 247 544 l 1,4,-1
 298 544 l 1,5,-1
 298 364 l 1,6,-1
 477 364 l 1,7,-1
 477 315 l 1,8,-1
 298 315 l 1,9,-1
 298 134 l 1,10,-1
 247 134 l 1,11,-1
 247 315 l 1,0,-1
EndSplineSet
Substitution2: "'tnum' Tabular Numbers in Latin lookup 3 subtable" plus.tnum
EndChar
StartChar: comma
Encoding: 44 44 196
Width: 289
Flags: W
LayerCount: 2
Back
Fore
SplineSet
30 0 m 0,0,1
 -27 10 -27 10 -27 64 c 0,2,3
 -27 98 -27 98 -6.5 117.5 c 128,-1,4
 14 137 14 137 49 137 c 0,5,6
 87 137 87 137 108 113.5 c 128,-1,7
 129 90 129 90 129 45 c 0,8,9
 129 -16 129 -16 90 -74.5 c 128,-1,10
 51 -133 51 -133 -26 -186 c 1,11,-1
 -44 -165 l 1,12,13
 -22 -149 -22 -149 -2.5 -129.5 c 128,-1,14
 17 -110 17 -110 32 -90 c 128,-1,15
 47 -70 47 -70 56 -52 c 128,-1,16
 65 -34 65 -34 65 -21 c 0,17,18
 65 -11 65 -11 59.5 -8 c 128,-1,19
 54 -5 54 -5 30 0 c 0,0,1
EndSplineSet
Substitution2: "'tnum' Tabular Numbers in Latin lookup 3 subtable" comma.tnum
EndChar
StartChar: period
Encoding: 46 46 387
Width: 282
Flags: W
LayerCount: 2
Back
Fore
SplineSet
54 137 m 0,0,1
 84 137 84 137 106.5 118.5 c 128,-1,2
 129 100 129 100 129 72 c 0,3,4
 129 56 129 56 121.5 41.5 c 128,-1,5
 114 27 114 27 101.5 15.5 c 128,-1,6
 89 4 89 4 73 -3 c 128,-1,7
 57 -10 57 -10 41 -10 c 0,8,9
 7 -10 7 -10 -12.5 8.5 c 128,-1,10
 -32 27 -32 27 -32 57 c 0,11,12
 -32 73 -32 73 -25 88 c 128,-1,13
 -18 103 -18 103 -6 113.5 c 128,-1,14
 6 124 6 124 21.5 130.5 c 128,-1,15
 37 137 37 137 54 137 c 0,0,1
EndSplineSet
Substitution2: "'tnum' Tabular Numbers in Latin lookup 3 subtable" period.tnum
EndChar
StartChar: slash
Encoding: 47 47 445
Width: 345
Flags: W
LayerCount: 2
Back
Fore
SplineSet
-1 -169 m 1,0,-1
 301 819 l 1,1,-1
 370 819 l 1,2,-1
 66 -169 l 1,3,-1
 -1 -169 l 1,0,-1
EndSplineSet
Substitution2: "'tnum' Tabular Numbers in Latin lookup 3 subtable" slash.tnum
EndChar
StartChar: zero
Encoding: 48 48 534
Width: 645
Flags: W
LayerCount: 2
Back
Fore
SplineSet
210 -10 m 0,0,1
 139 -10 139 -10 106.5 36.5 c 128,-1,2
 74 83 74 83 74 183 c 0,3,4
 74 258 74 258 90.5 331 c 128,-1,5
 107 404 107 404 136.5 470.5 c 128,-1,6
 166 537 166 537 206.5 593.5 c 128,-1,7
 247 650 247 650 294 691.5 c 128,-1,8
 341 733 341 733 393 756.5 c 128,-1,9
 445 780 445 780 498 780 c 0,10,11
 648 780 648 780 648 582 c 0,12,13
 648 511 648 511 630 439.5 c 128,-1,14
 612 368 612 368 581 302 c 128,-1,15
 550 236 550 236 508 179 c 128,-1,16
 466 122 466 122 417.5 80 c 128,-1,17
 369 38 369 38 316 14 c 128,-1,18
 263 -10 263 -10 210 -10 c 0,0,1
234 31 m 0,19,20
 266 31 266 31 301 58.5 c 128,-1,21
 336 86 336 86 370.5 132 c 128,-1,22
 405 178 405 178 436.5 238 c 128,-1,23
 468 298 468 298 492 364.5 c 128,-1,24
 516 431 516 431 530 499 c 128,-1,25
 544 567 544 567 544 628 c 0,26,27
 544 738 544 738 485 738 c 0,28,29
 453 738 453 738 418 710.5 c 128,-1,30
 383 683 383 683 349 637 c 128,-1,31
 315 591 315 591 283.5 530 c 128,-1,32
 252 469 252 469 228 402.5 c 128,-1,33
 204 336 204 336 190 268 c 128,-1,34
 176 200 176 200 176 139 c 0,35,36
 176 83 176 83 190 57 c 128,-1,37
 204 31 204 31 234 31 c 0,19,20
EndSplineSet
Substitution2: "'onum' Oldstyle Figures in Latin lookup 9 subtable" zero.oldstyle
Substitution2: "'numr' Numerators in Latin lookup 8 subtable" zero.numerator
Substitution2: "'dnom' Denominators in Latin lookup 7 subtable" zero.denominator
Substitution2: "'sups' Superscript in Latin lookup 6 subtable" zerosuperior
Substitution2: "'sinf' Scientific Inferiors in Latin lookup 5 subtable" zeroinferior
Substitution2: "'tnum' Tabular Numbers in Latin lookup 3 subtable" zero.tnum
EndChar
StartChar: one
Encoding: 49 49 363
Width: 429
Flags: W
LayerCount: 2
Back
Fore
SplineSet
-37 23 m 1,0,-1
 81 47 l 1,1,-1
 317 654 l 1,2,-1
 314 656 l 1,3,-1
 179 624 l 1,4,-1
 171 651 l 1,5,6
 203 660 203 660 241 674.5 c 128,-1,7
 279 689 279 689 315 707 c 128,-1,8
 351 725 351 725 382 744 c 128,-1,9
 413 763 413 763 433 780 c 1,10,-1
 467 780 l 1,11,-1
 184 42 l 1,12,-1
 310 23 l 1,13,-1
 300 0 l 1,14,-1
 -46 0 l 1,15,-1
 -37 23 l 1,0,-1
EndSplineSet
Substitution2: "'onum' Oldstyle Figures in Latin lookup 9 subtable" one.oldstyle
Substitution2: "'numr' Numerators in Latin lookup 8 subtable" one.numerator
Substitution2: "'dnom' Denominators in Latin lookup 7 subtable" one.denominator
Substitution2: "'sups' Superscript in Latin lookup 6 subtable" onesuperior
Substitution2: "'sinf' Scientific Inferiors in Latin lookup 5 subtable" oneinferior
Substitution2: "'tnum' Tabular Numbers in Latin lookup 3 subtable" one.tnum
EndChar
StartChar: two
Encoding: 50 50 467
Width: 607
Flags: W
LayerCount: 2
Back
Fore
SplineSet
405 91 m 1,0,1
 434 120 434 120 454 146 c 128,-1,2
 474 172 474 172 491 204 c 1,3,-1
 523 204 l 1,4,-1
 441 0 l 1,5,-1
 16 0 l 1,6,7
 38 82 38 82 82 150 c 128,-1,8
 126 218 126 218 179.5 275.5 c 128,-1,9
 233 333 233 333 288.5 382.5 c 128,-1,10
 344 432 344 432 390 477.5 c 128,-1,11
 436 523 436 523 465 566.5 c 128,-1,12
 494 610 494 610 494 656 c 0,13,14
 494 691 494 691 475 712 c 128,-1,15
 456 733 456 733 421 733 c 0,16,17
 358 733 358 733 294.5 695 c 128,-1,18
 231 657 231 657 182 591 c 1,19,-1
 153 611 l 1,20,21
 216 694 216 694 287.5 737 c 128,-1,22
 359 780 359 780 451 780 c 0,23,24
 529 780 529 780 568.5 747 c 128,-1,25
 608 714 608 714 608 651 c 0,26,27
 608 596 608 596 580 552 c 128,-1,28
 552 508 552 508 507.5 468 c 128,-1,29
 463 428 463 428 407 389.5 c 128,-1,30
 351 351 351 351 294.5 307 c 128,-1,31
 238 263 238 263 187 210.5 c 128,-1,32
 136 158 136 158 102 91 c 1,33,-1
 405 91 l 1,0,1
EndSplineSet
Substitution2: "'onum' Oldstyle Figures in Latin lookup 9 subtable" two.oldstyle
Substitution2: "'numr' Numerators in Latin lookup 8 subtable" two.numerator
Substitution2: "'dnom' Denominators in Latin lookup 7 subtable" two.denominator
Substitution2: "'sups' Superscript in Latin lookup 6 subtable" twosuperior
Substitution2: "'sinf' Scientific Inferiors in Latin lookup 5 subtable" twoinferior
Substitution2: "'tnum' Tabular Numbers in Latin lookup 3 subtable" two.tnum
EndChar
StartChar: three
Encoding: 51 51 455
Width: 593
Flags: W
LayerCount: 2
Back
Fore
SplineSet
193 390 m 1,0,1
 256 411 256 411 308 441 c 128,-1,2
 360 471 360 471 397.5 505.5 c 128,-1,3
 435 540 435 540 456 577 c 128,-1,4
 477 614 477 614 477 650 c 0,5,6
 477 688 477 688 455 710.5 c 128,-1,7
 433 733 433 733 397 733 c 0,8,9
 349 733 349 733 297 697 c 128,-1,10
 245 661 245 661 195 593 c 1,11,-1
 166 614 l 1,12,13
 284 780 284 780 432 780 c 0,14,15
 501 780 501 780 539.5 748.5 c 128,-1,16
 578 717 578 717 578 660 c 256,17,18
 578 603 578 603 535 550 c 128,-1,19
 492 497 492 497 398 440 c 1,20,21
 449 430 449 430 479.5 388 c 128,-1,22
 510 346 510 346 510 285 c 0,23,24
 510 226 510 226 482 173 c 128,-1,25
 454 120 454 120 406.5 79 c 128,-1,26
 359 38 359 38 297 14 c 128,-1,27
 235 -10 235 -10 166 -10 c 0,28,29
 130 -10 130 -10 99.5 -3 c 128,-1,30
 69 4 69 4 46.5 16 c 128,-1,31
 24 28 24 28 11.5 44.5 c 128,-1,32
 -1 61 -1 61 -1 81 c 0,33,34
 -1 103 -1 103 14.5 117 c 128,-1,35
 30 131 30 131 54 131 c 0,36,37
 72 131 72 131 81.5 124 c 128,-1,38
 91 117 91 117 97.5 106 c 128,-1,39
 104 95 104 95 110 82.5 c 128,-1,40
 116 70 116 70 126 59 c 128,-1,41
 136 48 136 48 153 41 c 128,-1,42
 170 34 170 34 199 34 c 0,43,44
 241 34 241 34 277 51 c 128,-1,45
 313 68 313 68 339.5 97 c 128,-1,46
 366 126 366 126 381 166 c 128,-1,47
 396 206 396 206 396 253 c 0,48,49
 396 314 396 314 370.5 346.5 c 128,-1,50
 345 379 345 379 297 379 c 0,51,52
 275 379 275 379 249 373.5 c 128,-1,53
 223 368 223 368 204 359 c 1,54,-1
 193 390 l 1,0,1
EndSplineSet
Substitution2: "'onum' Oldstyle Figures in Latin lookup 9 subtable" three.oldstyle
Substitution2: "'numr' Numerators in Latin lookup 8 subtable" three.numerator
Substitution2: "'dnom' Denominators in Latin lookup 7 subtable" three.denominator
Substitution2: "'sups' Superscript in Latin lookup 6 subtable" threesuperior
Substitution2: "'sinf' Scientific Inferiors in Latin lookup 5 subtable" threeinferior
Substitution2: "'tnum' Tabular Numbers in Latin lookup 3 subtable" three.tnum
EndChar
StartChar: four
Encoding: 52 52 274
Width: 556
Flags: W
LayerCount: 2
Back
Fore
SplineSet
279 221 m 1,0,-1
 1 221 l 1,1,-1
 16 269 l 1,2,-1
 470 770 l 1,3,-1
 572 770 l 1,4,-1
 405 298 l 1,5,-1
 505 298 l 1,6,-1
 479 221 l 1,7,-1
 379 221 l 1,8,-1
 306 0 l 1,9,-1
 201 0 l 1,10,-1
 279 221 l 1,0,-1
306 298 m 1,11,-1
 439 675 l 1,12,-1
 435 675 l 1,13,-1
 95 298 l 1,14,-1
 306 298 l 1,11,-1
EndSplineSet
Substitution2: "'onum' Oldstyle Figures in Latin lookup 9 subtable" four.oldstyle
Substitution2: "'numr' Numerators in Latin lookup 8 subtable" four.numerator
Substitution2: "'dnom' Denominators in Latin lookup 7 subtable" four.denominator
Substitution2: "'sups' Superscript in Latin lookup 6 subtable" foursuperior
Substitution2: "'sinf' Scientific Inferiors in Latin lookup 5 subtable" fourinferior
Substitution2: "'tnum' Tabular Numbers in Latin lookup 3 subtable" four.tnum
EndChar
StartChar: five
Encoding: 53 53 265
Width: 543
Flags: W
LayerCount: 2
Back
Fore
SplineSet
247 757 m 1,0,-1
 499 757 l 1,1,-1
 525 797 l 1,2,-1
 547 790 l 1,3,-1
 508 667 l 1,4,-1
 258 667 l 1,5,-1
 191 476 l 1,6,7
 210 479 210 479 238 481 c 128,-1,8
 266 483 266 483 292 483 c 0,9,10
 384 483 384 483 435 434.5 c 128,-1,11
 486 386 486 386 486 298 c 0,12,13
 486 235 486 235 459.5 179 c 128,-1,14
 433 123 433 123 388 81 c 128,-1,15
 343 39 343 39 282.5 14.5 c 128,-1,16
 222 -10 222 -10 154 -10 c 0,17,18
 85 -10 85 -10 44 14 c 128,-1,19
 3 38 3 38 3 79 c 0,20,21
 3 102 3 102 17 116.5 c 128,-1,22
 31 131 31 131 55 131 c 0,23,24
 80 131 80 131 91 116 c 128,-1,25
 102 101 102 101 112 82.5 c 128,-1,26
 122 64 122 64 138 49 c 128,-1,27
 154 34 154 34 189 34 c 0,28,29
 225 34 225 34 258 52 c 128,-1,30
 291 70 291 70 316 100.5 c 128,-1,31
 341 131 341 131 355.5 171.5 c 128,-1,32
 370 212 370 212 370 256 c 0,33,34
 370 321 370 321 337 354.5 c 128,-1,35
 304 388 304 388 238 388 c 0,36,37
 206 388 206 388 177 383.5 c 128,-1,38
 148 379 148 379 127 372 c 1,39,-1
 115 382 l 1,40,-1
 247 757 l 1,0,-1
EndSplineSet
Substitution2: "'onum' Oldstyle Figures in Latin lookup 9 subtable" five.oldstyle
Substitution2: "'numr' Numerators in Latin lookup 8 subtable" five.numerator
Substitution2: "'dnom' Denominators in Latin lookup 7 subtable" five.denominator
Substitution2: "'sups' Superscript in Latin lookup 6 subtable" fivesuperior
Substitution2: "'sinf' Scientific Inferiors in Latin lookup 5 subtable" fiveinferior
Substitution2: "'tnum' Tabular Numbers in Latin lookup 3 subtable" five.tnum
EndChar
StartChar: six
Encoding: 54 54 438
Width: 578
Flags: W
LayerCount: 2
Back
Fore
SplineSet
570 754 m 1,0,1
 523 736 523 736 475.5 706 c 128,-1,2
 428 676 428 676 384 638 c 128,-1,3
 340 600 340 600 301.5 556 c 128,-1,4
 263 512 263 512 235 466 c 1,5,-1
 238 463 l 1,6,7
 264 479 264 479 296.5 489 c 128,-1,8
 329 499 329 499 367 499 c 0,9,10
 529 499 529 499 529 346 c 0,11,12
 529 280 529 280 500 216 c 128,-1,13
 471 152 471 152 424 102 c 128,-1,14
 377 52 377 52 317.5 21 c 128,-1,15
 258 -10 258 -10 197 -10 c 0,16,17
 53 -10 53 -10 53 171 c 0,18,19
 53 272 53 272 90.5 367 c 128,-1,20
 128 462 128 462 195.5 542 c 128,-1,21
 263 622 263 622 356 683.5 c 128,-1,22
 449 745 449 745 560 780 c 1,23,-1
 570 754 l 1,0,1
221 33 m 0,24,25
 256 33 256 33 291 63.5 c 128,-1,26
 326 94 326 94 354 141.5 c 128,-1,27
 382 189 382 189 399.5 246 c 128,-1,28
 417 303 417 303 417 356 c 0,29,30
 417 455 417 455 342 455 c 0,31,32
 304 455 304 455 270 430 c 128,-1,33
 236 405 236 405 210.5 362.5 c 128,-1,34
 185 320 185 320 170 263.5 c 128,-1,35
 155 207 155 207 155 143 c 0,36,37
 155 85 155 85 170 59 c 128,-1,38
 185 33 185 33 221 33 c 0,24,25
EndSplineSet
Substitution2: "'onum' Oldstyle Figures in Latin lookup 9 subtable" six.oldstyle
Substitution2: "'numr' Numerators in Latin lookup 8 subtable" six.numerator
Substitution2: "'dnom' Denominators in Latin lookup 7 subtable" six.denominator
Substitution2: "'sups' Superscript in Latin lookup 6 subtable" sixsuperior
Substitution2: "'sinf' Scientific Inferiors in Latin lookup 5 subtable" sixinferior
Substitution2: "'tnum' Tabular Numbers in Latin lookup 3 subtable" six.tnum
EndChar
StartChar: seven
Encoding: 55 55 430
Width: 520
Flags: W
LayerCount: 2
Back
Fore
SplineSet
255 820 m 1,0,-1
 282 820 l 1,1,-1
 282 770 l 1,2,-1
 628 770 l 1,3,-1
 638 745 l 1,4,5
 563 638 563 638 504.5 548 c 128,-1,6
 446 458 446 458 401 377 c 128,-1,7
 356 296 356 296 322 221.5 c 128,-1,8
 288 147 288 147 263 72 c 0,9,10
 255 48 255 48 247.5 32 c 128,-1,11
 240 16 240 16 231.5 7 c 128,-1,12
 223 -2 223 -2 213 -6 c 128,-1,13
 203 -10 203 -10 190 -10 c 0,14,15
 139 -10 139 -10 139 43 c 0,16,17
 139 59 139 59 146.5 82 c 128,-1,18
 154 105 154 105 171.5 139 c 128,-1,19
 189 173 189 173 219 220.5 c 128,-1,20
 249 268 249 268 293 333.5 c 128,-1,21
 337 399 337 399 397 484.5 c 128,-1,22
 457 570 457 570 536 680 c 1,23,-1
 257 680 l 1,24,-1
 197 619 l 1,25,-1
 161 619 l 1,26,-1
 255 820 l 1,0,-1
EndSplineSet
Substitution2: "'onum' Oldstyle Figures in Latin lookup 9 subtable" seven.oldstyle
Substitution2: "'numr' Numerators in Latin lookup 8 subtable" seven.numerator
Substitution2: "'dnom' Denominators in Latin lookup 7 subtable" seven.denominator
Substitution2: "'sups' Superscript in Latin lookup 6 subtable" sevensuperior
Substitution2: "'sinf' Scientific Inferiors in Latin lookup 5 subtable" seveninferior
Substitution2: "'tnum' Tabular Numbers in Latin lookup 3 subtable" seven.tnum
EndChar
StartChar: eight
Encoding: 56 56 230
Width: 621
Flags: W
LayerCount: 2
Back
Fore
SplineSet
253 447 m 2,0,1
 247 454 247 454 238.5 467 c 128,-1,2
 230 480 230 480 222 498 c 128,-1,3
 214 516 214 516 208.5 538.5 c 128,-1,4
 203 561 203 561 203 585 c 0,5,6
 203 634 203 634 221.5 671 c 128,-1,7
 240 708 240 708 270.5 732 c 128,-1,8
 301 756 301 756 340 768 c 128,-1,9
 379 780 379 780 420 780 c 0,10,11
 500 780 500 780 545.5 741.5 c 128,-1,12
 591 703 591 703 591 641 c 0,13,14
 591 600 591 600 573 569 c 128,-1,15
 555 538 555 538 527.5 514 c 128,-1,16
 500 490 500 490 466 472 c 128,-1,17
 432 454 432 454 401 440 c 1,18,-1
 433 401 l 2,19,20
 460 368 460 368 481.5 323.5 c 128,-1,21
 503 279 503 279 503 230 c 0,22,23
 503 168 503 168 482 123 c 128,-1,24
 461 78 461 78 426.5 48.5 c 128,-1,25
 392 19 392 19 348 4.5 c 128,-1,26
 304 -10 304 -10 258 -10 c 0,27,28
 201 -10 201 -10 159.5 5 c 128,-1,29
 118 20 118 20 90.5 45.5 c 128,-1,30
 63 71 63 71 50 104 c 128,-1,31
 37 137 37 137 37 172 c 0,32,33
 37 223 37 223 60.5 263 c 128,-1,34
 84 303 84 303 119 333 c 128,-1,35
 154 363 154 363 196 384.5 c 128,-1,36
 238 406 238 406 274 421 c 1,37,-1
 253 447 l 2,0,1
298 390 m 1,38,39
 263 371 263 371 234 351.5 c 128,-1,40
 205 332 205 332 184.5 308 c 128,-1,41
 164 284 164 284 152.5 253 c 128,-1,42
 141 222 141 222 141 179 c 0,43,44
 141 149 141 149 149 122.5 c 128,-1,45
 157 96 157 96 173 75.5 c 128,-1,46
 189 55 189 55 213.5 43.5 c 128,-1,47
 238 32 238 32 270 32 c 0,48,49
 337 32 337 32 375 72 c 128,-1,50
 413 112 413 112 413 181 c 0,51,52
 413 220 413 220 398 252 c 128,-1,53
 383 284 383 284 359 314 c 2,54,-1
 298 390 l 1,38,39
376 467 m 1,55,56
 401 484 401 484 423.5 503.5 c 128,-1,57
 446 523 446 523 462.5 545.5 c 128,-1,58
 479 568 479 568 488.5 594 c 128,-1,59
 498 620 498 620 498 651 c 0,60,61
 498 689 498 689 478.5 713.5 c 128,-1,62
 459 738 459 738 415 738 c 0,63,64
 388 738 388 738 365 730 c 128,-1,65
 342 722 342 722 325 707 c 128,-1,66
 308 692 308 692 298.5 670.5 c 128,-1,67
 289 649 289 649 289 623 c 0,68,69
 289 599 289 599 297 577 c 128,-1,70
 305 555 305 555 318 535.5 c 128,-1,71
 331 516 331 516 346.5 499 c 128,-1,72
 362 482 362 482 376 467 c 1,55,56
EndSplineSet
Substitution2: "'onum' Oldstyle Figures in Latin lookup 9 subtable" eight.oldstyle
Substitution2: "'numr' Numerators in Latin lookup 8 subtable" eight.numerator
Substitution2: "'dnom' Denominators in Latin lookup 7 subtable" eight.denominator
Substitution2: "'sups' Superscript in Latin lookup 6 subtable" eightsuperior
Substitution2: "'sinf' Scientific Inferiors in Latin lookup 5 subtable" eightinferior
Substitution2: "'tnum' Tabular Numbers in Latin lookup 3 subtable" eight.tnum
EndChar
StartChar: nine
Encoding: 57 57 342
Width: 578
Flags: W
LayerCount: 2
Back
Fore
SplineSet
81 16 m 1,0,1
 130 35 130 35 178 65 c 128,-1,2
 226 95 226 95 270 133 c 128,-1,3
 314 171 314 171 352 216 c 128,-1,4
 390 261 390 261 418 309 c 1,5,-1
 415 312 l 1,6,7
 390 295 390 295 355 283 c 128,-1,8
 320 271 320 271 284 271 c 0,9,10
 122 271 122 271 122 424 c 0,11,12
 122 490 122 490 151 554 c 128,-1,13
 180 618 180 618 227 668 c 128,-1,14
 274 718 274 718 333.5 749 c 128,-1,15
 393 780 393 780 454 780 c 0,16,17
 598 780 598 780 598 599 c 0,18,19
 598 498 598 498 560.5 403 c 128,-1,20
 523 308 523 308 455.5 228 c 128,-1,21
 388 148 388 148 295 86.5 c 128,-1,22
 202 25 202 25 91 -10 c 1,23,-1
 81 16 l 1,0,1
430 737 m 0,24,25
 395 737 395 737 360 706.5 c 128,-1,26
 325 676 325 676 297 628.5 c 128,-1,27
 269 581 269 581 251.5 524 c 128,-1,28
 234 467 234 467 234 414 c 0,29,30
 234 315 234 315 309 315 c 0,31,32
 347 315 347 315 381 340 c 128,-1,33
 415 365 415 365 440.5 407.5 c 128,-1,34
 466 450 466 450 481 506.5 c 128,-1,35
 496 563 496 563 496 627 c 0,36,37
 496 685 496 685 481 711 c 128,-1,38
 466 737 466 737 430 737 c 0,24,25
EndSplineSet
Substitution2: "'onum' Oldstyle Figures in Latin lookup 9 subtable" nine.oldstyle
Substitution2: "'numr' Numerators in Latin lookup 8 subtable" nine.numerator
Substitution2: "'dnom' Denominators in Latin lookup 7 subtable" nine.denominator
Substitution2: "'sups' Superscript in Latin lookup 6 subtable" ninesuperior
Substitution2: "'sinf' Scientific Inferiors in Latin lookup 5 subtable" nineinferior
Substitution2: "'tnum' Tabular Numbers in Latin lookup 3 subtable" nine.tnum
EndChar
StartChar: colon
Encoding: 58 58 194
Width: 327
Flags: W
LayerCount: 2
Back
Fore
SplineSet
88 137 m 0,0,1
 118 137 118 137 140.5 118.5 c 128,-1,2
 163 100 163 100 163 72 c 0,3,4
 163 56 163 56 155.5 41.5 c 128,-1,5
 148 27 148 27 135.5 15.5 c 128,-1,6
 123 4 123 4 107 -3 c 128,-1,7
 91 -10 91 -10 75 -10 c 0,8,9
 41 -10 41 -10 21.5 8.5 c 128,-1,10
 2 27 2 27 2 57 c 0,11,12
 2 73 2 73 9 88 c 128,-1,13
 16 103 16 103 28 113.5 c 128,-1,14
 40 124 40 124 55.5 130.5 c 128,-1,15
 71 137 71 137 88 137 c 0,0,1
207 501 m 0,16,17
 237 501 237 501 259.5 482.5 c 128,-1,18
 282 464 282 464 282 436 c 0,19,20
 282 420 282 420 274.5 405.5 c 128,-1,21
 267 391 267 391 254.5 379.5 c 128,-1,22
 242 368 242 368 226 361 c 128,-1,23
 210 354 210 354 194 354 c 0,24,25
 160 354 160 354 140.5 372.5 c 128,-1,26
 121 391 121 391 121 421 c 0,27,28
 121 437 121 437 128 452 c 128,-1,29
 135 467 135 467 147 477.5 c 128,-1,30
 159 488 159 488 174.5 494.5 c 128,-1,31
 190 501 190 501 207 501 c 0,16,17
EndSplineSet
Substitution2: "'tnum' Tabular Numbers in Latin lookup 3 subtable" colon.tnum
EndChar
StartChar: semicolon
Encoding: 59 59 427
Width: 331
Flags: W
LayerCount: 2
Back
Fore
SplineSet
209 501 m 0,0,1
 239 501 239 501 261.5 482.5 c 128,-1,2
 284 464 284 464 284 436 c 0,3,4
 284 420 284 420 276.5 405.5 c 128,-1,5
 269 391 269 391 256.5 379.5 c 128,-1,6
 244 368 244 368 228 361 c 128,-1,7
 212 354 212 354 196 354 c 0,8,9
 162 354 162 354 142.5 372.5 c 128,-1,10
 123 391 123 391 123 421 c 0,11,12
 123 437 123 437 130 452 c 128,-1,13
 137 467 137 467 149 477.5 c 128,-1,14
 161 488 161 488 176.5 494.5 c 128,-1,15
 192 501 192 501 209 501 c 0,0,1
61 0 m 0,16,17
 4 10 4 10 4 64 c 0,18,19
 4 98 4 98 24.5 117.5 c 128,-1,20
 45 137 45 137 80 137 c 0,21,22
 118 137 118 137 139 113.5 c 128,-1,23
 160 90 160 90 160 45 c 0,24,25
 160 -16 160 -16 121 -74.5 c 128,-1,26
 82 -133 82 -133 5 -186 c 1,27,-1
 -13 -165 l 1,28,29
 9 -149 9 -149 28.5 -129.5 c 128,-1,30
 48 -110 48 -110 63 -90 c 128,-1,31
 78 -70 78 -70 87 -52 c 128,-1,32
 96 -34 96 -34 96 -21 c 0,33,34
 96 -11 96 -11 90.5 -8 c 128,-1,35
 85 -5 85 -5 61 0 c 0,16,17
EndSplineSet
Substitution2: "'tnum' Tabular Numbers in Latin lookup 3 subtable" semicolon.tnum
EndChar
StartChar: less
Encoding: 60 60 324
Width: 589
Flags: W
LayerCount: 2
Back
Fore
SplineSet
65 310 m 1,0,-1
 65 361 l 1,1,-1
 474 556 l 1,2,-1
 474 495 l 1,3,-1
 137 341 l 1,4,-1
 137 337 l 1,5,-1
 474 181 l 1,6,-1
 474 116 l 1,7,-1
 65 310 l 1,0,-1
EndSplineSet
Substitution2: "'tnum' Tabular Numbers in Latin lookup 3 subtable" less.tnum
EndChar
StartChar: equal
Encoding: 61 61 243
Width: 628
Flags: W
LayerCount: 2
Back
Fore
SplineSet
139 274 m 1,0,-1
 505 274 l 1,1,-1
 505 232 l 1,2,-1
 139 232 l 1,3,-1
 139 274 l 1,0,-1
139 424 m 1,4,-1
 505 424 l 1,5,-1
 505 382 l 1,6,-1
 139 382 l 1,7,-1
 139 424 l 1,4,-1
EndSplineSet
Substitution2: "'tnum' Tabular Numbers in Latin lookup 3 subtable" equal.tnum
EndChar
StartChar: greater
Encoding: 62 62 290
Width: 582
Flags: W
LayerCount: 2
Back
Fore
SplineSet
138 121 m 1,0,-1
 138 181 l 1,1,-1
 475 337 l 1,2,-1
 475 341 l 1,3,-1
 138 495 l 1,4,-1
 138 561 l 1,5,-1
 547 366 l 1,6,-1
 547 315 l 1,7,-1
 138 121 l 1,0,-1
EndSplineSet
Substitution2: "'tnum' Tabular Numbers in Latin lookup 3 subtable" greater.tnum
EndChar
StartChar: question
Encoding: 63 63 397
Width: 483
Flags: W
LayerCount: 2
Back
Fore
SplineSet
184 -10 m 0,0,1
 158 -10 158 -10 139.5 6.5 c 128,-1,2
 121 23 121 23 121 48 c 0,3,4
 121 75 121 75 143.5 95 c 128,-1,5
 166 115 166 115 196 115 c 0,6,7
 222 115 222 115 238.5 99 c 128,-1,8
 255 83 255 83 255 58 c 0,9,10
 255 30 255 30 234 10 c 128,-1,11
 213 -10 213 -10 184 -10 c 0,0,1
331 194 m 1,12,13
 262 196 262 196 227 225.5 c 128,-1,14
 192 255 192 255 192 307 c 0,15,16
 192 344 192 344 212 374.5 c 128,-1,17
 232 405 232 405 262 432 c 128,-1,18
 292 459 292 459 326.5 484 c 128,-1,19
 361 509 361 509 391 536.5 c 128,-1,20
 421 564 421 564 441 595 c 128,-1,21
 461 626 461 626 461 665 c 0,22,23
 461 701 461 701 440 724 c 128,-1,24
 419 747 419 747 386 747 c 0,25,26
 362 747 362 747 348.5 733 c 128,-1,27
 335 719 335 719 323.5 702.5 c 128,-1,28
 312 686 312 686 298 672.5 c 128,-1,29
 284 659 284 659 260 659 c 0,30,31
 240 659 240 659 228 671 c 128,-1,32
 216 683 216 683 216 703 c 0,33,34
 216 737 216 737 256.5 758.5 c 128,-1,35
 297 780 297 780 362 780 c 0,36,37
 445 780 445 780 491.5 742.5 c 128,-1,38
 538 705 538 705 538 637 c 0,39,40
 538 592 538 592 518.5 557.5 c 128,-1,41
 499 523 499 523 469.5 494.5 c 128,-1,42
 440 466 440 466 406 442 c 128,-1,43
 372 418 372 418 342.5 394 c 128,-1,44
 313 370 313 370 293.5 345 c 128,-1,45
 274 320 274 320 274 289 c 0,46,47
 274 260 274 260 291 242 c 128,-1,48
 308 224 308 224 336 222 c 1,49,-1
 331 194 l 1,12,13
EndSplineSet
EndChar
StartChar: at
Encoding: 64 64 164
Width: 920
Flags: W
LayerCount: 2
Back
Fore
SplineSet
648 -123 m 1,0,1
 604 -149 604 -149 550.5 -163.5 c 128,-1,2
 497 -178 497 -178 426 -178 c 256,3,4
 355 -178 355 -178 286.5 -157.5 c 128,-1,5
 218 -137 218 -137 163.5 -94.5 c 128,-1,6
 109 -52 109 -52 75.5 13.5 c 128,-1,7
 42 79 42 79 42 169 c 0,8,9
 42 269 42 269 79.5 350.5 c 128,-1,10
 117 432 117 432 179 490 c 128,-1,11
 241 548 241 548 322.5 579 c 128,-1,12
 404 610 404 610 492 610 c 0,13,14
 571 610 571 610 633.5 585 c 128,-1,15
 696 560 696 560 739 519 c 128,-1,16
 782 478 782 478 805 424.5 c 128,-1,17
 828 371 828 371 828 314 c 0,18,19
 828 255 828 255 810.5 201.5 c 128,-1,20
 793 148 793 148 762.5 108 c 128,-1,21
 732 68 732 68 689.5 44.5 c 128,-1,22
 647 21 647 21 597 21 c 0,23,24
 552 21 552 21 527 43 c 128,-1,25
 502 65 502 65 502 107 c 0,26,27
 502 119 502 119 507 127 c 1,28,-1
 503 128 l 1,29,30
 465 71 465 71 426 52.5 c 128,-1,31
 387 34 387 34 350 34 c 0,32,33
 297 34 297 34 267.5 67.5 c 128,-1,34
 238 101 238 101 238 164 c 0,35,36
 238 205 238 205 260 254.5 c 128,-1,37
 282 304 282 304 318.5 347.5 c 128,-1,38
 355 391 355 391 402.5 420.5 c 128,-1,39
 450 450 450 450 502 450 c 0,40,41
 525 450 525 450 545 439 c 128,-1,42
 565 428 565 428 575 411 c 1,43,-1
 579 411 l 1,44,-1
 590 450 l 1,45,-1
 670 450 l 1,46,-1
 589 160 l 2,47,48
 582 138 582 138 582 119 c 0,49,50
 582 71 582 71 630 71 c 0,51,52
 656 71 656 71 682.5 86.5 c 128,-1,53
 709 102 709 102 730 132 c 128,-1,54
 751 162 751 162 764.5 206.5 c 128,-1,55
 778 251 778 251 778 309 c 0,56,57
 778 368 778 368 755.5 415.5 c 128,-1,58
 733 463 733 463 693 496 c 128,-1,59
 653 529 653 529 599 547 c 128,-1,60
 545 565 545 565 482 565 c 0,61,62
 400 565 400 565 335.5 532 c 128,-1,63
 271 499 271 499 226 444.5 c 128,-1,64
 181 390 181 390 157 318.5 c 128,-1,65
 133 247 133 247 133 170 c 0,66,67
 133 120 133 120 149 66.5 c 128,-1,68
 165 13 165 13 203 -31.5 c 128,-1,69
 241 -76 241 -76 303.5 -105 c 128,-1,70
 366 -134 366 -134 460 -134 c 0,71,72
 522 -134 522 -134 564.5 -123 c 128,-1,73
 607 -112 607 -112 637 -94 c 1,74,-1
 648 -123 l 1,0,1
379 89 m 0,75,76
 408 89 408 89 438 115.5 c 128,-1,77
 468 142 468 142 492 181.5 c 128,-1,78
 516 221 516 221 531 266.5 c 128,-1,79
 546 312 546 312 546 351 c 0,80,81
 546 375 546 375 536.5 391 c 128,-1,82
 527 407 527 407 503 407 c 0,83,84
 476 407 476 407 445 381 c 128,-1,85
 414 355 414 355 387.5 317.5 c 128,-1,86
 361 280 361 280 343 237 c 128,-1,87
 325 194 325 194 325 160 c 0,88,89
 325 122 325 122 338 105.5 c 128,-1,90
 351 89 351 89 379 89 c 0,75,76
EndSplineSet
EndChar
StartChar: B
Encoding: 66 66 14
Width: 715
Flags: W
LayerCount: 2
Back
Fore
SplineSet
243 38 m 0,0,1
 375 38 375 38 443 93 c 128,-1,2
 511 148 511 148 511 251 c 0,3,4
 511 323 511 323 473.5 356 c 128,-1,5
 436 389 436 389 359 389 c 2,6,-1
 287 389 l 1,7,-1
 183 135 l 2,8,9
 166 94 166 94 166 74 c 256,10,11
 166 54 166 54 183.5 46 c 128,-1,12
 201 38 201 38 243 38 c 0,0,1
397 429 m 2,13,14
 503 429 503 429 561.5 477.5 c 128,-1,15
 620 526 620 526 620 612 c 0,16,17
 620 672 620 672 587.5 700.5 c 128,-1,18
 555 729 555 729 491 729 c 2,19,-1
 430 729 l 1,20,-1
 304 429 l 1,21,-1
 397 429 l 2,13,14
-52 28 m 1,22,-1
 36 47 l 1,23,-1
 318 723 l 1,24,-1
 240 742 l 1,25,-1
 251 770 l 1,26,-1
 491 770 l 2,27,28
 544 770 544 770 587 759 c 128,-1,29
 630 748 630 748 660.5 728 c 128,-1,30
 691 708 691 708 707.5 678.5 c 128,-1,31
 724 649 724 649 724 613 c 0,32,33
 724 575 724 575 706.5 540 c 128,-1,34
 689 505 689 505 658.5 476.5 c 128,-1,35
 628 448 628 448 585.5 428 c 128,-1,36
 543 408 543 408 494 401 c 1,37,-1
 494 397 l 1,38,39
 554 382 554 382 586.5 339.5 c 128,-1,40
 619 297 619 297 619 234 c 0,41,42
 619 181 619 181 596 138 c 128,-1,43
 573 95 573 95 530.5 64 c 128,-1,44
 488 33 488 33 428.5 16.5 c 128,-1,45
 369 0 369 0 296 0 c 2,46,-1
 -63 0 l 1,47,-1
 -52 28 l 1,22,-1
EndSplineSet
EndChar
StartChar: F
Encoding: 70 70 42
Width: 644
Flags: W
LayerCount: 2
Back
Fore
SplineSet
-68 0 m 1,0,-1
 -58 23 l 1,1,-1
 34 42 l 1,2,-1
 318 728 l 1,3,-1
 240 747 l 1,4,-1
 250 770 l 1,5,-1
 738 770 l 1,6,-1
 738 550 l 1,7,-1
 711 550 l 1,8,9
 703 604 703 604 690.5 648 c 128,-1,10
 678 692 678 692 661 730 c 1,11,-1
 427 730 l 1,12,-1
 298 414 l 1,13,-1
 466 414 l 1,14,15
 515 471 515 471 550 528 c 1,16,-1
 579 528 l 1,17,-1
 466 254 l 1,18,-1
 437 254 l 1,19,20
 445 284 445 284 448.5 314 c 128,-1,21
 452 344 452 344 454 374 c 1,22,-1
 280 374 l 1,23,-1
 143 40 l 1,24,-1
 260 23 l 1,25,-1
 250 0 l 1,26,-1
 -68 0 l 1,0,-1
EndSplineSet
EndChar
StartChar: H
Encoding: 72 72 48
Width: 859
Flags: W
LayerCount: 2
Back
Fore
SplineSet
643 385 m 1,0,-1
 287 385 l 1,1,-1
 145 42 l 1,2,-1
 227 23 l 1,3,-1
 217 0 l 1,4,-1
 -72 0 l 1,5,-1
 -62 23 l 1,6,-1
 35 42 l 1,7,-1
 319 728 l 1,8,-1
 236 747 l 1,9,-1
 246 770 l 1,10,-1
 536 770 l 1,11,-1
 526 747 l 1,12,-1
 430 728 l 1,13,-1
 304 425 l 1,14,-1
 660 425 l 1,15,-1
 786 728 l 1,16,-1
 703 747 l 1,17,-1
 713 770 l 1,18,-1
 1003 770 l 1,19,-1
 993 745 l 1,20,-1
 897 728 l 1,21,-1
 612 42 l 1,22,-1
 693 21 l 1,23,-1
 684 0 l 1,24,-1
 394 0 l 1,25,-1
 404 23 l 1,26,-1
 501 42 l 1,27,-1
 643 385 l 1,0,-1
EndSplineSet
EndChar
StartChar: I
Encoding: 73 73 52
Width: 392
Flags: W
LayerCount: 2
Back
Fore
SplineSet
319 728 m 1,0,-1
 236 747 l 1,1,-1
 246 770 l 1,2,-1
 536 770 l 1,3,-1
 526 747 l 1,4,-1
 430 728 l 1,5,-1
 145 42 l 1,6,-1
 227 23 l 1,7,-1
 217 0 l 1,8,-1
 -72 0 l 1,9,-1
 -62 23 l 1,10,-1
 35 42 l 1,11,-1
 319 728 l 1,0,-1
EndSplineSet
EndChar
StartChar: J
Encoding: 74 74 64
Width: 380
Flags: W
LayerCount: 2
Back
Fore
SplineSet
115 -27 m 2,0,1
 93 -80 93 -80 63 -122.5 c 128,-1,2
 33 -165 33 -165 -2.5 -194.5 c 128,-1,3
 -38 -224 -38 -224 -77 -240 c 128,-1,4
 -116 -256 -116 -256 -157 -256 c 0,5,6
 -212 -256 -212 -256 -244 -232.5 c 128,-1,7
 -276 -209 -276 -209 -276 -177 c 0,8,9
 -276 -153 -276 -153 -260.5 -140 c 128,-1,10
 -245 -127 -245 -127 -225 -127 c 0,11,12
 -201 -127 -201 -127 -191 -141 c 128,-1,13
 -181 -155 -181 -155 -174.5 -171.5 c 128,-1,14
 -168 -188 -168 -188 -159.5 -202 c 128,-1,15
 -151 -216 -151 -216 -128 -216 c 0,16,17
 -112 -216 -112 -216 -98 -207 c 128,-1,18
 -84 -198 -84 -198 -69 -176 c 128,-1,19
 -54 -154 -54 -154 -37 -117.5 c 128,-1,20
 -20 -81 -20 -81 3 -27 c 2,21,-1
 318 728 l 1,22,-1
 235 747 l 1,23,-1
 245 770 l 1,24,-1
 535 770 l 1,25,-1
 525 747 l 1,26,-1
 429 728 l 1,27,-1
 115 -27 l 2,0,1
EndSplineSet
EndChar
StartChar: K
Encoding: 75 75 66
Width: 743
Flags: W
LayerCount: 2
Back
Fore
SplineSet
429 729 m 1,0,-1
 295 407 l 1,1,-1
 610 655 l 2,2,3
 655 691 655 691 655 710 c 0,4,5
 655 725 655 725 638.5 735 c 128,-1,6
 622 745 622 745 586 747 c 1,7,-1
 595 770 l 1,8,-1
 854 770 l 1,9,-1
 840 742 l 1,10,11
 818 740 818 740 800.5 736.5 c 128,-1,12
 783 733 783 733 768 727 c 128,-1,13
 753 721 753 721 738 711.5 c 128,-1,14
 723 702 723 702 707 689 c 2,15,-1
 417 458 l 1,16,-1
 574 42 l 1,17,-1
 662 23 l 1,18,-1
 655 0 l 1,19,-1
 474 0 l 1,20,-1
 335 392 l 1,21,-1
 266 338 l 1,22,-1
 143 42 l 1,23,-1
 262 23 l 1,24,-1
 252 0 l 1,25,-1
 -64 0 l 1,26,-1
 -55 23 l 1,27,-1
 33 42 l 1,28,-1
 319 728 l 1,29,-1
 241 747 l 1,30,-1
 250 770 l 1,31,-1
 520 770 l 1,32,-1
 510 747 l 1,33,-1
 429 729 l 1,0,-1
EndSplineSet
EndChar
StartChar: L
Encoding: 76 76 68
Width: 695
Flags: W
LayerCount: 2
Back
Fore
SplineSet
-68 0 m 1,0,-1
 -58 23 l 1,1,-1
 34 42 l 1,2,-1
 318 728 l 1,3,-1
 240 747 l 1,4,-1
 250 770 l 1,5,-1
 536 770 l 1,6,-1
 526 747 l 1,7,-1
 425 725 l 1,8,-1
 143 40 l 1,9,-1
 461 40 l 1,10,11
 502 88 502 88 538 141 c 128,-1,12
 574 194 574 194 603 242 c 1,13,-1
 637 242 l 1,14,-1
 541 0 l 1,15,-1
 -68 0 l 1,0,-1
EndSplineSet
EndChar
StartChar: M
Encoding: 77 77 74
Width: 994
Flags: W
LayerCount: 2
Back
Fore
SplineSet
-90 23 m 1,0,-1
 7 42 l 1,1,-1
 358 728 l 1,2,-1
 268 747 l 1,3,-1
 277 770 l 1,4,-1
 511 770 l 1,5,-1
 439 169 l 1,6,-1
 443 169 l 1,7,-1
 904 770 l 1,8,-1
 1138 770 l 1,9,-1
 1129 747 l 1,10,-1
 1032 728 l 1,11,-1
 747 42 l 1,12,-1
 829 23 l 1,13,-1
 819 0 l 1,14,-1
 535 0 l 1,15,-1
 545 23 l 1,16,-1
 642 42 l 1,17,-1
 921 710 l 1,18,-1
 917 710 l 1,19,-1
 359 -10 l 1,20,-1
 306 -10 l 1,21,-1
 393 690 l 1,22,-1
 389 690 l 1,23,-1
 55 42 l 1,24,-1
 137 23 l 1,25,-1
 127 0 l 1,26,-1
 -100 0 l 1,27,-1
 -90 23 l 1,0,-1
EndSplineSet
EndChar
StartChar: P
Encoding: 80 80 96
Width: 653
Flags: W
LayerCount: 2
Back
Fore
SplineSet
265 341 m 1,0,-1
 143 42 l 1,1,-1
 262 23 l 1,2,-1
 252 0 l 1,3,-1
 -64 0 l 1,4,-1
 -55 23 l 1,5,-1
 33 42 l 1,6,-1
 319 728 l 1,7,-1
 241 747 l 1,8,-1
 250 770 l 1,9,-1
 490 770 l 2,10,11
 599 770 599 770 659.5 724 c 128,-1,12
 720 678 720 678 720 594 c 0,13,14
 720 537 720 537 694.5 490.5 c 128,-1,15
 669 444 669 444 622 410.5 c 128,-1,16
 575 377 575 377 509 359 c 128,-1,17
 443 341 443 341 363 341 c 2,18,-1
 265 341 l 1,0,-1
377 385 m 2,19,20
 426 385 426 385 470 402.5 c 128,-1,21
 514 420 514 420 546 450.5 c 128,-1,22
 578 481 578 481 597 521.5 c 128,-1,23
 616 562 616 562 616 608 c 0,24,25
 616 667 616 667 584 698 c 128,-1,26
 552 729 552 729 490 729 c 2,27,-1
 429 729 l 1,28,-1
 284 385 l 1,29,-1
 377 385 l 2,19,20
EndSplineSet
EndChar
StartChar: Q
Encoding: 81 81 97
Width: 804
Flags: W
LayerCount: 2
Back
Fore
SplineSet
270 -8 m 1,0,1
 178 3 178 3 127 65 c 128,-1,2
 76 127 76 127 76 237 c 0,3,4
 76 305 76 305 95.5 371.5 c 128,-1,5
 115 438 115 438 149.5 498.5 c 128,-1,6
 184 559 184 559 231 610.5 c 128,-1,7
 278 662 278 662 333.5 699.5 c 128,-1,8
 389 737 389 737 450 758.5 c 128,-1,9
 511 780 511 780 574 780 c 0,10,11
 683 780 683 780 742.5 715 c 128,-1,12
 802 650 802 650 802 530 c 0,13,14
 802 443 802 443 771 362 c 128,-1,15
 740 281 740 281 688 212.5 c 128,-1,16
 636 144 636 144 568 91 c 128,-1,17
 500 38 500 38 425 8 c 2,18,-1
 190 -87 l 1,19,20
 218 -108 218 -108 249 -117.5 c 128,-1,21
 280 -127 280 -127 325 -127 c 0,22,23
 391 -127 391 -127 439.5 -109 c 128,-1,24
 488 -91 488 -91 508 -63 c 1,25,-1
 542 -63 l 1,26,27
 537 -80 537 -80 521.5 -108 c 128,-1,28
 506 -136 506 -136 478.5 -162.5 c 128,-1,29
 451 -189 451 -189 412.5 -208 c 128,-1,30
 374 -227 374 -227 325 -227 c 0,31,32
 279 -227 279 -227 251 -211 c 128,-1,33
 223 -195 223 -195 201.5 -176.5 c 128,-1,34
 180 -158 180 -158 159.5 -142 c 128,-1,35
 139 -126 139 -126 108 -126 c 0,36,37
 94 -126 94 -126 90 -129.5 c 128,-1,38
 86 -133 86 -133 86 -140 c 0,39,40
 86 -146 86 -146 88 -152.5 c 128,-1,41
 90 -159 90 -159 90 -166 c 0,42,43
 90 -180 90 -180 78.5 -190.5 c 128,-1,44
 67 -201 67 -201 50 -201 c 0,45,46
 30 -201 30 -201 21 -188 c 128,-1,47
 12 -175 12 -175 12 -159 c 0,48,49
 12 -136 12 -136 28.5 -120 c 128,-1,50
 45 -104 45 -104 79 -90 c 2,51,-1
 270 -12 l 1,52,-1
 270 -8 l 1,0,1
318 37 m 0,53,54
 364 37 364 37 409.5 58 c 128,-1,55
 455 79 455 79 496.5 116 c 128,-1,56
 538 153 538 153 573.5 203 c 128,-1,57
 609 253 609 253 635 311.5 c 128,-1,58
 661 370 661 370 676 434 c 128,-1,59
 691 498 691 498 691 562 c 0,60,61
 691 651 691 651 660.5 693.5 c 128,-1,62
 630 736 630 736 567 736 c 0,63,64
 521 736 521 736 475.5 715 c 128,-1,65
 430 694 430 694 388 657 c 128,-1,66
 346 620 346 620 310.5 569.5 c 128,-1,67
 275 519 275 519 248.5 461 c 128,-1,68
 222 403 222 403 207 339.5 c 128,-1,69
 192 276 192 276 192 212 c 0,70,71
 192 37 192 37 318 37 c 0,53,54
EndSplineSet
EndChar
StartChar: T
Encoding: 84 84 109
Width: 735
Flags: W
LayerCount: 2
Back
Fore
SplineSet
490 730 m 1,0,-1
 312 730 l 1,1,2
 262 687 262 687 218.5 640 c 128,-1,3
 175 593 175 593 143 550 c 1,4,-1
 119 550 l 1,5,-1
 247 770 l 1,6,-1
 873 770 l 1,7,-1
 819 550 l 1,8,-1
 795 550 l 1,9,10
 796 561 796 561 796 572.5 c 128,-1,11
 796 584 796 584 796 595 c 0,12,13
 796 629 796 629 792 663.5 c 128,-1,14
 788 698 788 698 777 730 c 1,15,-1
 599 730 l 1,16,-1
 314 42 l 1,17,-1
 416 23 l 1,18,-1
 406 0 l 1,19,-1
 88 0 l 1,20,-1
 98 23 l 1,21,-1
 205 42 l 1,22,-1
 490 730 l 1,0,-1
EndSplineSet
EndChar
StartChar: V
Encoding: 86 86 126
Width: 734
Flags: W
LayerCount: 2
Back
Fore
SplineSet
180 -10 m 1,0,-1
 269 678 l 2,1,2
 270 683 270 683 270 687 c 128,-1,3
 270 691 270 691 270 695 c 0,4,5
 269 721 269 721 250.5 730 c 128,-1,6
 232 739 232 739 185 742 c 1,7,-1
 199 770 l 1,8,-1
 507 770 l 1,9,-1
 493 742 l 1,10,11
 464 742 464 742 443.5 738.5 c 128,-1,12
 423 735 423 735 409 726.5 c 128,-1,13
 395 718 395 718 387 703 c 128,-1,14
 379 688 379 688 376 665 c 2,15,-1
 303 133 l 1,16,-1
 307 133 l 1,17,-1
 697 633 l 2,18,19
 719 661 719 661 725 674 c 128,-1,20
 731 687 731 687 731 701 c 0,21,22
 730 717 730 717 710.5 726.5 c 128,-1,23
 691 736 691 736 646 742 c 1,24,-1
 659 770 l 1,25,-1
 948 770 l 1,26,-1
 934 742 l 1,27,28
 898 737 898 737 872.5 729.5 c 128,-1,29
 847 722 847 722 826 710 c 128,-1,30
 805 698 805 698 786 679 c 128,-1,31
 767 660 767 660 745 631 c 2,32,-1
 239 -10 l 1,33,-1
 180 -10 l 1,0,-1
EndSplineSet
EndChar
StartChar: X
Encoding: 88 88 132
Width: 744
Flags: W
LayerCount: 2
Back
Fore
SplineSet
-108 0 m 1,0,-1
 -98 23 l 1,1,2
 -71 24 -71 24 -47.5 29.5 c 128,-1,3
 -24 35 -24 35 3 50 c 128,-1,4
 30 65 30 65 64 92.5 c 128,-1,5
 98 120 98 120 147 167 c 2,6,-1
 362 373 l 1,7,-1
 292 663 l 2,8,9
 287 684 287 684 280.5 698 c 128,-1,10
 274 712 274 712 262 721.5 c 128,-1,11
 250 731 250 731 231 737 c 128,-1,12
 212 743 212 743 182 746 c 1,13,-1
 193 770 l 1,14,-1
 487 770 l 1,15,-1
 478 747 l 1,16,17
 436 743 436 743 419 731 c 128,-1,18
 402 719 402 719 402 693 c 0,19,20
 402 677 402 677 408 655 c 2,21,-1
 457 448 l 1,22,-1
 670 651 l 2,23,24
 697 677 697 677 709.5 695 c 128,-1,25
 722 713 722 713 722 724 c 0,26,27
 722 747 722 747 669 747 c 1,28,-1
 678 770 l 1,29,-1
 916 770 l 1,30,-1
 906 747 l 1,31,32
 878 743 878 743 855.5 737 c 128,-1,33
 833 731 833 731 812 721 c 128,-1,34
 791 711 791 711 770.5 695 c 128,-1,35
 750 679 750 679 726 656 c 2,36,-1
 467 407 l 1,37,-1
 538 116 l 2,38,39
 544 92 544 92 551.5 76 c 128,-1,40
 559 60 559 60 570.5 49.5 c 128,-1,41
 582 39 582 39 598.5 33 c 128,-1,42
 615 27 615 27 639 23 c 1,43,-1
 629 0 l 1,44,-1
 330 0 l 1,45,-1
 339 23 l 1,46,47
 388 30 388 30 408 42 c 128,-1,48
 428 54 428 54 428 80 c 0,49,50
 428 88 428 88 426.5 96 c 128,-1,51
 425 104 425 104 423 115 c 2,52,-1
 374 330 l 1,53,-1
 184 146 l 2,54,55
 134 98 134 98 134 70 c 0,56,57
 134 35 134 35 212 23 c 1,58,-1
 201 0 l 1,59,-1
 -108 0 l 1,0,-1
EndSplineSet
EndChar
StartChar: Y
Encoding: 89 89 133
Width: 716
Flags: W
LayerCount: 2
Back
Fore
SplineSet
88 0 m 1,0,-1
 98 23 l 1,1,-1
 195 42 l 1,2,-1
 319 340 l 1,3,-1
 270 664 l 2,4,5
 266 689 266 689 261.5 705 c 128,-1,6
 257 721 257 721 247.5 730.5 c 128,-1,7
 238 740 238 740 222 743.5 c 128,-1,8
 206 747 206 747 180 747 c 1,9,-1
 190 770 l 1,10,-1
 472 770 l 1,11,-1
 462 747 l 1,12,13
 420 745 420 745 402 731.5 c 128,-1,14
 384 718 384 718 384 677 c 0,15,16
 384 661 384 661 387 640 c 2,17,-1
 417 394 l 1,18,-1
 686 664 l 2,19,20
 719 697 719 697 719 716 c 0,21,22
 719 747 719 747 636 747 c 1,23,-1
 645 770 l 1,24,-1
 921 770 l 1,25,-1
 908 747 l 1,26,27
 877 745 877 745 854 740 c 128,-1,28
 831 735 831 735 809 723 c 128,-1,29
 787 711 787 711 763.5 691 c 128,-1,30
 740 671 740 671 708 638 c 2,31,-1
 439 363 l 1,32,-1
 304 42 l 1,33,-1
 402 23 l 1,34,-1
 392 0 l 1,35,-1
 88 0 l 1,0,-1
EndSplineSet
EndChar
StartChar: Z
Encoding: 90 90 139
Width: 697
Flags: W
LayerCount: 2
Back
Fore
SplineSet
-29 0 m 1,0,-1
 -7 51 l 1,1,-1
 618 730 l 1,2,-1
 349 730 l 1,3,4
 300 689 300 689 255.5 643 c 128,-1,5
 211 597 211 597 177 553 c 1,6,-1
 150 553 l 1,7,-1
 270 770 l 1,8,-1
 766 770 l 1,9,-1
 744 718 l 1,10,-1
 122 42 l 1,11,-1
 434 42 l 1,12,13
 541 143 541 143 612 244 c 1,14,-1
 646 244 l 1,15,-1
 523 0 l 1,16,-1
 -29 0 l 1,0,-1
EndSplineSet
EndChar
StartChar: bracketleft
Encoding: 91 91 172
Width: 364
Flags: W
LayerCount: 2
Back
Fore
SplineSet
-34 -187 m 1,0,-1
 292 820 l 1,1,-1
 491 820 l 1,2,-1
 481 788 l 1,3,-1
 363 788 l 1,4,-1
 57 -156 l 1,5,-1
 174 -156 l 1,6,-1
 164 -187 l 1,7,-1
 -34 -187 l 1,0,-1
EndSplineSet
EndChar
StartChar: backslash
Encoding: 92 92 167
Width: 627
Flags: W
LayerCount: 2
Back
Fore
SplineSet
339 -169 m 1,0,-1
 241 819 l 1,1,-1
 311 819 l 1,2,-1
 408 -169 l 1,3,-1
 339 -169 l 1,0,-1
EndSplineSet
EndChar
StartChar: bracketright
Encoding: 93 93 173
Width: 363
Flags: W
LayerCount: 2
Back
Fore
SplineSet
-112 -187 m 1,0,-1
 -102 -156 l 1,1,-1
 16 -156 l 1,2,-1
 322 788 l 1,3,-1
 204 788 l 1,4,-1
 214 820 l 1,5,-1
 413 820 l 1,6,-1
 86 -187 l 1,7,-1
 -112 -187 l 1,0,-1
EndSplineSet
EndChar
StartChar: asciicircum
Encoding: 94 94 161
Width: 498
Flags: W
LayerCount: 2
Back
Fore
SplineSet
68 332 m 1,0,-1
 409 711 l 1,1,-1
 445 711 l 1,2,-1
 472 332 l 1,3,-1
 436 332 l 1,4,-1
 408 649 l 1,5,-1
 404 649 l 1,6,-1
 116 332 l 1,7,-1
 68 332 l 1,0,-1
EndSplineSet
EndChar
StartChar: underscore
Encoding: 95 95 484
Width: 718
Flags: W
LayerCount: 2
Back
Fore
SplineSet
-79 -74 m 1,0,-1
 -62 -30 l 1,1,-1
 488 -30 l 1,2,-1
 471 -74 l 1,3,-1
 -79 -74 l 1,0,-1
EndSplineSet
Substitution2: "'tnum' Tabular Numbers in Latin lookup 3 subtable" underscore.tnum
EndChar
StartChar: grave
Encoding: 96 96 288
Width: 119
Flags: W
LayerCount: 2
Back
Fore
SplineSet
68 636 m 1,0,-1
 23 755 l 2,1,2
 15 775 15 775 12.5 786.5 c 128,-1,3
 10 798 10 798 10 811 c 0,4,5
 10 831 10 831 26 844 c 128,-1,6
 42 857 42 857 62 857 c 0,7,8
 109 857 109 857 109 815 c 0,9,10
 109 805 109 805 108.5 800.5 c 128,-1,11
 108 796 108 796 108 792 c 2,12,-1
 96 642 l 1,13,-1
 68 636 l 1,0,-1
EndSplineSet
EndChar
StartChar: b
Encoding: 98 98 166
Width: 575
Flags: W
LayerCount: 2
Back
Fore
SplineSet
201 820 m 1,0,-1
 393 820 l 1,1,-1
 252 462 l 1,2,-1
 257 462 l 1,3,4
 291 500 291 500 330.5 520 c 128,-1,5
 370 540 370 540 408 540 c 0,6,7
 465 540 465 540 498.5 500.5 c 128,-1,8
 532 461 532 461 532 386 c 0,9,10
 532 314 532 314 501.5 243 c 128,-1,11
 471 172 471 172 421 115.5 c 128,-1,12
 371 59 371 59 307 24.5 c 128,-1,13
 243 -10 243 -10 177 -10 c 0,14,15
 107 -10 107 -10 70.5 27.5 c 128,-1,16
 34 65 34 65 34 131 c 0,17,18
 34 183 34 183 61 249 c 2,19,-1
 283 793 l 1,20,-1
 205 805 l 1,21,-1
 201 820 l 1,0,-1
189 310 m 0,22,23
 178 289 178 289 165.5 259 c 128,-1,24
 153 229 153 229 142 197.5 c 128,-1,25
 131 166 131 166 123.5 135.5 c 128,-1,26
 116 105 116 105 116 82 c 0,27,28
 116 56 116 56 131 40.5 c 128,-1,29
 146 25 146 25 169 25 c 0,30,31
 194 25 194 25 223.5 44 c 128,-1,32
 253 63 253 63 282.5 94 c 128,-1,33
 312 125 312 125 339.5 165.5 c 128,-1,34
 367 206 367 206 388.5 249.5 c 128,-1,35
 410 293 410 293 422.5 336 c 128,-1,36
 435 379 435 379 435 416 c 0,37,38
 435 456 435 456 421 480.5 c 128,-1,39
 407 505 407 505 383 505 c 0,40,41
 362 505 362 505 336.5 490 c 128,-1,42
 311 475 311 475 285 448.5 c 128,-1,43
 259 422 259 422 233.5 386.5 c 128,-1,44
 208 351 208 351 189 310 c 0,22,23
EndSplineSet
EndChar
StartChar: d
Encoding: 100 100 201
Width: 603
Flags: W
LayerCount: 2
Back
Fore
SplineSet
481 820 m 1,0,-1
 672 820 l 1,1,-1
 404 109 l 2,2,3
 397 91 397 91 395 82.5 c 128,-1,4
 393 74 393 74 393 68 c 0,5,6
 393 57 393 57 398 53 c 128,-1,7
 403 49 403 49 411 49 c 0,8,9
 426 49 426 49 450 70 c 128,-1,10
 474 91 474 91 516 138 c 1,11,-1
 536 124 l 1,12,13
 437 -10 437 -10 353 -10 c 0,14,15
 320 -10 320 -10 306 8 c 128,-1,16
 292 26 292 26 292 62 c 0,17,18
 292 80 292 80 299.5 100.5 c 128,-1,19
 307 121 307 121 321 149 c 1,20,-1
 319 152 l 1,21,22
 289 108 289 108 263 77 c 128,-1,23
 237 46 237 46 212.5 26.5 c 128,-1,24
 188 7 188 7 163.5 -1.5 c 128,-1,25
 139 -10 139 -10 112 -10 c 0,26,27
 3 -10 3 -10 3 120 c 0,28,29
 3 190 3 190 35.5 264 c 128,-1,30
 68 338 68 338 120 399.5 c 128,-1,31
 172 461 172 461 235.5 500.5 c 128,-1,32
 299 540 299 540 362 540 c 0,33,34
 391 540 391 540 409.5 529.5 c 128,-1,35
 428 519 428 519 447 493 c 1,36,-1
 563 793 l 1,37,-1
 486 805 l 1,38,-1
 481 820 l 1,0,-1
130 25 m 0,39,40
 155 25 155 25 190 53 c 128,-1,41
 225 81 225 81 262 128.5 c 128,-1,42
 299 176 299 176 335.5 239 c 128,-1,43
 372 302 372 302 401 372 c 0,44,45
 415 407 415 407 420 425 c 128,-1,46
 425 443 425 443 426 458 c 0,47,48
 422 481 422 481 410.5 494.5 c 128,-1,49
 399 508 399 508 379 508 c 0,50,51
 354 508 354 508 323 486.5 c 128,-1,52
 292 465 292 465 260 429.5 c 128,-1,53
 228 394 228 394 198 349 c 128,-1,54
 168 304 168 304 144.5 256.5 c 128,-1,55
 121 209 121 209 107 163 c 128,-1,56
 93 117 93 117 93 81 c 0,57,58
 93 52 93 52 103 38.5 c 128,-1,59
 113 25 113 25 130 25 c 0,39,40
EndSplineSet
EndChar
StartChar: f
Encoding: 102 102 249
Width: 324
Flags: W
LayerCount: 2
Back
Fore
SplineSet
517 830 m 0,0,1
 544 830 544 830 568.5 822 c 128,-1,2
 593 814 593 814 611 800 c 128,-1,3
 629 786 629 786 640 767 c 128,-1,4
 651 748 651 748 651 726 c 256,5,6
 651 704 651 704 638.5 691 c 128,-1,7
 626 678 626 678 603 678 c 0,8,9
 583 678 583 678 569.5 690 c 128,-1,10
 556 702 556 702 556 722 c 0,11,12
 556 736 556 736 559.5 746.5 c 128,-1,13
 563 757 563 757 563 768 c 0,14,15
 563 785 563 785 549 794 c 128,-1,16
 535 803 535 803 512 803 c 0,17,18
 462 803 462 803 418 752.5 c 128,-1,19
 374 702 374 702 329 590 c 2,20,-1
 305 530 l 1,21,-1
 403 530 l 1,22,-1
 390 498 l 1,23,-1
 293 498 l 1,24,-1
 166 203 l 2,25,26
 115 83 115 83 65.5 -3.5 c 128,-1,27
 16 -90 16 -90 -32.5 -146 c 128,-1,28
 -81 -202 -81 -202 -131 -229 c 128,-1,29
 -181 -256 -181 -256 -233 -256 c 0,30,31
 -284 -256 -284 -256 -313 -233 c 128,-1,32
 -342 -210 -342 -210 -342 -173 c 0,33,34
 -342 -153 -342 -153 -329.5 -142.5 c 128,-1,35
 -317 -132 -317 -132 -295 -132 c 0,36,37
 -270 -132 -270 -132 -259.5 -146 c 128,-1,38
 -249 -160 -249 -160 -243 -176.5 c 128,-1,39
 -237 -193 -237 -193 -230 -207 c 128,-1,40
 -223 -221 -223 -221 -203 -221 c 256,41,42
 -183 -221 -183 -221 -158 -202.5 c 128,-1,43
 -133 -184 -133 -184 -103 -141 c 128,-1,44
 -73 -98 -73 -98 -37.5 -28.5 c 128,-1,45
 -2 41 -2 41 39 143 c 2,46,-1
 183 498 l 1,47,-1
 95 498 l 1,48,-1
 107 530 l 1,49,-1
 196 530 l 1,50,-1
 227 600 l 2,51,52
 255 663 255 663 288.5 706.5 c 128,-1,53
 322 750 322 750 359.5 777.5 c 128,-1,54
 397 805 397 805 437 817.5 c 128,-1,55
 477 830 477 830 517 830 c 0,0,1
EndSplineSet
EndChar
StartChar: g
Encoding: 103 103 282
Width: 527
Flags: W
LayerCount: 2
Back
Fore
SplineSet
232 218 m 0,0,1
 259 218 259 218 285 236.5 c 128,-1,2
 311 255 311 255 331.5 285.5 c 128,-1,3
 352 316 352 316 364 355.5 c 128,-1,4
 376 395 376 395 376 436 c 0,5,6
 376 471 376 471 363.5 487 c 128,-1,7
 351 503 351 503 322 503 c 0,8,9
 297 503 297 503 270.5 484.5 c 128,-1,10
 244 466 244 466 222 436.5 c 128,-1,11
 200 407 200 407 186 371 c 128,-1,12
 172 335 172 335 172 300 c 0,13,14
 172 261 172 261 187.5 239.5 c 128,-1,15
 203 218 203 218 232 218 c 0,0,1
528 540 m 0,16,17
 554 540 554 540 569 525 c 128,-1,18
 584 510 584 510 584 490 c 0,19,20
 584 473 584 473 571.5 461.5 c 128,-1,21
 559 450 559 450 542 450 c 0,22,23
 531 450 531 450 524 454.5 c 128,-1,24
 517 459 517 459 510.5 464 c 128,-1,25
 504 469 504 469 497.5 473.5 c 128,-1,26
 491 478 491 478 482 478 c 0,27,28
 471 478 471 478 461 471.5 c 128,-1,29
 451 465 451 465 446 454 c 1,30,31
 457 431 457 431 461 413.5 c 128,-1,32
 465 396 465 396 465 376 c 0,33,34
 465 336 465 336 448.5 301 c 128,-1,35
 432 266 432 266 403.5 240 c 128,-1,36
 375 214 375 214 337 199 c 128,-1,37
 299 184 299 184 256 184 c 0,38,39
 240 184 240 184 218.5 185.5 c 128,-1,40
 197 187 197 187 178 187 c 0,41,42
 87 187 87 187 87 142 c 0,43,44
 87 107 87 107 137 91 c 2,45,-1
 293 38 l 2,46,47
 341 21 341 21 369.5 -13.5 c 128,-1,48
 398 -48 398 -48 398 -92 c 0,49,50
 398 -128 398 -128 378 -158 c 128,-1,51
 358 -188 358 -188 322.5 -209.5 c 128,-1,52
 287 -231 287 -231 237.5 -243.5 c 128,-1,53
 188 -256 188 -256 129 -256 c 0,54,55
 75 -256 75 -256 30 -245 c 128,-1,56
 -15 -234 -15 -234 -47.5 -214.5 c 128,-1,57
 -80 -195 -80 -195 -97.5 -167 c 128,-1,58
 -115 -139 -115 -139 -115 -105 c 0,59,60
 -115 -76 -115 -76 -102.5 -51 c 128,-1,61
 -90 -26 -90 -26 -67.5 -7.5 c 128,-1,62
 -45 11 -45 11 -14 21.5 c 128,-1,63
 17 32 17 32 53 32 c 1,64,65
 32 48 32 48 20.5 70 c 128,-1,66
 9 92 9 92 9 116 c 0,67,68
 9 163 9 163 48.5 189.5 c 128,-1,69
 88 216 88 216 158 216 c 1,70,-1
 159 220 l 1,71,72
 85 272 85 272 85 352 c 0,73,74
 85 389 85 389 102 423.5 c 128,-1,75
 119 458 119 458 148 483.5 c 128,-1,76
 177 509 177 509 215.5 524.5 c 128,-1,77
 254 540 254 540 297 540 c 0,78,79
 378 540 378 540 427 479 c 1,80,81
 479 540 479 540 528 540 c 0,16,17
143 -226 m 0,82,83
 182 -226 182 -226 214 -218.5 c 128,-1,84
 246 -211 246 -211 269 -197.5 c 128,-1,85
 292 -184 292 -184 305 -165.5 c 128,-1,86
 318 -147 318 -147 318 -125 c 0,87,88
 318 -100 318 -100 297 -77 c 128,-1,89
 276 -54 276 -54 244 -43 c 2,90,-1
 116 0 l 2,91,92
 105 4 105 4 98.5 5 c 128,-1,93
 92 6 92 6 84 6 c 0,94,95
 60 6 60 6 39.5 -3 c 128,-1,96
 19 -12 19 -12 4.5 -27.5 c 128,-1,97
 -10 -43 -10 -43 -18.5 -63.5 c 128,-1,98
 -27 -84 -27 -84 -27 -107 c 0,99,100
 -27 -163 -27 -163 19 -194.5 c 128,-1,101
 65 -226 65 -226 143 -226 c 0,82,83
EndSplineSet
EndChar
StartChar: h
Encoding: 104 104 296
Width: 595
Flags: W
LayerCount: 2
Back
Fore
SplineSet
293 793 m 1,0,-1
 217 805 l 1,1,-1
 215 820 l 1,2,-1
 406 820 l 1,3,-1
 216 382 l 1,4,-1
 221 380 l 1,5,6
 284 465 284 465 336.5 502 c 128,-1,7
 389 539 389 539 445 539 c 0,8,9
 487 539 487 539 512 518.5 c 128,-1,10
 537 498 537 498 537 460 c 0,11,12
 537 440 537 440 531 415.5 c 128,-1,13
 525 391 525 391 510 360 c 2,14,-1
 393 121 l 2,15,16
 383 101 383 101 378 87 c 128,-1,17
 373 73 373 73 373 64 c 0,18,19
 373 49 373 49 388 49 c 0,20,21
 405 49 405 49 435.5 73.5 c 128,-1,22
 466 98 466 98 502 139 c 1,23,-1
 523 124 l 1,24,25
 472 58 472 58 422 24 c 128,-1,26
 372 -10 372 -10 324 -10 c 0,27,28
 292 -10 292 -10 278.5 4.5 c 128,-1,29
 265 19 265 19 265 48 c 0,30,31
 265 88 265 88 300 158 c 2,32,-1
 434 427 l 2,33,34
 448 457 448 457 448 477 c 0,35,36
 448 505 448 505 419 505 c 0,37,38
 393 505 393 505 359.5 481.5 c 128,-1,39
 326 458 326 458 289.5 416 c 128,-1,40
 253 374 253 374 216.5 317 c 128,-1,41
 180 260 180 260 149 194 c 2,42,-1
 58 0 l 1,43,-1
 -35 0 l 1,44,-1
 293 793 l 1,0,-1
EndSplineSet
EndChar
StartChar: i
Encoding: 105 105 303
Width: 340
Flags: W
LayerCount: 2
Back
Fore
SplineSet
307 780 m 0,0,1
 333 780 333 780 352 764 c 128,-1,2
 371 748 371 748 371 725 c 0,3,4
 371 711 371 711 364.5 698.5 c 128,-1,5
 358 686 358 686 347.5 676.5 c 128,-1,6
 337 667 337 667 323.5 661 c 128,-1,7
 310 655 310 655 296 655 c 0,8,9
 267 655 267 655 250.5 670.5 c 128,-1,10
 234 686 234 686 234 712 c 0,11,12
 234 740 234 740 256 760 c 128,-1,13
 278 780 278 780 307 780 c 0,0,1
227 540 m 0,14,15
 256 540 256 540 274 527.5 c 128,-1,16
 292 515 292 515 292 491 c 0,17,18
 292 463 292 463 276 425 c 2,19,-1
 133 81 l 2,20,21
 130 73 130 73 130 68 c 0,22,23
 130 49 130 49 150 49 c 0,24,25
 157 49 157 49 165 52.5 c 128,-1,26
 173 56 173 56 185 65 c 128,-1,27
 197 74 197 74 214 89.5 c 128,-1,28
 231 105 231 105 255 129 c 1,29,-1
 275 117 l 1,30,31
 228 57 228 57 177 23.5 c 128,-1,32
 126 -10 126 -10 88 -10 c 0,33,34
 59 -10 59 -10 41 3.5 c 128,-1,35
 23 17 23 17 23 46 c 0,36,37
 23 59 23 59 26.5 75 c 128,-1,38
 30 91 30 91 38 111 c 2,39,-1
 183 467 l 2,40,41
 188 478 188 478 188 486 c 0,42,43
 188 495 188 495 175 495 c 0,44,45
 157 495 157 495 133.5 478.5 c 128,-1,46
 110 462 110 462 87 433 c 1,47,-1
 64 451 l 1,48,49
 98 493 98 493 142.5 516.5 c 128,-1,50
 187 540 187 540 227 540 c 0,14,15
EndSplineSet
EndChar
StartChar: k
Encoding: 107 107 316
Width: 560
Flags: W
LayerCount: 2
Back
Fore
SplineSet
220 820 m 1,0,-1
 411 820 l 1,1,-1
 257 462 l 1,2,-1
 261 462 l 1,3,4
 292 497 292 497 338.5 518.5 c 128,-1,5
 385 540 385 540 432 540 c 0,6,7
 478 540 478 540 502 520.5 c 128,-1,8
 526 501 526 501 526 465 c 0,9,10
 526 436 526 436 505 405 c 128,-1,11
 484 374 484 374 448 345.5 c 128,-1,12
 412 317 412 317 364.5 293 c 128,-1,13
 317 269 317 269 263 254 c 1,14,-1
 331 111 l 2,15,16
 352 67 352 67 364.5 50 c 128,-1,17
 377 33 377 33 393 33 c 0,18,19
 425 33 425 33 461 80 c 1,20,-1
 481 69 l 1,21,22
 461 35 461 35 424.5 12.5 c 128,-1,23
 388 -10 388 -10 351 -10 c 0,24,25
 315 -10 315 -10 288 14 c 128,-1,26
 261 38 261 38 236 90 c 2,27,-1
 167 235 l 1,28,-1
 159 235 l 1,29,-1
 64 0 l 1,30,-1
 -36 0 l 1,31,-1
 297 793 l 1,32,-1
 222 805 l 1,33,-1
 220 820 l 1,0,-1
295 453 m 0,34,35
 258 421 258 421 230 378 c 128,-1,36
 202 335 202 335 176 268 c 1,37,38
 226 271 226 271 271 288 c 128,-1,39
 316 305 316 305 350.5 331.5 c 128,-1,40
 385 358 385 358 405.5 390.5 c 128,-1,41
 426 423 426 423 426 456 c 0,42,43
 426 496 426 496 388 496 c 0,44,45
 365 496 365 496 342.5 485 c 128,-1,46
 320 474 320 474 295 453 c 0,34,35
EndSplineSet
EndChar
StartChar: l
Encoding: 108 108 319
Width: 316
Flags: W
LayerCount: 2
Back
Fore
SplineSet
215 820 m 1,0,-1
 413 820 l 1,1,-1
 192 305 l 2,2,3
 163 239 163 239 145 197 c 128,-1,4
 127 155 127 155 117 129 c 128,-1,5
 107 103 107 103 103 89.5 c 128,-1,6
 99 76 99 76 99 67 c 0,7,8
 99 59 99 59 105.5 54 c 128,-1,9
 112 49 112 49 120 49 c 0,10,11
 126 49 126 49 134 52 c 128,-1,12
 142 55 142 55 154.5 63.5 c 128,-1,13
 167 72 167 72 184 87.5 c 128,-1,14
 201 103 201 103 225 129 c 1,15,-1
 247 117 l 1,16,17
 196 55 196 55 143.5 22.5 c 128,-1,18
 91 -10 91 -10 50 -10 c 0,19,20
 26 -10 26 -10 12.5 6.5 c 128,-1,21
 -1 23 -1 23 -1 52 c 0,22,23
 -1 61 -1 61 1 72 c 128,-1,24
 3 83 3 83 8.5 101 c 128,-1,25
 14 119 14 119 25 147 c 128,-1,26
 36 175 36 175 53.5 218 c 128,-1,27
 71 261 71 261 96 321.5 c 128,-1,28
 121 382 121 382 156 466 c 2,29,-1
 293 793 l 1,30,-1
 217 805 l 1,31,-1
 215 820 l 1,0,-1
EndSplineSet
EndChar
StartChar: m
Encoding: 109 109 328
Width: 891
Flags: W
LayerCount: 2
Back
Fore
SplineSet
525 380 m 1,0,1
 579 463 579 463 629.5 501 c 128,-1,2
 680 539 680 539 734 539 c 0,3,4
 821 539 821 539 821 451 c 0,5,6
 821 430 821 430 815.5 409 c 128,-1,7
 810 388 810 388 797 360 c 2,8,-1
 690 121 l 2,9,10
 678 95 678 95 673.5 82.5 c 128,-1,11
 669 70 669 70 669 64 c 0,12,13
 669 49 669 49 684 49 c 0,14,15
 701 49 701 49 732 73 c 128,-1,16
 763 97 763 97 799 139 c 1,17,-1
 820 124 l 1,18,19
 769 58 769 58 718 24 c 128,-1,20
 667 -10 667 -10 620 -10 c 0,21,22
 560 -10 560 -10 560 42 c 0,23,24
 560 62 560 62 569 90 c 128,-1,25
 578 118 578 118 596 158 c 2,26,-1
 721 427 l 2,27,28
 735 457 735 457 735 475 c 0,29,30
 735 489 735 489 727 497 c 128,-1,31
 719 505 719 505 705 505 c 0,32,33
 681 505 681 505 650 482 c 128,-1,34
 619 459 619 459 585.5 418.5 c 128,-1,35
 552 378 552 378 519 323.5 c 128,-1,36
 486 269 486 269 459 207 c 2,37,-1
 367 0 l 1,38,-1
 259 0 l 1,39,-1
 455 427 l 2,40,41
 468 456 468 456 468 475 c 0,42,43
 468 489 468 489 459.5 497 c 128,-1,44
 451 505 451 505 436 505 c 0,45,46
 412 505 412 505 380.5 482 c 128,-1,47
 349 459 349 459 315.5 417.5 c 128,-1,48
 282 376 282 376 247 319 c 128,-1,49
 212 262 212 262 181 194 c 2,50,-1
 91 0 l 1,51,-1
 -6 0 l 1,52,-1
 186 446 l 2,53,54
 197 471 197 471 197 482 c 0,55,56
 197 495 197 495 182 495 c 0,57,58
 164 495 164 495 135 471.5 c 128,-1,59
 106 448 106 448 77 410 c 1,60,-1
 57 426 l 1,61,62
 95 479 95 479 146.5 509.5 c 128,-1,63
 198 540 198 540 246 540 c 256,64,65
 294 540 294 540 294 500 c 0,66,67
 294 480 294 480 283.5 452.5 c 128,-1,68
 273 425 273 425 249 382 c 1,69,-1
 254 380 l 1,70,71
 313 465 313 465 362.5 502 c 128,-1,72
 412 539 412 539 466 539 c 0,73,74
 548 539 548 539 548 466 c 0,75,76
 548 427 548 427 521 382 c 1,77,-1
 525 380 l 1,0,1
EndSplineSet
EndChar
StartChar: p
Encoding: 112 112 380
Width: 566
Flags: W
LayerCount: 2
Back
Fore
SplineSet
338 630 m 1,0,-1
 302 540 l 1,1,2
 405 529 405 529 460 476.5 c 128,-1,3
 515 424 515 424 515 348 c 0,4,5
 515 280 515 280 483 218.5 c 128,-1,6
 451 157 451 157 397.5 110.5 c 128,-1,7
 344 64 344 64 275.5 37 c 128,-1,8
 207 10 207 10 135 10 c 0,9,10
 110 10 110 10 83 13 c 1,11,-1
 -14 -220 l 1,12,-1
 88 -232 l 1,13,-1
 88 -250 l 1,14,-1
 -198 -250 l 1,15,-1
 -198 -235 l 1,16,-1
 -118 -223 l 1,17,-1
 192 503 l 1,18,19
 123 491 123 491 87 466 c 1,20,-1
 79 486 l 1,21,22
 104 503 104 503 136 515.5 c 128,-1,23
 168 528 168 528 203 533 c 1,24,-1
 238 619 l 1,25,-1
 338 630 l 1,0,-1
94 40 m 1,26,27
 103 39 103 39 108.5 39 c 128,-1,28
 114 39 114 39 120 39 c 0,29,30
 175 39 175 39 227.5 66.5 c 128,-1,31
 280 94 280 94 321 140 c 128,-1,32
 362 186 362 186 386.5 245.5 c 128,-1,33
 411 305 411 305 411 369 c 0,34,35
 411 437 411 437 381.5 472.5 c 128,-1,36
 352 508 352 508 307 508 c 0,37,38
 289 508 289 508 284 497 c 2,39,-1
 94 40 l 1,26,27
EndSplineSet
EndChar
StartChar: q
Encoding: 113 113 396
Width: 571
Flags: W
LayerCount: 2
Back
Fore
SplineSet
121 25 m 0,0,1
 146 25 146 25 182.5 53 c 128,-1,2
 219 81 219 81 258.5 128.5 c 128,-1,3
 298 176 298 176 338 239 c 128,-1,4
 378 302 378 302 410 372 c 0,5,6
 426 407 426 407 430.5 425 c 128,-1,7
 435 443 435 443 436 458 c 0,8,9
 434 481 434 481 423 494.5 c 128,-1,10
 412 508 412 508 392 508 c 0,11,12
 366 508 366 508 333.5 486 c 128,-1,13
 301 464 301 464 267.5 428 c 128,-1,14
 234 392 234 392 201.5 346 c 128,-1,15
 169 300 169 300 143.5 252 c 128,-1,16
 118 204 118 204 102.5 158 c 128,-1,17
 87 112 87 112 87 76 c 0,18,19
 87 25 87 25 121 25 c 0,0,1
260 -223 m 1,20,-1
 332 -232 l 1,21,-1
 332 -250 l 1,22,-1
 44 -250 l 1,23,-1
 44 -235 l 1,24,-1
 160 -218 l 1,25,-1
 316 149 l 1,26,-1
 314 152 l 1,27,28
 282 108 282 108 254 77 c 128,-1,29
 226 46 226 46 200.5 26.5 c 128,-1,30
 175 7 175 7 150 -1.5 c 128,-1,31
 125 -10 125 -10 98 -10 c 0,32,33
 -4 -10 -4 -10 -4 109 c 0,34,35
 -4 156 -4 156 12.5 206 c 128,-1,36
 29 256 29 256 57.5 304 c 128,-1,37
 86 352 86 352 124 395 c 128,-1,38
 162 438 162 438 204.5 470 c 128,-1,39
 247 502 247 502 292 521 c 128,-1,40
 337 540 337 540 380 540 c 0,41,42
 409 540 409 540 427.5 529.5 c 128,-1,43
 446 519 446 519 460 493 c 1,44,-1
 478 530 l 1,45,-1
 579 530 l 1,46,-1
 260 -223 l 1,20,-1
EndSplineSet
EndChar
StartChar: t
Encoding: 116 116 450
Width: 339
Flags: W
LayerCount: 2
Back
Fore
SplineSet
112 530 m 1,0,-1
 198 530 l 1,1,-1
 261 677 l 1,2,-1
 368 687 l 1,3,-1
 300 530 l 1,4,-1
 388 530 l 1,5,-1
 377 498 l 1,6,-1
 287 498 l 1,7,-1
 204 305 l 2,8,9
 172 230 172 230 153 186 c 128,-1,10
 134 142 134 142 124.5 119 c 128,-1,11
 115 96 115 96 112.5 87 c 128,-1,12
 110 78 110 78 110 73 c 0,13,14
 110 49 110 49 132 49 c 0,15,16
 147 49 147 49 171 68 c 128,-1,17
 195 87 195 87 236 129 c 1,18,-1
 256 117 l 1,19,20
 208 56 208 56 157.5 23 c 128,-1,21
 107 -10 107 -10 63 -10 c 0,22,23
 33 -10 33 -10 21.5 5 c 128,-1,24
 10 20 10 20 10 53 c 0,25,26
 10 63 10 63 12.5 76.5 c 128,-1,27
 15 90 15 90 22 112 c 128,-1,28
 29 134 29 134 42.5 168 c 128,-1,29
 56 202 56 202 79 255 c 2,30,-1
 184 498 l 1,31,-1
 101 498 l 1,32,-1
 112 530 l 1,0,-1
EndSplineSet
EndChar
StartChar: v
Encoding: 118 118 514
Width: 614
Flags: W
LayerCount: 2
Back
Fore
SplineSet
101 360 m 1,0,1
 90 369 90 369 87 384 c 0,2,3
 87 398 87 398 99 408 c 128,-1,4
 111 418 111 418 129 418 c 0,5,6
 145 418 145 418 157 407 c 128,-1,7
 169 396 169 396 169 378 c 0,8,9
 169 359 169 359 156 348.5 c 128,-1,10
 143 338 143 338 121 338 c 0,11,12
 89 338 89 338 69 360 c 128,-1,13
 49 382 49 382 49 421 c 0,14,15
 49 476 49 476 95 503 c 128,-1,16
 141 530 141 530 238 530 c 2,17,-1
 394 530 l 1,18,19
 381 502 381 502 372 483 c 128,-1,20
 363 464 363 464 351.5 443.5 c 128,-1,21
 340 423 340 423 323 397.5 c 128,-1,22
 306 372 306 372 279 330 c 0,23,24
 253 290 253 290 235.5 260.5 c 128,-1,25
 218 231 218 231 207.5 207 c 128,-1,26
 197 183 197 183 193 163 c 128,-1,27
 189 143 189 143 189 122 c 0,28,29
 189 74 189 74 204.5 51.5 c 128,-1,30
 220 29 220 29 250 29 c 0,31,32
 300 29 300 29 353.5 71 c 128,-1,33
 407 113 407 113 461 198 c 0,34,35
 493 249 493 249 508 289 c 128,-1,36
 523 329 523 329 523 367 c 0,37,38
 523 396 523 396 517 426.5 c 128,-1,39
 511 457 511 457 511 480 c 0,40,41
 511 507 511 507 523.5 523.5 c 128,-1,42
 536 540 536 540 559 540 c 0,43,44
 580 540 580 540 591.5 524.5 c 128,-1,45
 603 509 603 509 603 482 c 0,46,47
 603 458 603 458 595.5 426 c 128,-1,48
 588 394 588 394 575 358 c 128,-1,49
 562 322 562 322 544 283.5 c 128,-1,50
 526 245 526 245 504 208 c 0,51,52
 440 100 440 100 363.5 45 c 128,-1,53
 287 -10 287 -10 206 -10 c 0,54,55
 149 -10 149 -10 116 20 c 128,-1,56
 83 50 83 50 83 103 c 0,57,58
 83 127 83 127 91 151 c 128,-1,59
 99 175 99 175 116.5 202.5 c 128,-1,60
 134 230 134 230 162 262.5 c 128,-1,61
 190 295 190 295 230 336 c 0,62,63
 245 352 245 352 257 365 c 128,-1,64
 269 378 269 378 279 390.5 c 128,-1,65
 289 403 289 403 298.5 417.5 c 128,-1,66
 308 432 308 432 320 451 c 1,67,-1
 172 451 l 2,68,69
 122 451 122 451 100.5 437 c 128,-1,70
 79 423 79 423 79 394 c 0,71,72
 79 369 79 369 98 356 c 1,73,-1
 101 360 l 1,0,1
EndSplineSet
EndChar
StartChar: w
Encoding: 119 119 515
Width: 905
Flags: W
LayerCount: 2
Back
Fore
SplineSet
532 -10 m 0,0,1
 446 -10 446 -10 403 55 c 1,2,3
 313 -10 313 -10 226 -10 c 0,4,5
 163 -10 163 -10 127.5 19 c 128,-1,6
 92 48 92 48 92 100 c 0,7,8
 92 123 92 123 98.5 147.5 c 128,-1,9
 105 172 105 172 121 200.5 c 128,-1,10
 137 229 137 229 162.5 262 c 128,-1,11
 188 295 188 295 227 336 c 0,12,13
 243 352 243 352 255 365.5 c 128,-1,14
 267 379 267 379 277 392 c 128,-1,15
 287 405 287 405 297 419 c 128,-1,16
 307 433 307 433 318 451 c 1,17,-1
 169 451 l 2,18,19
 119 451 119 451 97.5 437 c 128,-1,20
 76 423 76 423 76 394 c 0,21,22
 76 381 76 381 81.5 371.5 c 128,-1,23
 87 362 87 362 95 356 c 1,24,-1
 98 360 l 1,25,26
 93 365 93 365 89.5 371 c 128,-1,27
 86 377 86 377 86 384 c 0,28,29
 86 398 86 398 97.5 408 c 128,-1,30
 109 418 109 418 126 418 c 0,31,32
 142 418 142 418 154.5 407 c 128,-1,33
 167 396 167 396 167 378 c 0,34,35
 167 359 167 359 154 348.5 c 128,-1,36
 141 338 141 338 118 338 c 0,37,38
 86 338 86 338 66.5 359 c 128,-1,39
 47 380 47 380 47 417 c 0,40,41
 47 474 47 474 91 502 c 128,-1,42
 135 530 135 530 235 530 c 2,43,-1
 392 530 l 1,44,45
 378 500 378 500 367.5 480 c 128,-1,46
 357 460 357 460 345.5 439.5 c 128,-1,47
 334 419 334 419 318 394 c 128,-1,48
 302 369 302 369 277 330 c 0,49,50
 253 294 253 294 238 265 c 128,-1,51
 223 236 223 236 214 212 c 128,-1,52
 205 188 205 188 201.5 167.5 c 128,-1,53
 198 147 198 147 198 128 c 0,54,55
 198 38 198 38 269 38 c 0,56,57
 295 38 295 38 325 50.5 c 128,-1,58
 355 63 355 63 387 85 c 1,59,60
 371 121 371 121 371 173 c 0,61,62
 371 234 371 234 395.5 299.5 c 128,-1,63
 420 365 420 365 458.5 418 c 128,-1,64
 497 471 497 471 543.5 505.5 c 128,-1,65
 590 540 590 540 635 540 c 0,66,67
 663 540 663 540 679 524 c 128,-1,68
 695 508 695 508 695 479 c 256,69,70
 695 450 695 450 678.5 408 c 128,-1,71
 662 366 662 366 633.5 318.5 c 128,-1,72
 605 271 605 271 566 221 c 128,-1,73
 527 171 527 171 482 125 c 1,74,75
 495 84 495 84 519.5 62 c 128,-1,76
 544 40 544 40 579 40 c 0,77,78
 622 40 622 40 667.5 80 c 128,-1,79
 713 120 713 120 756 198 c 0,80,81
 782 247 782 247 794.5 286.5 c 128,-1,82
 807 326 807 326 807 364 c 0,83,84
 807 396 807 396 801 426.5 c 128,-1,85
 795 457 795 457 795 480 c 0,86,87
 795 508 795 508 807.5 524 c 128,-1,88
 820 540 820 540 843 540 c 0,89,90
 862 540 862 540 874 526 c 128,-1,91
 886 512 886 512 886 485 c 0,92,93
 886 462 886 462 879.5 429.5 c 128,-1,94
 873 397 873 397 862 360.5 c 128,-1,95
 851 324 851 324 834.5 284.5 c 128,-1,96
 818 245 818 245 799 208 c 0,97,98
 744 102 744 102 675.5 46 c 128,-1,99
 607 -10 607 -10 532 -10 c 0,0,1
470 221 m 0,100,101
 470 205 470 205 471 191 c 128,-1,102
 472 177 472 177 474 163 c 1,103,104
 506 198 506 198 534.5 238 c 128,-1,105
 563 278 563 278 584.5 318.5 c 128,-1,106
 606 359 606 359 618.5 398.5 c 128,-1,107
 631 438 631 438 631 473 c 0,108,109
 631 492 631 492 626.5 499.5 c 128,-1,110
 622 507 622 507 614 507 c 0,111,112
 588 507 588 507 562.5 481 c 128,-1,113
 537 455 537 455 516.5 413.5 c 128,-1,114
 496 372 496 372 483 321 c 128,-1,115
 470 270 470 270 470 221 c 0,100,101
EndSplineSet
EndChar
StartChar: x
Encoding: 120 120 520
Width: 568
Flags: W
LayerCount: 2
Back
Fore
SplineSet
224 213 m 1,0,-1
 159 123 l 2,1,2
 117 64 117 64 67.5 32 c 128,-1,3
 18 0 18 0 -22 0 c 0,4,5
 -49 0 -49 0 -69 14 c 128,-1,6
 -89 28 -89 28 -89 49 c 0,7,8
 -89 68 -89 68 -75.5 81.5 c 128,-1,9
 -62 95 -62 95 -42 95 c 0,10,11
 -28 95 -28 95 -20 88 c 128,-1,12
 -12 81 -12 81 -6 73 c 128,-1,13
 0 65 0 65 6.5 58 c 128,-1,14
 13 51 13 51 25 51 c 0,15,16
 45 51 45 51 70 71 c 128,-1,17
 95 91 95 91 123 129 c 2,18,-1
 217 257 l 1,19,-1
 187 440 l 2,20,21
 183 462 183 462 179.5 468 c 128,-1,22
 176 474 176 474 164 474 c 0,23,24
 148 474 148 474 133.5 463.5 c 128,-1,25
 119 453 119 453 97 424 c 1,26,-1
 79 434 l 1,27,28
 92 456 92 456 110.5 475.5 c 128,-1,29
 129 495 129 495 149 509.5 c 128,-1,30
 169 524 169 524 190 532 c 128,-1,31
 211 540 211 540 230 540 c 0,32,33
 282 540 282 540 290 479 c 2,34,-1
 308 347 l 1,35,-1
 363 414 l 2,36,37
 458 530 458 530 536 530 c 0,38,39
 564 530 564 530 584.5 516 c 128,-1,40
 605 502 605 502 605 481 c 0,41,42
 605 462 605 462 591.5 448.5 c 128,-1,43
 578 435 578 435 558 435 c 0,44,45
 543 435 543 435 534.5 442 c 128,-1,46
 526 449 526 449 519.5 457 c 128,-1,47
 513 465 513 465 506.5 472 c 128,-1,48
 500 479 500 479 489 479 c 0,49,50
 472 479 472 479 450 462 c 128,-1,51
 428 445 428 445 398 408 c 2,52,-1
 313 304 l 1,53,-1
 341 135 l 2,54,55
 346 104 346 104 350 84.5 c 128,-1,56
 354 65 354 65 357.5 54.5 c 128,-1,57
 361 44 361 44 365.5 40.5 c 128,-1,58
 370 37 370 37 376 37 c 256,59,60
 382 37 382 37 388.5 40 c 128,-1,61
 395 43 395 43 404 50.5 c 128,-1,62
 413 58 413 58 425.5 71.5 c 128,-1,63
 438 85 438 85 456 106 c 1,64,-1
 476 93 l 1,65,66
 446 44 446 44 407 17 c 128,-1,67
 368 -10 368 -10 329 -10 c 0,68,69
 291 -10 291 -10 270.5 16 c 128,-1,70
 250 42 250 42 241 102 c 2,71,-1
 224 213 l 1,0,-1
EndSplineSet
EndChar
StartChar: y
Encoding: 121 121 521
Width: 546
Flags: W
LayerCount: 2
Back
Fore
SplineSet
49 448 m 1,0,1
 75 491 75 491 116.5 515.5 c 128,-1,2
 158 540 158 540 201 540 c 0,3,4
 227 540 227 540 244.5 527.5 c 128,-1,5
 262 515 262 515 272.5 481 c 128,-1,6
 283 447 283 447 287.5 387.5 c 128,-1,7
 292 328 292 328 292 234 c 0,8,9
 292 193 292 193 290.5 149.5 c 128,-1,10
 289 106 289 106 286 50 c 1,11,-1
 289 47 l 1,12,13
 320 86 320 86 347 131 c 128,-1,14
 374 176 374 176 393 220.5 c 128,-1,15
 412 265 412 265 423 304.5 c 128,-1,16
 434 344 434 344 434 373 c 0,17,18
 434 383 434 383 432.5 399 c 128,-1,19
 431 415 431 415 429.5 431.5 c 128,-1,20
 428 448 428 448 427 462 c 128,-1,21
 426 476 426 476 426 482 c 0,22,23
 426 508 426 508 440 524 c 128,-1,24
 454 540 454 540 477 540 c 256,25,26
 500 540 500 540 513.5 523.5 c 128,-1,27
 527 507 527 507 527 478 c 0,28,29
 527 436 527 436 501.5 365.5 c 128,-1,30
 476 295 476 295 433 213 c 128,-1,31
 390 131 390 131 334.5 48 c 128,-1,32
 279 -35 279 -35 220 -103 c 128,-1,33
 161 -171 161 -171 102 -213.5 c 128,-1,34
 43 -256 43 -256 -7 -256 c 0,35,36
 -45 -256 -45 -256 -69.5 -240.5 c 128,-1,37
 -94 -225 -94 -225 -94 -199 c 0,38,39
 -94 -179 -94 -179 -82 -167.5 c 128,-1,40
 -70 -156 -70 -156 -47 -156 c 0,41,42
 -28 -156 -28 -156 -18 -164 c 128,-1,43
 -8 -172 -8 -172 0 -181 c 128,-1,44
 8 -190 8 -190 16.5 -198 c 128,-1,45
 25 -206 25 -206 41 -206 c 0,46,47
 60 -206 60 -206 83 -192.5 c 128,-1,48
 106 -179 106 -179 126 -154 c 0,49,50
 137 -141 137 -141 145.5 -129 c 128,-1,51
 154 -117 154 -117 160.5 -101.5 c 128,-1,52
 167 -86 167 -86 171.5 -64 c 128,-1,53
 176 -42 176 -42 178.5 -8 c 128,-1,54
 181 26 181 26 182 74.5 c 128,-1,55
 183 123 183 123 183 191 c 0,56,57
 183 274 183 274 180.5 331 c 128,-1,58
 178 388 178 388 172 423 c 128,-1,59
 166 458 166 458 157 473 c 128,-1,60
 148 488 148 488 135 488 c 0,61,62
 110 488 110 488 68 433 c 1,63,-1
 49 448 l 1,0,1
EndSplineSet
EndChar
StartChar: braceleft
Encoding: 123 123 170
Width: 359
Flags: W
LayerCount: 2
Back
Fore
SplineSet
159 -180 m 1,0,1
 139 -187 139 -187 121 -190.5 c 128,-1,2
 103 -194 103 -194 83 -194 c 0,3,4
 33 -194 33 -194 9.5 -178.5 c 128,-1,5
 -14 -163 -14 -163 -14 -128 c 0,6,7
 -14 -101 -14 -101 -0.5 -64 c 128,-1,8
 13 -27 13 -27 32.5 15.5 c 128,-1,9
 52 58 52 58 73 104 c 128,-1,10
 94 150 94 150 108 194 c 0,11,12
 122 239 122 239 122 265 c 0,13,14
 122 294 122 294 105 307 c 128,-1,15
 88 320 88 320 52 320 c 1,16,-1
 60 343 l 1,17,18
 112 343 112 343 143.5 371.5 c 128,-1,19
 175 400 175 400 195 463 c 0,20,21
 204 491 204 491 210.5 523.5 c 128,-1,22
 217 556 217 556 222.5 588 c 128,-1,23
 228 620 228 620 233 649 c 128,-1,24
 238 678 238 678 246 701 c 0,25,26
 266 763 266 763 312 795.5 c 128,-1,27
 358 828 358 828 423 828 c 0,28,29
 441 828 441 828 455 824.5 c 128,-1,30
 469 821 469 821 482 815 c 1,31,-1
 468 789 l 1,32,33
 452 792 452 792 444 793 c 128,-1,34
 436 794 436 794 428 794 c 0,35,36
 396 794 396 794 371 768.5 c 128,-1,37
 346 743 346 743 332 699 c 0,38,39
 325 678 325 678 319.5 649.5 c 128,-1,40
 314 621 314 621 308 589 c 128,-1,41
 302 557 302 557 295.5 524.5 c 128,-1,42
 289 492 289 492 280 464 c 0,43,44
 263 410 263 410 235 378 c 128,-1,45
 207 346 207 346 165 332 c 1,46,-1
 164 328 l 1,47,48
 186 318 186 318 196.5 303 c 128,-1,49
 207 288 207 288 207 264 c 256,50,51
 207 240 207 240 191.5 197.5 c 128,-1,52
 176 155 176 155 155.5 107.5 c 128,-1,53
 135 60 135 60 114 13.5 c 128,-1,54
 93 -33 93 -33 83 -65 c 0,55,56
 73 -95 73 -95 73 -117 c 0,57,58
 73 -157 73 -157 119 -157 c 0,59,60
 141 -157 141 -157 162 -151 c 1,61,-1
 159 -180 l 1,0,1
EndSplineSet
EndChar
StartChar: bar
Encoding: 124 124 168
Width: 311
Flags: W
LayerCount: 2
Back
Fore
SplineSet
-28 -170 m 1,0,-1
 292 819 l 1,1,-1
 362 819 l 1,2,-1
 41 -170 l 1,3,-1
 -28 -170 l 1,0,-1
EndSplineSet
Substitution2: "'tnum' Tabular Numbers in Latin lookup 3 subtable" bar.tnum
EndChar
StartChar: braceright
Encoding: 125 125 171
Width: 358
Flags: W
LayerCount: 2
Back
Fore
SplineSet
-93 -151 m 1,0,1
 -75 -157 -75 -157 -54 -157 c 0,2,3
 -11 -157 -11 -157 11 -125 c 128,-1,4
 33 -93 33 -93 46.5 -41.5 c 128,-1,5
 60 10 60 10 71 74 c 128,-1,6
 82 138 82 138 103 202 c 0,7,8
 120 256 120 256 146.5 284.5 c 128,-1,9
 173 313 173 313 216 328 c 1,10,-1
 217 332 l 1,11,12
 176 350 176 350 176 400 c 0,13,14
 176 428 176 428 190.5 467 c 128,-1,15
 205 506 205 506 224 548 c 128,-1,16
 243 590 243 590 262 630 c 128,-1,17
 281 670 281 670 290 699 c 0,18,19
 295 712 295 712 296.5 723.5 c 128,-1,20
 298 735 298 735 298 746 c 0,21,22
 298 769 298 769 287.5 781.5 c 128,-1,23
 277 794 277 794 254 794 c 0,24,25
 246 794 246 794 237.5 793 c 128,-1,26
 229 792 229 792 212 789 c 1,27,-1
 214 815 l 1,28,29
 231 821 231 821 248 824.5 c 128,-1,30
 265 828 265 828 283 828 c 0,31,32
 385 828 385 828 385 751 c 0,33,34
 385 728 385 728 372.5 695.5 c 128,-1,35
 360 663 360 663 342 624.5 c 128,-1,36
 324 586 324 586 305 544.5 c 128,-1,37
 286 503 286 503 273 463 c 0,38,39
 267 443 267 443 263.5 427.5 c 128,-1,40
 260 412 260 412 260 399 c 0,41,42
 260 343 260 343 330 343 c 1,43,-1
 322 320 l 1,44,45
 269 320 269 320 238.5 291 c 128,-1,46
 208 262 208 262 186 194 c 0,47,48
 175 161 175 161 167.5 125.5 c 128,-1,49
 160 90 160 90 153.5 55.5 c 128,-1,50
 147 21 147 21 141 -11 c 128,-1,51
 135 -43 135 -43 126 -70 c 0,52,53
 104 -136 104 -136 64 -165 c 128,-1,54
 24 -194 24 -194 -42 -194 c 0,55,56
 -62 -194 -62 -194 -77 -190.5 c 128,-1,57
 -92 -187 -92 -187 -108 -180 c 1,58,-1
 -93 -151 l 1,0,1
EndSplineSet
EndChar
StartChar: asciitilde
Encoding: 126 126 162
Width: 587
Flags: W
LayerCount: 2
Back
Fore
SplineSet
55 223 m 1,0,1
 61 242 61 242 73.5 266 c 128,-1,2
 86 290 86 290 105.5 310.5 c 128,-1,3
 125 331 125 331 151.5 345 c 128,-1,4
 178 359 178 359 213 359 c 0,5,6
 240 359 240 359 264 351 c 128,-1,7
 288 343 288 343 311.5 333 c 128,-1,8
 335 323 335 323 359 315 c 128,-1,9
 383 307 383 307 411 307 c 0,10,11
 445 307 445 307 463 321.5 c 128,-1,12
 481 336 481 336 495 359 c 1,13,-1
 525 359 l 1,14,15
 519 339 519 339 506.5 315.5 c 128,-1,16
 494 292 494 292 474.5 271.5 c 128,-1,17
 455 251 455 251 428 237 c 128,-1,18
 401 223 401 223 367 223 c 0,19,20
 340 223 340 223 316 231.5 c 128,-1,21
 292 240 292 240 268 249.5 c 128,-1,22
 244 259 244 259 219.5 267.5 c 128,-1,23
 195 276 195 276 168 276 c 0,24,25
 134 276 134 276 116.5 261 c 128,-1,26
 99 246 99 246 85 223 c 1,27,-1
 55 223 l 1,0,1
EndSplineSet
EndChar
StartChar: exclamdown
Encoding: 161 161 248
Width: 314
Flags: W
LayerCount: 2
Back
Fore
SplineSet
159 300 m 1,0,-1
 78 -41 l 2,1,2
 65 -96 65 -96 56 -135.5 c 128,-1,3
 47 -175 47 -175 42 -189 c 0,4,5
 34 -212 34 -212 19 -226 c 128,-1,6
 4 -240 4 -240 -21 -240 c 0,7,8
 -50 -240 -50 -240 -67.5 -222.5 c 128,-1,9
 -85 -205 -85 -205 -85 -177 c 0,10,11
 -85 -167 -85 -167 -82.5 -155.5 c 128,-1,12
 -80 -144 -80 -144 -72.5 -127 c 128,-1,13
 -65 -110 -65 -110 -51.5 -85 c 128,-1,14
 -38 -60 -38 -60 -16 -23 c 0,15,16
 4 11 4 11 21.5 45.5 c 128,-1,17
 39 80 39 80 56 118.5 c 128,-1,18
 73 157 73 157 89.5 201.5 c 128,-1,19
 106 246 106 246 124 300 c 1,20,-1
 159 300 l 1,0,-1
189 415 m 0,21,22
 163 415 163 415 144.5 431.5 c 128,-1,23
 126 448 126 448 126 473 c 0,24,25
 126 500 126 500 148.5 520 c 128,-1,26
 171 540 171 540 201 540 c 0,27,28
 227 540 227 540 243.5 524 c 128,-1,29
 260 508 260 508 260 483 c 0,30,31
 260 455 260 455 239 435 c 128,-1,32
 218 415 218 415 189 415 c 0,21,22
EndSplineSet
EndChar
StartChar: cent
Encoding: 162 162 190
Width: 521
Flags: W
LayerCount: 2
Back
Fore
SplineSet
422 539 m 1,0,1
 467 534 467 534 496 508.5 c 128,-1,2
 525 483 525 483 525 449 c 0,3,4
 525 431 525 431 513 420 c 128,-1,5
 501 409 501 409 481 409 c 0,6,7
 442 409 442 409 435 457 c 0,8,9
 428 498 428 498 408 506 c 1,10,-1
 210 31 l 1,11,12
 287 54 287 54 389 159 c 1,13,-1
 411 146 l 1,14,15
 305 21 305 21 196 -4 c 1,16,-1
 135 -150 l 1,17,-1
 90 -150 l 1,18,-1
 148 -10 l 1,19,20
 81 -10 81 -10 48 29 c 128,-1,21
 15 68 15 68 15 143 c 0,22,23
 16 225 16 225 59.5 307 c 128,-1,24
 103 389 103 389 182 451 c 0,25,26
 229 487 229 487 280 510 c 128,-1,27
 331 533 331 533 377 538 c 1,28,-1
 438 686 l 1,29,-1
 483 686 l 1,30,-1
 422 539 l 1,0,1
114 99 m 256,31,32
 114 64 114 64 125 46 c 128,-1,33
 136 28 136 28 163 25 c 1,34,-1
 362 504 l 1,35,36
 333 495 333 495 303.5 471.5 c 128,-1,37
 274 448 274 448 246.5 414.5 c 128,-1,38
 219 381 219 381 195 341 c 128,-1,39
 171 301 171 301 153 259 c 128,-1,40
 135 217 135 217 124.5 175.5 c 128,-1,41
 114 134 114 134 114 99 c 256,31,32
EndSplineSet
Substitution2: "'tnum' Tabular Numbers in Latin lookup 3 subtable" cent.tnum
EndChar
StartChar: sterling
Encoding: 163 163 448
Width: 657
Flags: W
LayerCount: 2
Back
Fore
SplineSet
141 379 m 1,0,-1
 234 379 l 1,1,-1
 313 561 l 2,2,3
 360 670 360 670 417.5 725 c 128,-1,4
 475 780 475 780 559 780 c 0,5,6
 590 780 590 780 616.5 771 c 128,-1,7
 643 762 643 762 662.5 745.5 c 128,-1,8
 682 729 682 729 693 707 c 128,-1,9
 704 685 704 685 704 658 c 0,10,11
 704 635 704 635 688.5 618.5 c 128,-1,12
 673 602 673 602 647 602 c 0,13,14
 622 602 622 602 604.5 619.5 c 128,-1,15
 587 637 587 637 587 669 c 0,16,17
 587 713 587 713 579 728.5 c 128,-1,18
 571 744 571 744 551 744 c 0,19,20
 536 744 536 744 522 737.5 c 128,-1,21
 508 731 508 731 493 713 c 128,-1,22
 478 695 478 695 461.5 662.5 c 128,-1,23
 445 630 445 630 425 578 c 2,24,-1
 349 379 l 1,25,-1
 529 379 l 1,26,-1
 513 335 l 1,27,-1
 330 335 l 1,28,29
 295 257 295 257 267.5 205.5 c 128,-1,30
 240 154 240 154 214 118 c 1,31,32
 233 112 233 112 256 106 c 128,-1,33
 279 100 279 100 301.5 95.5 c 128,-1,34
 324 91 324 91 345.5 88.5 c 128,-1,35
 367 86 367 86 385 86 c 0,36,37
 429 86 429 86 460 107 c 128,-1,38
 491 128 491 128 511 168 c 1,39,-1
 546 168 l 1,40,41
 532 83 532 83 487 36.5 c 128,-1,42
 442 -10 442 -10 376 -10 c 0,43,44
 334 -10 334 -10 285.5 9 c 128,-1,45
 237 28 237 28 174 69 c 1,46,47
 98 -10 98 -10 25 -10 c 0,48,49
 -10 -10 -10 -10 -30.5 7.5 c 128,-1,50
 -51 25 -51 25 -51 57 c 0,51,52
 -51 97 -51 97 -22.5 121.5 c 128,-1,53
 6 146 6 146 53 146 c 0,54,55
 74 146 74 146 94.5 144 c 128,-1,56
 115 142 115 142 130 138 c 1,57,58
 147 172 147 172 167 219 c 128,-1,59
 187 266 187 266 214 335 c 1,60,-1
 121 335 l 1,61,-1
 141 379 l 1,0,-1
110 94 m 1,62,63
 78 107 78 107 52 107 c 0,64,65
 28 107 28 107 13.5 96 c 128,-1,66
 -1 85 -1 85 -1 66 c 0,67,68
 -1 51 -1 51 9 42 c 128,-1,69
 19 33 19 33 36 33 c 0,70,71
 56 33 56 33 72 46.5 c 128,-1,72
 88 60 88 60 110 94 c 1,62,63
EndSplineSet
Substitution2: "'tnum' Tabular Numbers in Latin lookup 3 subtable" sterling.tnum
EndChar
StartChar: currency
Encoding: 164 164 200
Width: 710
Flags: W
LayerCount: 2
Back
Fore
SplineSet
191 127 m 1,0,-1
 143 175 l 1,1,-1
 210 241 l 1,2,3
 168 292 168 292 168 368 c 0,4,5
 168 440 168 440 210 494 c 1,6,-1
 143 559 l 1,7,-1
 191 607 l 1,8,-1
 257 540 l 1,9,10
 310 582 310 582 383 582 c 0,11,12
 452 582 452 582 510 541 c 1,13,-1
 575 607 l 1,14,-1
 623 559 l 1,15,-1
 556 493 l 1,16,17
 598 440 598 440 598 368 c 0,18,19
 598 297 598 297 557 241 c 1,20,-1
 623 175 l 1,21,-1
 575 127 l 1,22,-1
 509 194 l 1,23,24
 456 152 456 152 383 152 c 0,25,26
 311 152 311 152 257 194 c 1,27,-1
 191 127 l 1,0,-1
383 216 m 256,28,29
 413 216 413 216 439 228 c 128,-1,30
 465 240 465 240 485 260.5 c 128,-1,31
 505 281 505 281 516.5 308.5 c 128,-1,32
 528 336 528 336 528 367 c 256,33,34
 528 398 528 398 516.5 425.5 c 128,-1,35
 505 453 505 453 485 473.5 c 128,-1,36
 465 494 465 494 439 506 c 128,-1,37
 413 518 413 518 383 518 c 256,38,39
 353 518 353 518 327 506 c 128,-1,40
 301 494 301 494 281 473.5 c 128,-1,41
 261 453 261 453 249.5 426 c 128,-1,42
 238 399 238 399 238 368 c 256,43,44
 238 337 238 337 249.5 309.5 c 128,-1,45
 261 282 261 282 281 261 c 128,-1,46
 301 240 301 240 327 228 c 128,-1,47
 353 216 353 216 383 216 c 256,28,29
EndSplineSet
EndChar
StartChar: yen
Encoding: 165 165 525
Width: 798
Flags: W
LayerCount: 2
Back
Fore
SplineSet
158 254 m 1,0,-1
 321 254 l 1,1,-1
 353 331 l 1,2,-1
 194 331 l 1,3,-1
 216 375 l 1,4,-1
 351 375 l 1,5,-1
 308 664 l 2,6,7
 304 689 304 689 299.5 705 c 128,-1,8
 295 721 295 721 285.5 730.5 c 128,-1,9
 276 740 276 740 260 743.5 c 128,-1,10
 244 747 244 747 218 747 c 1,11,-1
 228 770 l 1,12,-1
 510 770 l 1,13,-1
 500 747 l 1,14,15
 458 745 458 745 440 731.5 c 128,-1,16
 422 718 422 718 422 677 c 0,17,18
 422 661 422 661 425 640 c 2,19,-1
 455 394 l 1,20,-1
 724 664 l 2,21,22
 757 697 757 697 757 716 c 0,23,24
 757 747 757 747 674 747 c 1,25,-1
 683 770 l 1,26,-1
 959 770 l 1,27,-1
 946 747 l 1,28,29
 915 745 915 745 892 740 c 128,-1,30
 869 735 869 735 847 723 c 128,-1,31
 825 711 825 711 801.5 691 c 128,-1,32
 778 671 778 671 746 638 c 2,33,-1
 488 375 l 1,34,-1
 645 375 l 1,35,-1
 623 331 l 1,36,-1
 463 331 l 1,37,-1
 431 254 l 1,38,-1
 587 254 l 1,39,-1
 565 210 l 1,40,-1
 412 210 l 1,41,-1
 342 42 l 1,42,-1
 440 23 l 1,43,-1
 430 0 l 1,44,-1
 126 0 l 1,45,-1
 136 23 l 1,46,-1
 233 42 l 1,47,-1
 303 210 l 1,48,-1
 136 210 l 1,49,-1
 158 254 l 1,0,-1
EndSplineSet
Substitution2: "'tnum' Tabular Numbers in Latin lookup 3 subtable" yen.tnum
EndChar
StartChar: brokenbar
Encoding: 166 166 176
Width: 262
Flags: W
LayerCount: 2
Back
Fore
SplineSet
153 432 m 1,0,-1
 278 819 l 1,1,-1
 345 819 l 1,2,-1
 220 432 l 1,3,-1
 153 432 l 1,0,-1
-42 -171 m 1,4,-1
 82 216 l 1,5,-1
 149 216 l 1,6,-1
 24 -171 l 1,7,-1
 -42 -171 l 1,4,-1
EndSplineSet
EndChar
StartChar: section
Encoding: 167 167 425
Width: 584
Flags: W
LayerCount: 2
Back
Fore
SplineSet
303 486 m 1,0,1
 285 505 285 505 269 525.5 c 128,-1,2
 253 546 253 546 240 568 c 128,-1,3
 227 590 227 590 219.5 613.5 c 128,-1,4
 212 637 212 637 212 664 c 0,5,6
 212 699 212 699 226.5 729.5 c 128,-1,7
 241 760 241 760 266.5 782.5 c 128,-1,8
 292 805 292 805 327 817.5 c 128,-1,9
 362 830 362 830 404 830 c 0,10,11
 438 830 438 830 470.5 821 c 128,-1,12
 503 812 503 812 528.5 797 c 128,-1,13
 554 782 554 782 570 763 c 128,-1,14
 586 744 586 744 586 724 c 256,15,16
 586 704 586 704 573 692 c 128,-1,17
 560 680 560 680 539 680 c 0,18,19
 502 680 502 680 483 731 c 0,20,21
 469 767 469 767 452.5 781 c 128,-1,22
 436 795 436 795 413 795 c 0,23,24
 369 795 369 795 343.5 769.5 c 128,-1,25
 318 744 318 744 318 701 c 0,26,27
 318 666 318 666 332.5 635 c 128,-1,28
 347 604 347 604 368 575.5 c 128,-1,29
 389 547 389 547 414.5 519 c 128,-1,30
 440 491 440 491 461 462.5 c 128,-1,31
 482 434 482 434 496.5 404 c 128,-1,32
 511 374 511 374 511 340 c 0,33,34
 511 307 511 307 496.5 278.5 c 128,-1,35
 482 250 482 250 456.5 228.5 c 128,-1,36
 431 207 431 207 397 195 c 128,-1,37
 363 183 363 183 323 183 c 0,38,39
 318 183 318 183 313 183 c 128,-1,40
 308 183 308 183 303 184 c 1,41,42
 322 162 322 162 340.5 140 c 128,-1,43
 359 118 359 118 373.5 95 c 128,-1,44
 388 72 388 72 397 48 c 128,-1,45
 406 24 406 24 406 -3 c 0,46,47
 406 -36 406 -36 391.5 -64.5 c 128,-1,48
 377 -93 377 -93 352 -114.5 c 128,-1,49
 327 -136 327 -136 293 -148 c 128,-1,50
 259 -160 259 -160 219 -160 c 0,51,52
 181 -160 181 -160 143.5 -149 c 128,-1,53
 106 -138 106 -138 76 -120.5 c 128,-1,54
 46 -103 46 -103 27 -81 c 128,-1,55
 8 -59 8 -59 8 -36 c 0,56,57
 8 -16 8 -16 21 -3.5 c 128,-1,58
 34 9 34 9 55 9 c 0,59,60
 92 9 92 9 112 -41 c 0,61,62
 129 -86 129 -86 152.5 -105.5 c 128,-1,63
 176 -125 176 -125 209 -125 c 0,64,65
 250 -125 250 -125 276 -99 c 128,-1,66
 302 -73 302 -73 302 -32 c 0,67,68
 302 -1 302 -1 287.5 26.5 c 128,-1,69
 273 54 273 54 251.5 81 c 128,-1,70
 230 108 230 108 204.5 134.5 c 128,-1,71
 179 161 179 161 157.5 190 c 128,-1,72
 136 219 136 219 121.5 251 c 128,-1,73
 107 283 107 283 107 321 c 0,74,75
 107 356 107 356 121.5 386.5 c 128,-1,76
 136 417 136 417 162 439 c 128,-1,77
 188 461 188 461 224 473.5 c 128,-1,78
 260 486 260 486 303 486 c 1,0,1
408 312 m 0,79,80
 408 349 408 349 387.5 382 c 128,-1,81
 367 415 367 415 338 447 c 1,82,83
 327 451 327 451 309 451 c 0,84,85
 266 451 266 451 240 426 c 128,-1,86
 214 401 214 401 214 359 c 0,87,88
 214 324 214 324 227.5 293.5 c 128,-1,89
 241 263 241 263 262 234 c 1,90,91
 284 218 284 218 313 218 c 0,92,93
 355 218 355 218 381.5 244.5 c 128,-1,94
 408 271 408 271 408 312 c 0,79,80
EndSplineSet
Substitution2: "'tnum' Tabular Numbers in Latin lookup 3 subtable" section.tnum
EndChar
StartChar: dieresis
Encoding: 168 168 209
Width: 317
Flags: W
LayerCount: 2
Back
Fore
SplineSet
75 780 m 0,0,1
 98 780 98 780 115 766 c 128,-1,2
 132 752 132 752 132 731 c 0,3,4
 132 719 132 719 126.5 708 c 128,-1,5
 121 697 121 697 111.5 688 c 128,-1,6
 102 679 102 679 90 674 c 128,-1,7
 78 669 78 669 65 669 c 0,8,9
 39 669 39 669 24.5 683 c 128,-1,10
 10 697 10 697 10 720 c 0,11,12
 10 744 10 744 29.5 762 c 128,-1,13
 49 780 49 780 75 780 c 0,0,1
250 780 m 0,14,15
 273 780 273 780 290 766 c 128,-1,16
 307 752 307 752 307 731 c 0,17,18
 307 719 307 719 301.5 708 c 128,-1,19
 296 697 296 697 286.5 688 c 128,-1,20
 277 679 277 679 265 674 c 128,-1,21
 253 669 253 669 240 669 c 0,22,23
 214 669 214 669 199.5 683 c 128,-1,24
 185 697 185 697 185 720 c 0,25,26
 185 744 185 744 204.5 762 c 128,-1,27
 224 780 224 780 250 780 c 0,14,15
EndSplineSet
EndChar
StartChar: copyright
Encoding: 169 169 199
Width: 975
Flags: W
LayerCount: 2
Back
Fore
SplineSet
127 385 m 256,0,1
 127 466 127 466 158 538 c 128,-1,2
 189 610 189 610 243 664 c 128,-1,3
 297 718 297 718 369.5 749 c 128,-1,4
 442 780 442 780 524 780 c 256,5,6
 606 780 606 780 678.5 749 c 128,-1,7
 751 718 751 718 805 664 c 128,-1,8
 859 610 859 610 890 538 c 128,-1,9
 921 466 921 466 921 385 c 256,10,11
 921 304 921 304 890 232 c 128,-1,12
 859 160 859 160 805 106 c 128,-1,13
 751 52 751 52 678.5 21 c 128,-1,14
 606 -10 606 -10 524 -10 c 256,15,16
 442 -10 442 -10 369.5 21 c 128,-1,17
 297 52 297 52 243 106 c 128,-1,18
 189 160 189 160 158 232 c 128,-1,19
 127 304 127 304 127 385 c 256,0,1
174 385 m 256,20,21
 174 313 174 313 201.5 250 c 128,-1,22
 229 187 229 187 276.5 140 c 128,-1,23
 324 93 324 93 388 65.5 c 128,-1,24
 452 38 452 38 524 38 c 256,25,26
 596 38 596 38 660 65.5 c 128,-1,27
 724 93 724 93 771 140 c 128,-1,28
 818 187 818 187 845.5 250 c 128,-1,29
 873 313 873 313 873 385 c 256,30,31
 873 457 873 457 845.5 520 c 128,-1,32
 818 583 818 583 771 630 c 128,-1,33
 724 677 724 677 660 704.5 c 128,-1,34
 596 732 596 732 524 732 c 256,35,36
 452 732 452 732 388 704.5 c 128,-1,37
 324 677 324 677 276.5 630 c 128,-1,38
 229 583 229 583 201.5 520 c 128,-1,39
 174 457 174 457 174 385 c 256,20,21
279 386 m 256,40,41
 279 442 279 442 297 489 c 128,-1,42
 315 536 315 536 347.5 570 c 128,-1,43
 380 604 380 604 425 623 c 128,-1,44
 470 642 470 642 524 642 c 0,45,46
 560 642 560 642 594.5 631 c 128,-1,47
 629 620 629 620 658 598 c 1,48,-1
 662 598 l 1,49,-1
 689 640 l 1,50,-1
 704 640 l 1,51,-1
 704 481 l 1,52,-1
 680 481 l 1,53,54
 675 497 675 497 669.5 509.5 c 128,-1,55
 664 522 664 522 655 538 c 0,56,57
 635 573 635 573 606 588.5 c 128,-1,58
 577 604 577 604 535 604 c 0,59,60
 462 604 462 604 423 548.5 c 128,-1,61
 384 493 384 493 384 390 c 256,62,63
 384 287 384 287 424 230.5 c 128,-1,64
 464 174 464 174 536 174 c 0,65,66
 610 174 610 174 649 233 c 0,67,68
 671 264 671 264 682 316 c 1,69,-1
 704 316 l 1,70,-1
 704 137 l 1,71,-1
 689 137 l 1,72,-1
 660 188 l 1,73,74
 628 161 628 161 595 148.5 c 128,-1,75
 562 136 562 136 522 136 c 0,76,77
 468 136 468 136 423.5 154 c 128,-1,78
 379 172 379 172 346.5 205 c 128,-1,79
 314 238 314 238 296.5 284 c 128,-1,80
 279 330 279 330 279 386 c 256,40,41
EndSplineSet
EndChar
StartChar: ordfeminine
Encoding: 170 170 375
Width: 475
Flags: W
LayerCount: 2
Back
Fore
SplineSet
407 780 m 0,0,1
 425 780 425 780 437.5 773.5 c 128,-1,2
 450 767 450 767 461 750 c 1,3,-1
 472 774 l 1,4,-1
 543 774 l 1,5,-1
 431 500 l 2,6,7
 427 488 427 488 426 482.5 c 128,-1,8
 425 477 425 477 425 473 c 0,9,10
 425 461 425 461 435 461 c 256,11,12
 445 461 445 461 462 474.5 c 128,-1,13
 479 488 479 488 507 519 c 1,14,-1
 525 505 l 1,15,16
 488 463 488 463 455 442.5 c 128,-1,17
 422 422 422 422 399 422 c 0,18,19
 353 422 353 422 353 460 c 0,20,21
 353 474 353 474 357.5 489.5 c 128,-1,22
 362 505 362 505 375 526 c 1,23,-1
 372 528 l 1,24,25
 334 472 334 472 302 447 c 128,-1,26
 270 422 270 422 238 422 c 0,27,28
 200 422 200 422 178 444.5 c 128,-1,29
 156 467 156 467 156 508 c 0,30,31
 156 552 156 552 179.5 600 c 128,-1,32
 203 648 203 648 240 688 c 128,-1,33
 277 728 277 728 321 754 c 128,-1,34
 365 780 365 780 407 780 c 0,0,1
254 460 m 0,35,36
 270 460 270 460 291.5 476 c 128,-1,37
 313 492 313 492 336 519.5 c 128,-1,38
 359 547 359 547 382 583.5 c 128,-1,39
 405 620 405 620 424 661 c 0,40,41
 434 684 434 684 436 696 c 128,-1,42
 438 708 438 708 438 717 c 0,43,44
 438 732 438 732 429 741 c 128,-1,45
 420 750 420 750 408 750 c 0,46,47
 393 750 393 750 373.5 737.5 c 128,-1,48
 354 725 354 725 334.5 704 c 128,-1,49
 315 683 315 683 296 656.5 c 128,-1,50
 277 630 277 630 262.5 602 c 128,-1,51
 248 574 248 574 239 546.5 c 128,-1,52
 230 519 230 519 230 498 c 0,53,54
 230 478 230 478 235 469 c 128,-1,55
 240 460 240 460 254 460 c 0,35,36
EndSplineSet
EndChar
StartChar: guillemotleft
Encoding: 171 171 292
Width: 478
Flags: W
LayerCount: 2
Back
Fore
SplineSet
105 53 m 1,0,-1
 31 239 l 1,1,-1
 36 251 l 1,2,-1
 258 436 l 1,3,-1
 274 421 l 1,4,-1
 125 234 l 1,5,-1
 125 64 l 1,6,-1
 105 53 l 1,0,-1
281 53 m 1,7,-1
 207 239 l 1,8,-1
 212 251 l 1,9,-1
 434 436 l 1,10,-1
 450 421 l 1,11,-1
 301 234 l 1,12,-1
 301 64 l 1,13,-1
 281 53 l 1,7,-1
EndSplineSet
EndChar
StartChar: logicalnot
Encoding: 172 172 326
Width: 634
Flags: W
LayerCount: 2
Back
Fore
SplineSet
452 264 m 1,0,-1
 93 264 l 1,1,-1
 93 308 l 1,2,-1
 503 308 l 1,3,-1
 503 147 l 1,4,-1
 452 147 l 1,5,-1
 452 264 l 1,0,-1
EndSplineSet
EndChar
StartChar: uni00AD
Encoding: 173 173 487
Width: 480
Flags: W
LayerCount: 2
Back
Fore
SplineSet
44 210 m 1,0,-1
 77 294 l 1,1,-1
 396 294 l 1,2,-1
 363 210 l 1,3,-1
 44 210 l 1,0,-1
EndSplineSet
EndChar
StartChar: registered
Encoding: 174 174 414
Width: 974
Flags: W
LayerCount: 2
Back
Fore
SplineSet
126 385 m 256,0,1
 126 467 126 467 157.5 539 c 128,-1,2
 189 611 189 611 243 664.5 c 128,-1,3
 297 718 297 718 369 749 c 128,-1,4
 441 780 441 780 523 780 c 256,5,6
 605 780 605 780 677 749 c 128,-1,7
 749 718 749 718 803 664.5 c 128,-1,8
 857 611 857 611 888.5 539 c 128,-1,9
 920 467 920 467 920 385 c 256,10,11
 920 303 920 303 888.5 231 c 128,-1,12
 857 159 857 159 803 105.5 c 128,-1,13
 749 52 749 52 677 21 c 128,-1,14
 605 -10 605 -10 523 -10 c 256,15,16
 441 -10 441 -10 369 21 c 128,-1,17
 297 52 297 52 243 105.5 c 128,-1,18
 189 159 189 159 157.5 231 c 128,-1,19
 126 303 126 303 126 385 c 256,0,1
173 385 m 256,20,21
 173 313 173 313 200.5 250 c 128,-1,22
 228 187 228 187 276 139.5 c 128,-1,23
 324 92 324 92 387.5 65 c 128,-1,24
 451 38 451 38 523 38 c 256,25,26
 595 38 595 38 658.5 65 c 128,-1,27
 722 92 722 92 769.5 139.5 c 128,-1,28
 817 187 817 187 844.5 250 c 128,-1,29
 872 313 872 313 872 385 c 256,30,31
 872 457 872 457 844.5 520 c 128,-1,32
 817 583 817 583 769.5 630.5 c 128,-1,33
 722 678 722 678 658.5 705 c 128,-1,34
 595 732 595 732 523 732 c 256,35,36
 451 732 451 732 387.5 705 c 128,-1,37
 324 678 324 678 276 630.5 c 128,-1,38
 228 583 228 583 200.5 520 c 128,-1,39
 173 457 173 457 173 385 c 256,20,21
325 632 m 1,40,-1
 511 632 l 2,41,42
 551 632 551 632 584 623 c 128,-1,43
 617 614 617 614 641 596.5 c 128,-1,44
 665 579 665 579 678 553 c 128,-1,45
 691 527 691 527 691 493 c 0,46,47
 691 446 691 446 662 416.5 c 128,-1,48
 633 387 633 387 582 374 c 1,49,-1
 689 175 l 1,50,-1
 736 162 l 1,51,-1
 736 143 l 1,52,-1
 600 143 l 1,53,-1
 487 365 l 1,54,-1
 450 365 l 1,55,-1
 450 175 l 1,56,-1
 508 162 l 1,57,-1
 508 143 l 1,58,-1
 325 143 l 1,59,-1
 325 162 l 1,60,-1
 364 175 l 1,61,-1
 364 600 l 1,62,-1
 325 612 l 1,63,-1
 325 632 l 1,40,-1
450 399 m 1,64,-1
 472 399 l 2,65,66
 513 399 513 399 536 408 c 128,-1,67
 559 417 559 417 573 434 c 0,68,69
 587 448 587 448 592.5 464 c 128,-1,70
 598 480 598 480 598 499 c 0,71,72
 598 534 598 534 583 557.5 c 128,-1,73
 568 581 568 581 540 591 c 0,74,75
 529 595 529 595 516 597 c 128,-1,76
 503 599 503 599 483 599 c 2,77,-1
 450 599 l 1,78,-1
 450 399 l 1,64,-1
EndSplineSet
EndChar
StartChar: macron
Encoding: 175 175 329
Width: 335
Flags: W
LayerCount: 2
Back
Fore
SplineSet
10 709 m 1,0,-1
 38 780 l 1,1,-1
 325 780 l 1,2,-1
 296 709 l 1,3,-1
 10 709 l 1,0,-1
EndSplineSet
EndChar
StartChar: degree
Encoding: 176 176 207
Width: 355
Flags: W
LayerCount: 2
Back
Fore
SplineSet
345 587 m 0,0,1
 319 587 319 587 297 596.5 c 128,-1,2
 275 606 275 606 259 622 c 128,-1,3
 243 638 243 638 233.5 660 c 128,-1,4
 224 682 224 682 224 708 c 0,5,6
 224 733 224 733 233.5 755.5 c 128,-1,7
 243 778 243 778 259 794.5 c 128,-1,8
 275 811 275 811 297 820.5 c 128,-1,9
 319 830 319 830 345 830 c 0,10,11
 370 830 370 830 392 820.5 c 128,-1,12
 414 811 414 811 430.5 794.5 c 128,-1,13
 447 778 447 778 456.5 755.5 c 128,-1,14
 466 733 466 733 466 708 c 0,15,16
 466 682 466 682 456.5 660 c 128,-1,17
 447 638 447 638 431 622 c 128,-1,18
 415 606 415 606 392.5 596.5 c 128,-1,19
 370 587 370 587 345 587 c 0,0,1
265 708 m 0,20,21
 265 673 265 673 287.5 650.5 c 128,-1,22
 310 628 310 628 345 628 c 0,23,24
 381 628 381 628 403 650.5 c 128,-1,25
 425 673 425 673 425 708 c 0,26,27
 425 744 425 744 403 767 c 128,-1,28
 381 790 381 790 345 790 c 0,29,30
 310 790 310 790 287.5 767 c 128,-1,31
 265 744 265 744 265 708 c 0,20,21
EndSplineSet
Substitution2: "'tnum' Tabular Numbers in Latin lookup 3 subtable" degree.tnum
EndChar
StartChar: plusminus
Encoding: 177 177 394
Width: 643
Flags: W
LayerCount: 2
Back
Fore
SplineSet
295 422 m 1,0,-1
 115 422 l 1,1,-1
 115 471 l 1,2,-1
 295 471 l 1,3,-1
 295 651 l 1,4,-1
 346 651 l 1,5,-1
 346 471 l 1,6,-1
 525 471 l 1,7,-1
 525 422 l 1,8,-1
 346 422 l 1,9,-1
 346 241 l 1,10,-1
 295 241 l 1,11,-1
 295 422 l 1,0,-1
115 106 m 1,12,-1
 115 155 l 1,13,-1
 525 155 l 1,14,-1
 525 106 l 1,15,-1
 115 106 l 1,12,-1
EndSplineSet
Substitution2: "'tnum' Tabular Numbers in Latin lookup 3 subtable" plusminus.tnum
EndChar
StartChar: twosuperior
Encoding: 178 178 473
Width: 406
Flags: W
LayerCount: 2
Back
Fore
SplineSet
424 502 m 1,0,1
 438 516 438 516 446.5 529 c 128,-1,2
 455 542 455 542 463 557 c 1,3,-1
 486 549 l 1,4,-1
 432 416 l 1,5,-1
 144 416 l 1,6,7
 158 468 158 468 185.5 511 c 128,-1,8
 213 554 213 554 246 590.5 c 128,-1,9
 279 627 279 627 313.5 658.5 c 128,-1,10
 348 690 348 690 376.5 719 c 128,-1,11
 405 748 405 748 423.5 775.5 c 128,-1,12
 442 803 442 803 442 833 c 0,13,14
 442 856 442 856 430 869 c 128,-1,15
 418 882 418 882 392 882 c 0,16,17
 357 882 357 882 319.5 857 c 128,-1,18
 282 832 282 832 253 789 c 1,19,-1
 226 812 l 1,20,21
 264 863 264 863 315 894.5 c 128,-1,22
 366 926 366 926 430 926 c 0,23,24
 483 926 483 926 512 903 c 128,-1,25
 541 880 541 880 541 837 c 0,26,27
 541 803 541 803 524 775.5 c 128,-1,28
 507 748 507 748 479 722.5 c 128,-1,29
 451 697 451 697 416.5 673 c 128,-1,30
 382 649 382 649 347 623 c 128,-1,31
 312 597 312 597 280 567.5 c 128,-1,32
 248 538 248 538 226 502 c 1,33,-1
 424 502 l 1,0,1
EndSplineSet
EndChar
StartChar: threesuperior
Encoding: 179 179 463
Width: 396
Flags: W
LayerCount: 2
Back
Fore
SplineSet
255 681 m 1,0,1
 294 693 294 693 326.5 710.5 c 128,-1,2
 359 728 359 728 382 748.5 c 128,-1,3
 405 769 405 769 418 792 c 128,-1,4
 431 815 431 815 431 839 c 0,5,6
 431 859 431 859 420.5 871 c 128,-1,7
 410 883 410 883 388 883 c 0,8,9
 358 883 358 883 325 859.5 c 128,-1,10
 292 836 292 836 261 791 c 1,11,-1
 238 810 l 1,12,13
 276 868 276 868 322 897 c 128,-1,14
 368 926 368 926 416 926 c 0,15,16
 466 926 466 926 494 905.5 c 128,-1,17
 522 885 522 885 522 848 c 0,18,19
 522 810 522 810 488 770.5 c 128,-1,20
 454 731 454 731 388 703 c 1,21,22
 426 696 426 696 451.5 669.5 c 128,-1,23
 477 643 477 643 477 603 c 0,24,25
 477 564 477 564 458 529 c 128,-1,26
 439 494 439 494 406.5 467.5 c 128,-1,27
 374 441 374 441 331.5 425 c 128,-1,28
 289 409 289 409 242 409 c 0,29,30
 193 409 193 409 162.5 429 c 128,-1,31
 132 449 132 449 132 478 c 0,32,33
 132 496 132 496 141.5 505.5 c 128,-1,34
 151 515 151 515 164 515 c 0,35,36
 179 515 179 515 187 504 c 128,-1,37
 195 493 195 493 203.5 480.5 c 128,-1,38
 212 468 212 468 225 457 c 128,-1,39
 238 446 238 446 264 446 c 0,40,41
 288 446 288 446 309 456.5 c 128,-1,42
 330 467 330 467 345.5 485 c 128,-1,43
 361 503 361 503 369.5 528 c 128,-1,44
 378 553 378 553 378 582 c 0,45,46
 378 659 378 659 323 659 c 0,47,48
 310 659 310 659 294 655.5 c 128,-1,49
 278 652 278 652 267 646 c 1,50,-1
 255 681 l 1,0,1
EndSplineSet
EndChar
StartChar: acute
Encoding: 180 180 148
Width: 248
Flags: W
LayerCount: 2
Back
Fore
SplineSet
10 642 m 1,0,-1
 126 813 l 2,1,2
 155 857 155 857 189 857 c 0,3,4
 210 857 210 857 224 845 c 128,-1,5
 238 833 238 833 238 815 c 0,6,7
 238 800 238 800 226.5 785 c 128,-1,8
 215 770 215 770 188 750 c 2,9,-1
 26 631 l 1,10,-1
 10 642 l 1,0,-1
EndSplineSet
EndChar
StartChar: mu
Encoding: 181 181 333
Width: 668
Flags: W
LayerCount: 2
Back
Fore
SplineSet
24 -100 m 0,0,1
 22 -169 22 -169 3.5 -205.5 c 128,-1,2
 -15 -242 -15 -242 -49 -242 c 0,3,4
 -71 -242 -71 -242 -83 -226.5 c 128,-1,5
 -95 -211 -95 -211 -95 -184 c 0,6,7
 -95 -168 -95 -168 -89 -144.5 c 128,-1,8
 -83 -121 -83 -121 -70.5 -89 c 128,-1,9
 -58 -57 -58 -57 -37.5 -15 c 128,-1,10
 -17 27 -17 27 12 82 c 0,11,12
 39 134 39 134 58.5 170 c 128,-1,13
 78 206 78 206 90.5 231.5 c 128,-1,14
 103 257 103 257 111 273 c 128,-1,15
 119 289 119 289 124 300 c 2,16,-1
 224 530 l 1,17,-1
 337 530 l 1,18,-1
 149 103 l 2,19,20
 136 72 136 72 136 55 c 0,21,22
 136 25 136 25 167 25 c 0,23,24
 191 25 191 25 221 48 c 128,-1,25
 251 71 251 71 284.5 112 c 128,-1,26
 318 153 318 153 353 210 c 128,-1,27
 388 267 388 267 420 336 c 2,28,-1
 511 530 l 1,29,-1
 610 530 l 1,30,-1
 416 84 l 2,31,32
 405 59 405 59 405 47 c 256,33,34
 405 35 405 35 419 35 c 0,35,36
 436 35 436 35 465 58 c 128,-1,37
 494 81 494 81 525 120 c 1,38,-1
 545 104 l 1,39,40
 504 52 504 52 459 21 c 128,-1,41
 414 -10 414 -10 379 -10 c 0,42,43
 353 -10 353 -10 337.5 6.5 c 128,-1,44
 322 23 322 23 322 49 c 0,45,46
 322 86 322 86 353 148 c 1,47,-1
 348 150 l 1,48,49
 288 69 288 69 238 29.5 c 128,-1,50
 188 -10 188 -10 141 -10 c 0,51,52
 71 -10 71 -10 71 74 c 0,53,54
 71 90 71 90 74 111 c 1,55,-1
 70 111 l 1,56,57
 58 84 58 84 50 59.5 c 128,-1,58
 42 35 42 35 36.5 10.5 c 128,-1,59
 31 -14 31 -14 28 -41 c 128,-1,60
 25 -68 25 -68 24 -100 c 0,0,1
EndSplineSet
EndChar
StartChar: paragraph
Encoding: 182 182 381
Width: 565
Flags: W
LayerCount: 2
Back
Fore
SplineSet
405 336 m 1,0,-1
 320 336 l 2,1,2
 241 336 241 336 195.5 380.5 c 128,-1,3
 150 425 150 425 150 503 c 0,4,5
 150 558 150 558 175.5 607 c 128,-1,6
 201 656 201 656 245 692 c 128,-1,7
 289 728 289 728 348 749 c 128,-1,8
 407 770 407 770 475 770 c 2,9,-1
 666 770 l 1,10,-1
 657 745 l 1,11,-1
 583 730 l 1,12,-1
 359 76 l 2,13,14
 339 19 339 19 320.5 -18 c 128,-1,15
 302 -55 302 -55 280.5 -77.5 c 128,-1,16
 259 -100 259 -100 233 -109 c 128,-1,17
 207 -118 207 -118 172 -118 c 0,18,19
 139 -118 139 -118 110.5 -111 c 128,-1,20
 82 -104 82 -104 61 -91 c 128,-1,21
 40 -78 40 -78 28.5 -60.5 c 128,-1,22
 17 -43 17 -43 17 -23 c 0,23,24
 17 -1 17 -1 29 11 c 128,-1,25
 41 23 41 23 61 23 c 0,26,27
 79 23 79 23 89 12 c 128,-1,28
 99 1 99 1 107 -25 c 0,29,30
 116 -58 116 -58 132 -71 c 128,-1,31
 148 -84 148 -84 178 -84 c 0,32,33
 201 -84 201 -84 219.5 -76.5 c 128,-1,34
 238 -69 238 -69 253.5 -51 c 128,-1,35
 269 -33 269 -33 283.5 -2.5 c 128,-1,36
 298 28 298 28 314 74 c 2,37,-1
 405 336 l 1,0,-1
EndSplineSet
Substitution2: "'tnum' Tabular Numbers in Latin lookup 3 subtable" paragraph.tnum
EndChar
StartChar: periodcentered
Encoding: 183 183 389
Width: 298
Flags: W
LayerCount: 2
Back
Fore
SplineSet
158 384 m 0,0,1
 188 384 188 384 210.5 365.5 c 128,-1,2
 233 347 233 347 233 319 c 0,3,4
 233 303 233 303 225.5 288.5 c 128,-1,5
 218 274 218 274 205.5 262.5 c 128,-1,6
 193 251 193 251 177 244 c 128,-1,7
 161 237 161 237 145 237 c 0,8,9
 111 237 111 237 91.5 255.5 c 128,-1,10
 72 274 72 274 72 304 c 0,11,12
 72 320 72 320 79 335 c 128,-1,13
 86 350 86 350 98 360.5 c 128,-1,14
 110 371 110 371 125.5 377.5 c 128,-1,15
 141 384 141 384 158 384 c 0,0,1
EndSplineSet
Substitution2: "'tnum' Tabular Numbers in Latin lookup 3 subtable" periodcentered.tnum
EndChar
StartChar: cedilla
Encoding: 184 184 189
Width: 230
Flags: W
LayerCount: 2
Back
Fore
SplineSet
-10 -210 m 1,0,1
 12 -226 12 -226 42 -226 c 0,2,3
 80 -226 80 -226 105.5 -206.5 c 128,-1,4
 131 -187 131 -187 131 -156 c 0,5,6
 131 -122 131 -122 89 -122 c 0,7,8
 59 -122 59 -122 41 -134 c 1,9,-1
 33 -121 l 1,10,-1
 142 17 l 1,11,-1
 182 17 l 1,12,-1
 125 -58 l 1,13,14
 167 -58 167 -58 190 -76.5 c 128,-1,15
 213 -95 213 -95 213 -128 c 0,16,17
 213 -154 213 -154 199 -177 c 128,-1,18
 185 -200 185 -200 161.5 -218 c 128,-1,19
 138 -236 138 -236 107.5 -246.5 c 128,-1,20
 77 -257 77 -257 43 -257 c 0,21,22
 -9 -257 -9 -257 -27 -233 c 1,23,-1
 -10 -210 l 1,0,1
EndSplineSet
EndChar
StartChar: onesuperior
Encoding: 185 185 372
Width: 355
Flags: W
LayerCount: 2
Back
Fore
SplineSet
140 439 m 1,0,-1
 218 455 l 1,1,-1
 362 828 l 1,2,-1
 359 831 l 1,3,-1
 270 818 l 1,4,-1
 263 842 l 1,5,6
 285 848 285 848 311.5 858 c 128,-1,7
 338 868 338 868 363 879.5 c 128,-1,8
 388 891 388 891 409.5 903.5 c 128,-1,9
 431 916 431 916 445 927 c 1,10,-1
 492 927 l 1,11,-1
 310 452 l 1,12,-1
 393 439 l 1,13,-1
 383 416 l 1,14,-1
 131 416 l 1,15,-1
 140 439 l 1,0,-1
EndSplineSet
EndChar
StartChar: ordmasculine
Encoding: 186 186 376
Width: 422
Flags: W
LayerCount: 2
Back
Fore
SplineSet
267 422 m 0,0,1
 219 422 219 422 191 450.5 c 128,-1,2
 163 479 163 479 163 529 c 0,3,4
 163 573 163 573 185 618 c 128,-1,5
 207 663 207 663 241.5 699 c 128,-1,6
 276 735 276 735 319.5 757.5 c 128,-1,7
 363 780 363 780 406 780 c 0,8,9
 454 780 454 780 482 751.5 c 128,-1,10
 510 723 510 723 510 673 c 0,11,12
 510 629 510 629 488 584 c 128,-1,13
 466 539 466 539 431.5 503 c 128,-1,14
 397 467 397 467 353.5 444.5 c 128,-1,15
 310 422 310 422 267 422 c 0,0,1
411 747 m 0,16,17
 385 747 385 747 353.5 722 c 128,-1,18
 322 697 322 697 295 659.5 c 128,-1,19
 268 622 268 622 250 579 c 128,-1,20
 232 536 232 536 232 500 c 0,21,22
 232 455 232 455 262 455 c 0,23,24
 278 455 278 455 298 467 c 128,-1,25
 318 479 318 479 338 499.5 c 128,-1,26
 358 520 358 520 376.5 546 c 128,-1,27
 395 572 395 572 409.5 600 c 128,-1,28
 424 628 424 628 433 655 c 128,-1,29
 442 682 442 682 442 705 c 0,30,31
 442 747 442 747 411 747 c 0,16,17
EndSplineSet
EndChar
StartChar: guillemotright
Encoding: 187 187 293
Width: 476
Flags: W
LayerCount: 2
Back
Fore
SplineSet
325 436 m 1,0,-1
 399 250 l 1,1,-1
 394 238 l 1,2,-1
 172 53 l 1,3,-1
 156 68 l 1,4,-1
 305 255 l 1,5,-1
 305 425 l 1,6,-1
 325 436 l 1,0,-1
149 436 m 1,7,-1
 223 250 l 1,8,-1
 218 238 l 1,9,-1
 -4 53 l 1,10,-1
 -20 68 l 1,11,-1
 129 255 l 1,12,-1
 129 425 l 1,13,-1
 149 436 l 1,7,-1
EndSplineSet
EndChar
StartChar: onequarter
Encoding: 188 188 371
Width: 878
Flags: W
LayerCount: 2
Back
Fore
SplineSet
176 0 m 1,0,-1
 725 770 l 1,1,-1
 795 770 l 1,2,-1
 244 0 l 1,3,-1
 176 0 l 1,0,-1
95 342 m 1,4,-1
 165 356 l 1,5,-1
 294 691 l 1,6,-1
 291 694 l 1,7,-1
 211 682 l 1,8,-1
 205 703 l 1,9,10
 225 709 225 709 249 718 c 128,-1,11
 273 727 273 727 295.5 737.5 c 128,-1,12
 318 748 318 748 337 759 c 128,-1,13
 356 770 356 770 368 780 c 1,14,-1
 411 780 l 1,15,-1
 248 353 l 1,16,-1
 322 342 l 1,17,-1
 313 321 l 1,18,-1
 87 321 l 1,19,-1
 95 342 l 1,4,-1
630 120 m 1,20,-1
 463 120 l 1,21,-1
 477 161 l 1,22,-1
 748 459 l 1,23,-1
 826 459 l 1,24,-1
 727 178 l 1,25,-1
 787 178 l 1,26,-1
 767 120 l 1,27,-1
 706 120 l 1,28,-1
 669 0 l 1,29,-1
 587 0 l 1,30,-1
 630 120 l 1,20,-1
651 178 m 1,31,-1
 721 377 l 1,32,-1
 717 377 l 1,33,-1
 538 178 l 1,34,-1
 651 178 l 1,31,-1
EndSplineSet
Ligature2: "'frac' Diagonal Fractions in Latin lookup 2 subtable" one slash four
Ligature2: "'frac' Diagonal Fractions in Latin lookup 2 subtable" one fraction four
EndChar
StartChar: onehalf
Encoding: 189 189 369
Width: 925
Flags: W
LayerCount: 2
Back
Fore
SplineSet
156 0 m 1,0,-1
 705 770 l 1,1,-1
 775 770 l 1,2,-1
 224 0 l 1,3,-1
 156 0 l 1,0,-1
96 342 m 1,4,-1
 166 356 l 1,5,-1
 295 691 l 1,6,-1
 292 694 l 1,7,-1
 212 682 l 1,8,-1
 206 703 l 1,9,10
 226 709 226 709 250 718 c 128,-1,11
 274 727 274 727 296.5 737.5 c 128,-1,12
 319 748 319 748 338 759 c 128,-1,13
 357 770 357 770 369 780 c 1,14,-1
 412 780 l 1,15,-1
 249 353 l 1,16,-1
 323 342 l 1,17,-1
 314 321 l 1,18,-1
 88 321 l 1,19,-1
 96 342 l 1,4,-1
750 77 m 1,20,21
 762 90 762 90 770 101.5 c 128,-1,22
 778 113 778 113 785 127 c 1,23,-1
 806 120 l 1,24,-1
 757 0 l 1,25,-1
 498 0 l 1,26,27
 510 47 510 47 534.5 85.5 c 128,-1,28
 559 124 559 124 589 157 c 128,-1,29
 619 190 619 190 650.5 218 c 128,-1,30
 682 246 682 246 707.5 272 c 128,-1,31
 733 298 733 298 749.5 323 c 128,-1,32
 766 348 766 348 766 375 c 0,33,34
 766 395 766 395 755 407 c 128,-1,35
 744 419 744 419 721 419 c 0,36,37
 690 419 690 419 656 396.5 c 128,-1,38
 622 374 622 374 596 336 c 1,39,-1
 572 356 l 1,40,41
 606 403 606 403 652 431 c 128,-1,42
 698 459 698 459 755 459 c 0,43,44
 803 459 803 459 829 438 c 128,-1,45
 855 417 855 417 855 379 c 0,46,47
 855 334 855 334 822 299 c 128,-1,48
 789 264 789 264 743 231 c 128,-1,49
 697 198 697 198 649.5 162 c 128,-1,50
 602 126 602 126 572 77 c 1,51,-1
 750 77 l 1,20,21
EndSplineSet
Ligature2: "'frac' Diagonal Fractions in Latin lookup 2 subtable" one slash two
Ligature2: "'frac' Diagonal Fractions in Latin lookup 2 subtable" one fraction two
EndChar
StartChar: threequarters
Encoding: 190 190 462
Width: 904
Flags: W
LayerCount: 2
Back
Fore
SplineSet
205 0 m 1,0,-1
 754 770 l 1,1,-1
 824 770 l 1,2,-1
 273 0 l 1,3,-1
 205 0 l 1,0,-1
658 120 m 1,4,-1
 491 120 l 1,5,-1
 505 161 l 1,6,-1
 776 459 l 1,7,-1
 854 459 l 1,8,-1
 755 178 l 1,9,-1
 815 178 l 1,10,-1
 795 120 l 1,11,-1
 734 120 l 1,12,-1
 697 0 l 1,13,-1
 615 0 l 1,14,-1
 658 120 l 1,4,-1
679 178 m 1,15,-1
 749 377 l 1,16,-1
 745 377 l 1,17,-1
 566 178 l 1,18,-1
 679 178 l 1,15,-1
215 560 m 1,19,20
 287 583 287 583 330.5 620.5 c 128,-1,21
 374 658 374 658 374 702 c 0,22,23
 374 719 374 719 365 730 c 128,-1,24
 356 741 356 741 336 741 c 0,25,26
 309 741 309 741 279 720 c 128,-1,27
 249 699 249 699 221 659 c 1,28,-1
 200 676 l 1,29,30
 234 728 234 728 275.5 754 c 128,-1,31
 317 780 317 780 361 780 c 0,32,33
 406 780 406 780 431 761.5 c 128,-1,34
 456 743 456 743 456 710 c 0,35,36
 456 676 456 676 425.5 640.5 c 128,-1,37
 395 605 395 605 336 580 c 1,38,39
 371 574 371 574 393.5 550 c 128,-1,40
 416 526 416 526 416 489 c 0,41,42
 416 454 416 454 399 422.5 c 128,-1,43
 382 391 382 391 352.5 367 c 128,-1,44
 323 343 323 343 284.5 329 c 128,-1,45
 246 315 246 315 204 315 c 0,46,47
 159 315 159 315 132 333 c 128,-1,48
 105 351 105 351 105 377 c 0,49,50
 105 393 105 393 113.5 401.5 c 128,-1,51
 122 410 122 410 134 410 c 0,52,53
 148 410 148 410 155 400.5 c 128,-1,54
 162 391 162 391 169.5 379 c 128,-1,55
 177 367 177 367 188.5 357.5 c 128,-1,56
 200 348 200 348 223 348 c 0,57,58
 245 348 245 348 264.5 357 c 128,-1,59
 284 366 284 366 297.5 382.5 c 128,-1,60
 311 399 311 399 319 421.5 c 128,-1,61
 327 444 327 444 327 470 c 0,62,63
 327 540 327 540 276 540 c 0,64,65
 265 540 265 540 251 537 c 128,-1,66
 237 534 237 534 226 529 c 1,67,-1
 215 560 l 1,19,20
EndSplineSet
Ligature2: "'frac' Diagonal Fractions in Latin lookup 2 subtable" three slash four
Ligature2: "'frac' Diagonal Fractions in Latin lookup 2 subtable" three fraction four
EndChar
StartChar: questiondown
Encoding: 191 191 398
Width: 465
Flags: W
LayerCount: 2
Back
Fore
SplineSet
257 540 m 0,0,1
 283 540 283 540 301.5 523.5 c 128,-1,2
 320 507 320 507 320 482 c 0,3,4
 320 455 320 455 297.5 435 c 128,-1,5
 275 415 275 415 245 415 c 0,6,7
 219 415 219 415 202.5 431 c 128,-1,8
 186 447 186 447 186 472 c 0,9,10
 186 500 186 500 207 520 c 128,-1,11
 228 540 228 540 257 540 c 0,0,1
110 336 m 1,12,13
 179 334 179 334 214 304.5 c 128,-1,14
 249 275 249 275 249 223 c 0,15,16
 249 186 249 186 229 155 c 128,-1,17
 209 124 209 124 179 96.5 c 128,-1,18
 149 69 149 69 114 43 c 128,-1,19
 79 17 79 17 49 -11 c 128,-1,20
 19 -39 19 -39 -1 -71 c 128,-1,21
 -21 -103 -21 -103 -21 -141 c 0,22,23
 -21 -177 -21 -177 0 -200 c 128,-1,24
 21 -223 21 -223 54 -223 c 0,25,26
 78 -223 78 -223 91.5 -209.5 c 128,-1,27
 105 -196 105 -196 116.5 -179.5 c 128,-1,28
 128 -163 128 -163 142 -149 c 128,-1,29
 156 -135 156 -135 180 -135 c 0,30,31
 200 -135 200 -135 212 -147 c 128,-1,32
 224 -159 224 -159 224 -179 c 0,33,34
 224 -213 224 -213 183.5 -234.5 c 128,-1,35
 143 -256 143 -256 78 -256 c 0,36,37
 -5 -256 -5 -256 -51.5 -218.5 c 128,-1,38
 -98 -181 -98 -181 -98 -113 c 0,39,40
 -98 -67 -98 -67 -78.5 -31 c 128,-1,41
 -59 5 -59 5 -29.5 34 c 128,-1,42
 0 63 0 63 34.5 87.5 c 128,-1,43
 69 112 69 112 98.5 136 c 128,-1,44
 128 160 128 160 147.5 185 c 128,-1,45
 167 210 167 210 167 241 c 0,46,47
 167 270 167 270 150 288 c 128,-1,48
 133 306 133 306 105 308 c 1,49,-1
 110 336 l 1,12,13
EndSplineSet
EndChar
StartChar: Acircumflex
Encoding: 194 194 6
Width: 748
Flags: W
LayerCount: 2
Back
Fore
SplineSet
640 793 m 1,0,-1
 549 92 l 2,1,2
 548 87 548 87 548 83 c 128,-1,3
 548 79 548 79 548 75 c 0,4,5
 549 49 549 49 567.5 40 c 128,-1,6
 586 31 586 31 633 28 c 1,7,-1
 619 0 l 1,8,-1
 311 0 l 1,9,-1
 325 28 l 1,10,11
 353 28 353 28 374 31.5 c 128,-1,12
 395 35 395 35 409 43.5 c 128,-1,13
 423 52 423 52 431 67 c 128,-1,14
 439 82 439 82 442 105 c 2,15,-1
 467 286 l 1,16,-1
 230 286 l 1,17,-1
 101 137 l 2,18,19
 78 110 78 110 69.5 96.5 c 128,-1,20
 61 83 61 83 61 69 c 0,21,22
 62 53 62 53 81.5 43.5 c 128,-1,23
 101 34 101 34 146 28 c 1,24,-1
 133 0 l 1,25,-1
 -145 0 l 1,26,-1
 -131 28 l 1,27,28
 -95 33 -95 33 -70 40.5 c 128,-1,29
 -45 48 -45 48 -24.5 61 c 128,-1,30
 -4 74 -4 74 15 92.5 c 128,-1,31
 34 111 34 111 58 139 c 2,32,-1
 521 677 l 1,33,-1
 532 770 l 1,34,-1
 640 793 l 1,0,-1
514 614 m 1,35,-1
 262 323 l 1,36,-1
 472 323 l 1,37,-1
 514 614 l 1,35,-1
652 970 m 0,38,39
 669 970 669 970 678.5 963.5 c 128,-1,40
 688 957 688 957 696 943 c 2,41,-1
 750 847 l 1,42,-1
 724 830 l 1,43,-1
 633 898 l 1,44,-1
 468 830 l 1,45,-1
 456 847 l 1,46,-1
 588 943 l 2,47,48
 606 956 606 956 619.5 963 c 128,-1,49
 633 970 633 970 652 970 c 0,38,39
EndSplineSet
EndChar
StartChar: Atilde
Encoding: 195 195 13
Width: 748
Flags: W
LayerCount: 2
Back
Fore
SplineSet
640 793 m 1,0,-1
 549 92 l 2,1,2
 548 87 548 87 548 83 c 128,-1,3
 548 79 548 79 548 75 c 0,4,5
 549 49 549 49 567.5 40 c 128,-1,6
 586 31 586 31 633 28 c 1,7,-1
 619 0 l 1,8,-1
 311 0 l 1,9,-1
 325 28 l 1,10,11
 353 28 353 28 374 31.5 c 128,-1,12
 395 35 395 35 409 43.5 c 128,-1,13
 423 52 423 52 431 67 c 128,-1,14
 439 82 439 82 442 105 c 2,15,-1
 467 286 l 1,16,-1
 230 286 l 1,17,-1
 101 137 l 2,18,19
 78 110 78 110 69.5 96.5 c 128,-1,20
 61 83 61 83 61 69 c 0,21,22
 62 53 62 53 81.5 43.5 c 128,-1,23
 101 34 101 34 146 28 c 1,24,-1
 133 0 l 1,25,-1
 -145 0 l 1,26,-1
 -131 28 l 1,27,28
 -95 33 -95 33 -70 40.5 c 128,-1,29
 -45 48 -45 48 -24.5 61 c 128,-1,30
 -4 74 -4 74 15 92.5 c 128,-1,31
 34 111 34 111 58 139 c 2,32,-1
 521 677 l 1,33,-1
 532 770 l 1,34,-1
 640 793 l 1,0,-1
514 614 m 1,35,-1
 262 323 l 1,36,-1
 472 323 l 1,37,-1
 514 614 l 1,35,-1
436 853 m 1,38,39
 450 904 450 904 484 935.5 c 128,-1,40
 518 967 518 967 555 967 c 0,41,42
 572 967 572 967 589.5 961.5 c 128,-1,43
 607 956 607 956 624.5 949.5 c 128,-1,44
 642 943 642 943 659 937.5 c 128,-1,45
 676 932 676 932 693 932 c 0,46,47
 735 932 735 932 755 970 c 1,48,-1
 779 970 l 1,49,50
 762 918 762 918 727.5 885 c 128,-1,51
 693 852 693 852 656 852 c 0,52,53
 638 852 638 852 621.5 858 c 128,-1,54
 605 864 605 864 588 871.5 c 128,-1,55
 571 879 571 879 554.5 885 c 128,-1,56
 538 891 538 891 520 891 c 0,57,58
 474 891 474 891 457 853 c 1,59,-1
 436 853 l 1,38,39
EndSplineSet
EndChar
StartChar: Adieresis
Encoding: 196 196 7
Width: 748
Flags: W
LayerCount: 2
Back
Fore
SplineSet
640 793 m 1,0,-1
 549 92 l 2,1,2
 548 87 548 87 548 83 c 128,-1,3
 548 79 548 79 548 75 c 0,4,5
 549 49 549 49 567.5 40 c 128,-1,6
 586 31 586 31 633 28 c 1,7,-1
 619 0 l 1,8,-1
 311 0 l 1,9,-1
 325 28 l 1,10,11
 353 28 353 28 374 31.5 c 128,-1,12
 395 35 395 35 409 43.5 c 128,-1,13
 423 52 423 52 431 67 c 128,-1,14
 439 82 439 82 442 105 c 2,15,-1
 467 286 l 1,16,-1
 230 286 l 1,17,-1
 101 137 l 2,18,19
 78 110 78 110 69.5 96.5 c 128,-1,20
 61 83 61 83 61 69 c 0,21,22
 62 53 62 53 81.5 43.5 c 128,-1,23
 101 34 101 34 146 28 c 1,24,-1
 133 0 l 1,25,-1
 -145 0 l 1,26,-1
 -131 28 l 1,27,28
 -95 33 -95 33 -70 40.5 c 128,-1,29
 -45 48 -45 48 -24.5 61 c 128,-1,30
 -4 74 -4 74 15 92.5 c 128,-1,31
 34 111 34 111 58 139 c 2,32,-1
 521 677 l 1,33,-1
 532 770 l 1,34,-1
 640 793 l 1,0,-1
514 614 m 1,35,-1
 262 323 l 1,36,-1
 472 323 l 1,37,-1
 514 614 l 1,35,-1
531 970 m 0,38,39
 554 970 554 970 571 956 c 128,-1,40
 588 942 588 942 588 921 c 0,41,42
 588 909 588 909 582.5 898 c 128,-1,43
 577 887 577 887 567.5 878 c 128,-1,44
 558 869 558 869 546 864 c 128,-1,45
 534 859 534 859 521 859 c 0,46,47
 495 859 495 859 480.5 873 c 128,-1,48
 466 887 466 887 466 910 c 0,49,50
 466 934 466 934 485.5 952 c 128,-1,51
 505 970 505 970 531 970 c 0,38,39
706 970 m 0,52,53
 729 970 729 970 746 956 c 128,-1,54
 763 942 763 942 763 921 c 0,55,56
 763 909 763 909 757.5 898 c 128,-1,57
 752 887 752 887 742.5 878 c 128,-1,58
 733 869 733 869 721 864 c 128,-1,59
 709 859 709 859 696 859 c 0,60,61
 670 859 670 859 655.5 873 c 128,-1,62
 641 887 641 887 641 910 c 0,63,64
 641 934 641 934 660.5 952 c 128,-1,65
 680 970 680 970 706 970 c 0,52,53
EndSplineSet
EndChar
StartChar: Ccedilla
Encoding: 199 199 19
Width: 742
Flags: W
LayerCount: 2
Back
Fore
SplineSet
155 -210 m 1,0,1
 177 -226 177 -226 207 -226 c 0,2,3
 245 -226 245 -226 270.5 -206.5 c 128,-1,4
 296 -187 296 -187 296 -156 c 0,5,6
 296 -122 296 -122 254 -122 c 0,7,8
 224 -122 224 -122 206 -134 c 1,9,-1
 198 -121 l 1,10,-1
 285 -10 l 1,11,12
 63 -4 63 -4 63 213 c 0,13,14
 63 284 63 284 85.5 353.5 c 128,-1,15
 108 423 108 423 147.5 486 c 128,-1,16
 187 549 187 549 241 602.5 c 128,-1,17
 295 656 295 656 358 695.5 c 128,-1,18
 421 735 421 735 491 757.5 c 128,-1,19
 561 780 561 780 632 780 c 0,20,21
 680 780 680 780 721 768.5 c 128,-1,22
 762 757 762 757 789 737 c 1,23,-1
 825 770 l 1,24,-1
 847 770 l 1,25,-1
 750 540 l 1,26,-1
 721 540 l 1,27,28
 736 595 736 595 736 634 c 0,29,30
 736 688 736 688 708.5 712 c 128,-1,31
 681 736 681 736 622 736 c 0,32,33
 566 736 566 736 510.5 715.5 c 128,-1,34
 455 695 455 695 405.5 659 c 128,-1,35
 356 623 356 623 313.5 574 c 128,-1,36
 271 525 271 525 239.5 467.5 c 128,-1,37
 208 410 208 410 190.5 346.5 c 128,-1,38
 173 283 173 283 173 219 c 0,39,40
 173 37 173 37 325 37 c 0,41,42
 373 37 373 37 419 54.5 c 128,-1,43
 465 72 465 72 506 105 c 128,-1,44
 547 138 547 138 581 185.5 c 128,-1,45
 615 233 615 233 641 293 c 1,46,-1
 670 293 l 1,47,-1
 559 0 l 1,48,-1
 532 0 l 1,49,-1
 540 77 l 1,50,-1
 536 77 l 1,51,52
 483 36 483 36 433.5 15.5 c 128,-1,53
 384 -5 384 -5 327 -9 c 1,54,-1
 290 -58 l 1,55,56
 332 -58 332 -58 355 -76.5 c 128,-1,57
 378 -95 378 -95 378 -128 c 0,58,59
 378 -154 378 -154 364 -177 c 128,-1,60
 350 -200 350 -200 326.5 -218 c 128,-1,61
 303 -236 303 -236 272.5 -246.5 c 128,-1,62
 242 -257 242 -257 208 -257 c 0,63,64
 156 -257 156 -257 138 -233 c 1,65,-1
 155 -210 l 1,0,1
EndSplineSet
EndChar
StartChar: Ecircumflex
Encoding: 202 202 30
Width: 713
Flags: W
LayerCount: 2
Back
Fore
SplineSet
-68 0 m 1,0,-1
 -58 23 l 1,1,-1
 34 42 l 1,2,-1
 318 728 l 1,3,-1
 240 747 l 1,4,-1
 250 770 l 1,5,-1
 730 770 l 1,6,-1
 738 550 l 1,7,-1
 711 550 l 1,8,9
 702 604 702 604 688.5 648 c 128,-1,10
 675 692 675 692 653 730 c 1,11,-1
 427 730 l 1,12,-1
 303 426 l 1,13,-1
 471 426 l 1,14,15
 520 483 520 483 555 540 c 1,16,-1
 584 540 l 1,17,-1
 471 266 l 1,18,-1
 442 266 l 1,19,20
 450 296 450 296 453.5 326 c 128,-1,21
 457 356 457 356 459 386 c 1,22,-1
 285 386 l 1,23,-1
 143 40 l 1,24,-1
 466 40 l 1,25,26
 507 88 507 88 540.5 135 c 128,-1,27
 574 182 574 182 603 230 c 1,28,-1
 632 230 l 1,29,-1
 541 0 l 1,30,-1
 -68 0 l 1,0,-1
600 970 m 0,31,32
 617 970 617 970 626.5 963.5 c 128,-1,33
 636 957 636 957 644 943 c 2,34,-1
 698 847 l 1,35,-1
 672 830 l 1,36,-1
 581 898 l 1,37,-1
 416 830 l 1,38,-1
 404 847 l 1,39,-1
 536 943 l 2,40,41
 554 956 554 956 567.5 963 c 128,-1,42
 581 970 581 970 600 970 c 0,31,32
EndSplineSet
EndChar
StartChar: Edieresis
Encoding: 203 203 31
Width: 713
Flags: W
LayerCount: 2
Back
Fore
SplineSet
-68 0 m 1,0,-1
 -58 23 l 1,1,-1
 34 42 l 1,2,-1
 318 728 l 1,3,-1
 240 747 l 1,4,-1
 250 770 l 1,5,-1
 730 770 l 1,6,-1
 738 550 l 1,7,-1
 711 550 l 1,8,9
 702 604 702 604 688.5 648 c 128,-1,10
 675 692 675 692 653 730 c 1,11,-1
 427 730 l 1,12,-1
 303 426 l 1,13,-1
 471 426 l 1,14,15
 520 483 520 483 555 540 c 1,16,-1
 584 540 l 1,17,-1
 471 266 l 1,18,-1
 442 266 l 1,19,20
 450 296 450 296 453.5 326 c 128,-1,21
 457 356 457 356 459 386 c 1,22,-1
 285 386 l 1,23,-1
 143 40 l 1,24,-1
 466 40 l 1,25,26
 507 88 507 88 540.5 135 c 128,-1,27
 574 182 574 182 603 230 c 1,28,-1
 632 230 l 1,29,-1
 541 0 l 1,30,-1
 -68 0 l 1,0,-1
490 970 m 0,31,32
 513 970 513 970 530 956 c 128,-1,33
 547 942 547 942 547 921 c 0,34,35
 547 909 547 909 541.5 898 c 128,-1,36
 536 887 536 887 526.5 878 c 128,-1,37
 517 869 517 869 505 864 c 128,-1,38
 493 859 493 859 480 859 c 0,39,40
 454 859 454 859 439.5 873 c 128,-1,41
 425 887 425 887 425 910 c 0,42,43
 425 934 425 934 444.5 952 c 128,-1,44
 464 970 464 970 490 970 c 0,31,32
665 970 m 0,45,46
 688 970 688 970 705 956 c 128,-1,47
 722 942 722 942 722 921 c 0,48,49
 722 909 722 909 716.5 898 c 128,-1,50
 711 887 711 887 701.5 878 c 128,-1,51
 692 869 692 869 680 864 c 128,-1,52
 668 859 668 859 655 859 c 0,53,54
 629 859 629 859 614.5 873 c 128,-1,55
 600 887 600 887 600 910 c 0,56,57
 600 934 600 934 619.5 952 c 128,-1,58
 639 970 639 970 665 970 c 0,45,46
EndSplineSet
EndChar
StartChar: Igrave
Encoding: 204 204 60
Width: 392
Flags: W
LayerCount: 2
Back
Fore
SplineSet
319 728 m 1,0,-1
 236 747 l 1,1,-1
 246 770 l 1,2,-1
 536 770 l 1,3,-1
 526 747 l 1,4,-1
 430 728 l 1,5,-1
 145 42 l 1,6,-1
 227 23 l 1,7,-1
 217 0 l 1,8,-1
 -72 0 l 1,9,-1
 -62 23 l 1,10,-1
 35 42 l 1,11,-1
 319 728 l 1,0,-1
491 826 m 1,12,-1
 330 873 l 2,13,14
 293 884 293 884 293 922 c 0,15,16
 293 944 293 944 306.5 957 c 128,-1,17
 320 970 320 970 343 970 c 0,18,19
 360 970 360 970 374.5 961.5 c 128,-1,20
 389 953 389 953 406 938 c 2,21,-1
 510 847 l 1,22,-1
 491 826 l 1,12,-1
EndSplineSet
EndChar
StartChar: Iacute
Encoding: 205 205 54
Width: 392
Flags: W
LayerCount: 2
Back
Fore
SplineSet
319 728 m 1,0,-1
 236 747 l 1,1,-1
 246 770 l 1,2,-1
 536 770 l 1,3,-1
 526 747 l 1,4,-1
 430 728 l 1,5,-1
 145 42 l 1,6,-1
 227 23 l 1,7,-1
 217 0 l 1,8,-1
 -72 0 l 1,9,-1
 -62 23 l 1,10,-1
 35 42 l 1,11,-1
 319 728 l 1,0,-1
336 847 m 1,12,-1
 480 954 l 2,13,14
 502 970 502 970 524 970 c 0,15,16
 541 970 541 970 554 958 c 128,-1,17
 567 946 567 946 567 927 c 0,18,19
 567 910 567 910 552.5 895.5 c 128,-1,20
 538 881 538 881 499 870 c 2,21,-1
 347 826 l 1,22,-1
 336 847 l 1,12,-1
EndSplineSet
EndChar
StartChar: Icircumflex
Encoding: 206 206 56
Width: 392
Flags: W
LayerCount: 2
Back
Fore
SplineSet
319 728 m 1,0,-1
 236 747 l 1,1,-1
 246 770 l 1,2,-1
 536 770 l 1,3,-1
 526 747 l 1,4,-1
 430 728 l 1,5,-1
 145 42 l 1,6,-1
 227 23 l 1,7,-1
 217 0 l 1,8,-1
 -72 0 l 1,9,-1
 -62 23 l 1,10,-1
 35 42 l 1,11,-1
 319 728 l 1,0,-1
473 970 m 0,12,13
 490 970 490 970 499.5 963.5 c 128,-1,14
 509 957 509 957 517 943 c 2,15,-1
 571 847 l 1,16,-1
 545 830 l 1,17,-1
 454 898 l 1,18,-1
 289 830 l 1,19,-1
 277 847 l 1,20,-1
 409 943 l 2,21,22
 427 956 427 956 440.5 963 c 128,-1,23
 454 970 454 970 473 970 c 0,12,13
EndSplineSet
EndChar
StartChar: Idieresis
Encoding: 207 207 57
Width: 392
Flags: W
LayerCount: 2
Back
Fore
SplineSet
319 728 m 1,0,-1
 236 747 l 1,1,-1
 246 770 l 1,2,-1
 536 770 l 1,3,-1
 526 747 l 1,4,-1
 430 728 l 1,5,-1
 145 42 l 1,6,-1
 227 23 l 1,7,-1
 217 0 l 1,8,-1
 -72 0 l 1,9,-1
 -62 23 l 1,10,-1
 35 42 l 1,11,-1
 319 728 l 1,0,-1
359 970 m 0,12,13
 382 970 382 970 399 956 c 128,-1,14
 416 942 416 942 416 921 c 0,15,16
 416 909 416 909 410.5 898 c 128,-1,17
 405 887 405 887 395.5 878 c 128,-1,18
 386 869 386 869 374 864 c 128,-1,19
 362 859 362 859 349 859 c 0,20,21
 323 859 323 859 308.5 873 c 128,-1,22
 294 887 294 887 294 910 c 0,23,24
 294 934 294 934 313.5 952 c 128,-1,25
 333 970 333 970 359 970 c 0,12,13
534 970 m 0,26,27
 557 970 557 970 574 956 c 128,-1,28
 591 942 591 942 591 921 c 0,29,30
 591 909 591 909 585.5 898 c 128,-1,31
 580 887 580 887 570.5 878 c 128,-1,32
 561 869 561 869 549 864 c 128,-1,33
 537 859 537 859 524 859 c 0,34,35
 498 859 498 859 483.5 873 c 128,-1,36
 469 887 469 887 469 910 c 0,37,38
 469 934 469 934 488.5 952 c 128,-1,39
 508 970 508 970 534 970 c 0,26,27
EndSplineSet
EndChar
StartChar: Ntilde
Encoding: 209 209 81
Width: 815
Flags: W
LayerCount: 2
Back
Fore
SplineSet
353 690 m 1,0,-1
 349 690 l 1,1,-1
 80 42 l 1,2,-1
 162 23 l 1,3,-1
 152 0 l 1,4,-1
 -75 0 l 1,5,-1
 -65 23 l 1,6,-1
 32 42 l 1,7,-1
 316 728 l 1,8,-1
 233 747 l 1,9,-1
 243 770 l 1,10,-1
 455 770 l 1,11,-1
 579 171 l 1,12,-1
 583 171 l 1,13,-1
 814 728 l 1,14,-1
 731 747 l 1,15,-1
 741 770 l 1,16,-1
 969 770 l 1,17,-1
 959 747 l 1,18,-1
 863 728 l 1,19,-1
 556 -10 l 1,20,-1
 498 -10 l 1,21,-1
 353 690 l 1,0,-1
486 853 m 1,22,23
 500 904 500 904 534 935.5 c 128,-1,24
 568 967 568 967 605 967 c 0,25,26
 622 967 622 967 639.5 961.5 c 128,-1,27
 657 956 657 956 674.5 949.5 c 128,-1,28
 692 943 692 943 709 937.5 c 128,-1,29
 726 932 726 932 743 932 c 0,30,31
 785 932 785 932 805 970 c 1,32,-1
 829 970 l 1,33,34
 812 918 812 918 777.5 885 c 128,-1,35
 743 852 743 852 706 852 c 0,36,37
 688 852 688 852 671.5 858 c 128,-1,38
 655 864 655 864 638 871.5 c 128,-1,39
 621 879 621 879 604.5 885 c 128,-1,40
 588 891 588 891 570 891 c 0,41,42
 524 891 524 891 507 853 c 1,43,-1
 486 853 l 1,22,23
EndSplineSet
EndChar
StartChar: Otilde
Encoding: 213 213 95
Width: 804
Flags: W
LayerCount: 2
Back
Fore
SplineSet
304 -10 m 0,0,1
 195 -10 195 -10 135 54 c 128,-1,2
 75 118 75 118 75 236 c 0,3,4
 75 304 75 304 94.5 370.5 c 128,-1,5
 114 437 114 437 148.5 497.5 c 128,-1,6
 183 558 183 558 230 610 c 128,-1,7
 277 662 277 662 332 699.5 c 128,-1,8
 387 737 387 737 448 758.5 c 128,-1,9
 509 780 509 780 571 780 c 0,10,11
 681 780 681 780 741 715 c 128,-1,12
 801 650 801 650 801 531 c 0,13,14
 801 463 801 463 781.5 396.5 c 128,-1,15
 762 330 762 330 727.5 270 c 128,-1,16
 693 210 693 210 646 158.5 c 128,-1,17
 599 107 599 107 544 69.5 c 128,-1,18
 489 32 489 32 427.5 11 c 128,-1,19
 366 -10 366 -10 304 -10 c 0,0,1
319 37 m 0,20,21
 365 37 365 37 410 58 c 128,-1,22
 455 79 455 79 496.5 116 c 128,-1,23
 538 153 538 153 573.5 203.5 c 128,-1,24
 609 254 609 254 634.5 312.5 c 128,-1,25
 660 371 660 371 675 435.5 c 128,-1,26
 690 500 690 500 690 565 c 0,27,28
 690 736 690 736 565 736 c 0,29,30
 519 736 519 736 473.5 715 c 128,-1,31
 428 694 428 694 386.5 657 c 128,-1,32
 345 620 345 620 309.5 569.5 c 128,-1,33
 274 519 274 519 247.5 460.5 c 128,-1,34
 221 402 221 402 206 338 c 128,-1,35
 191 274 191 274 191 210 c 0,36,37
 191 37 191 37 319 37 c 0,20,21
475 853 m 1,38,39
 489 904 489 904 523 935.5 c 128,-1,40
 557 967 557 967 594 967 c 0,41,42
 611 967 611 967 628.5 961.5 c 128,-1,43
 646 956 646 956 663.5 949.5 c 128,-1,44
 681 943 681 943 698 937.5 c 128,-1,45
 715 932 715 932 732 932 c 0,46,47
 774 932 774 932 794 970 c 1,48,-1
 818 970 l 1,49,50
 801 918 801 918 766.5 885 c 128,-1,51
 732 852 732 852 695 852 c 0,52,53
 677 852 677 852 660.5 858 c 128,-1,54
 644 864 644 864 627 871.5 c 128,-1,55
 610 879 610 879 593.5 885 c 128,-1,56
 577 891 577 891 559 891 c 0,57,58
 513 891 513 891 496 853 c 1,59,-1
 475 853 l 1,38,39
EndSplineSet
EndChar
StartChar: Odieresis
Encoding: 214 214 87
Width: 804
Flags: W
LayerCount: 2
Back
Fore
SplineSet
304 -10 m 0,0,1
 195 -10 195 -10 135 54 c 128,-1,2
 75 118 75 118 75 236 c 0,3,4
 75 304 75 304 94.5 370.5 c 128,-1,5
 114 437 114 437 148.5 497.5 c 128,-1,6
 183 558 183 558 230 610 c 128,-1,7
 277 662 277 662 332 699.5 c 128,-1,8
 387 737 387 737 448 758.5 c 128,-1,9
 509 780 509 780 571 780 c 0,10,11
 681 780 681 780 741 715 c 128,-1,12
 801 650 801 650 801 531 c 0,13,14
 801 463 801 463 781.5 396.5 c 128,-1,15
 762 330 762 330 727.5 270 c 128,-1,16
 693 210 693 210 646 158.5 c 128,-1,17
 599 107 599 107 544 69.5 c 128,-1,18
 489 32 489 32 427.5 11 c 128,-1,19
 366 -10 366 -10 304 -10 c 0,0,1
319 37 m 0,20,21
 365 37 365 37 410 58 c 128,-1,22
 455 79 455 79 496.5 116 c 128,-1,23
 538 153 538 153 573.5 203.5 c 128,-1,24
 609 254 609 254 634.5 312.5 c 128,-1,25
 660 371 660 371 675 435.5 c 128,-1,26
 690 500 690 500 690 565 c 0,27,28
 690 736 690 736 565 736 c 0,29,30
 519 736 519 736 473.5 715 c 128,-1,31
 428 694 428 694 386.5 657 c 128,-1,32
 345 620 345 620 309.5 569.5 c 128,-1,33
 274 519 274 519 247.5 460.5 c 128,-1,34
 221 402 221 402 206 338 c 128,-1,35
 191 274 191 274 191 210 c 0,36,37
 191 37 191 37 319 37 c 0,20,21
574 970 m 0,38,39
 597 970 597 970 614 956 c 128,-1,40
 631 942 631 942 631 921 c 0,41,42
 631 909 631 909 625.5 898 c 128,-1,43
 620 887 620 887 610.5 878 c 128,-1,44
 601 869 601 869 589 864 c 128,-1,45
 577 859 577 859 564 859 c 0,46,47
 538 859 538 859 523.5 873 c 128,-1,48
 509 887 509 887 509 910 c 0,49,50
 509 934 509 934 528.5 952 c 128,-1,51
 548 970 548 970 574 970 c 0,38,39
749 970 m 0,52,53
 772 970 772 970 789 956 c 128,-1,54
 806 942 806 942 806 921 c 0,55,56
 806 909 806 909 800.5 898 c 128,-1,57
 795 887 795 887 785.5 878 c 128,-1,58
 776 869 776 869 764 864 c 128,-1,59
 752 859 752 859 739 859 c 0,60,61
 713 859 713 859 698.5 873 c 128,-1,62
 684 887 684 887 684 910 c 0,63,64
 684 934 684 934 703.5 952 c 128,-1,65
 723 970 723 970 749 970 c 0,52,53
EndSplineSet
EndChar
StartChar: multiply
Encoding: 215 215 334
Width: 553
Flags: W
LayerCount: 2
Back
Fore
SplineSet
251 340 m 1,0,-1
 111 480 l 1,1,-1
 148 517 l 1,2,-1
 288 377 l 1,3,-1
 428 517 l 1,4,-1
 467 478 l 1,5,-1
 327 338 l 1,6,-1
 466 199 l 1,7,-1
 429 162 l 1,8,-1
 290 301 l 1,9,-1
 149 160 l 1,10,-1
 110 199 l 1,11,-1
 251 340 l 1,0,-1
EndSplineSet
Substitution2: "'tnum' Tabular Numbers in Latin lookup 3 subtable" multiply.tnum
EndChar
StartChar: Oslash
Encoding: 216 216 93
Width: 804
Flags: W
LayerCount: 2
Back
Fore
SplineSet
304 -10 m 0,0,1
 201 -10 201 -10 141 48 c 1,2,-1
 93 0 l 1,3,-1
 32 0 l 1,4,-1
 114 82 l 1,5,6
 75 140 75 140 75 236 c 0,7,8
 75 304 75 304 94.5 370.5 c 128,-1,9
 114 437 114 437 148.5 497.5 c 128,-1,10
 183 558 183 558 230 610 c 128,-1,11
 277 662 277 662 332 699.5 c 128,-1,12
 387 737 387 737 448 758.5 c 128,-1,13
 509 780 509 780 571 780 c 0,14,15
 681 780 681 780 743 712 c 1,16,-1
 800 770 l 1,17,-1
 863 770 l 1,18,-1
 768 675 l 1,19,20
 784 646 784 646 792.5 610 c 128,-1,21
 801 574 801 574 801 531 c 0,22,23
 801 463 801 463 781.5 396.5 c 128,-1,24
 762 330 762 330 727.5 270 c 128,-1,25
 693 210 693 210 646 158.5 c 128,-1,26
 599 107 599 107 544 69.5 c 128,-1,27
 489 32 489 32 427.5 11 c 128,-1,28
 366 -10 366 -10 304 -10 c 0,0,1
565 736 m 0,29,30
 519 736 519 736 473.5 715 c 128,-1,31
 428 694 428 694 386.5 657 c 128,-1,32
 345 620 345 620 309.5 569.5 c 128,-1,33
 274 519 274 519 247.5 460.5 c 128,-1,34
 221 402 221 402 206 338 c 128,-1,35
 191 274 191 274 191 210 c 0,36,37
 191 183 191 183 194 162 c 1,38,-1
 680 649 l 1,39,40
 654 736 654 736 565 736 c 0,29,30
319 37 m 0,41,42
 365 37 365 37 410 58 c 128,-1,43
 455 79 455 79 496.5 116 c 128,-1,44
 538 153 538 153 573.5 203.5 c 128,-1,45
 609 254 609 254 634.5 312.5 c 128,-1,46
 660 371 660 371 675 435.5 c 128,-1,47
 690 500 690 500 690 565 c 0,48,49
 690 573 690 573 689.5 580.5 c 128,-1,50
 689 588 689 588 689 596 c 1,51,-1
 205 112 l 1,52,53
 231 37 231 37 319 37 c 0,41,42
EndSplineSet
EndChar
StartChar: Ugrave
Encoding: 217 217 120
Width: 778
Flags: W
LayerCount: 2
Back
Fore
SplineSet
310 728 m 1,0,-1
 228 747 l 1,1,-1
 237 770 l 1,2,-1
 522 770 l 1,3,-1
 512 747 l 1,4,-1
 416 727 l 1,5,-1
 225 269 l 2,6,7
 211 237 211 237 203.5 203.5 c 128,-1,8
 196 170 196 170 196 144 c 0,9,10
 196 37 196 37 340 37 c 0,11,12
 380 37 380 37 413.5 48 c 128,-1,13
 447 59 447 59 476.5 84.5 c 128,-1,14
 506 110 506 110 533 153 c 128,-1,15
 560 196 560 196 587 259 c 2,16,-1
 790 728 l 1,17,-1
 706 747 l 1,18,-1
 717 770 l 1,19,-1
 938 770 l 1,20,-1
 929 747 l 1,21,-1
 834 728 l 1,22,-1
 623 230 l 2,23,24
 592 157 592 157 556.5 110.5 c 128,-1,25
 521 64 521 64 481.5 37 c 128,-1,26
 442 10 442 10 399 0 c 128,-1,27
 356 -10 356 -10 310 -10 c 0,28,29
 204 -10 204 -10 149 31 c 128,-1,30
 94 72 94 72 94 150 c 0,31,32
 94 219 94 219 137 320 c 2,33,-1
 310 728 l 1,0,-1
673 826 m 1,34,-1
 512 873 l 2,35,36
 475 884 475 884 475 922 c 0,37,38
 475 944 475 944 488.5 957 c 128,-1,39
 502 970 502 970 525 970 c 0,40,41
 542 970 542 970 556.5 961.5 c 128,-1,42
 571 953 571 953 588 938 c 2,43,-1
 692 847 l 1,44,-1
 673 826 l 1,34,-1
EndSplineSet
EndChar
StartChar: Udieresis
Encoding: 220 220 118
Width: 778
Flags: W
LayerCount: 2
Back
Fore
SplineSet
310 728 m 1,0,-1
 228 747 l 1,1,-1
 237 770 l 1,2,-1
 522 770 l 1,3,-1
 512 747 l 1,4,-1
 416 727 l 1,5,-1
 225 269 l 2,6,7
 211 237 211 237 203.5 203.5 c 128,-1,8
 196 170 196 170 196 144 c 0,9,10
 196 37 196 37 340 37 c 0,11,12
 380 37 380 37 413.5 48 c 128,-1,13
 447 59 447 59 476.5 84.5 c 128,-1,14
 506 110 506 110 533 153 c 128,-1,15
 560 196 560 196 587 259 c 2,16,-1
 790 728 l 1,17,-1
 706 747 l 1,18,-1
 717 770 l 1,19,-1
 938 770 l 1,20,-1
 929 747 l 1,21,-1
 834 728 l 1,22,-1
 623 230 l 2,23,24
 592 157 592 157 556.5 110.5 c 128,-1,25
 521 64 521 64 481.5 37 c 128,-1,26
 442 10 442 10 399 0 c 128,-1,27
 356 -10 356 -10 310 -10 c 0,28,29
 204 -10 204 -10 149 31 c 128,-1,30
 94 72 94 72 94 150 c 0,31,32
 94 219 94 219 137 320 c 2,33,-1
 310 728 l 1,0,-1
579 970 m 0,34,35
 602 970 602 970 619 956 c 128,-1,36
 636 942 636 942 636 921 c 0,37,38
 636 909 636 909 630.5 898 c 128,-1,39
 625 887 625 887 615.5 878 c 128,-1,40
 606 869 606 869 594 864 c 128,-1,41
 582 859 582 859 569 859 c 0,42,43
 543 859 543 859 528.5 873 c 128,-1,44
 514 887 514 887 514 910 c 0,45,46
 514 934 514 934 533.5 952 c 128,-1,47
 553 970 553 970 579 970 c 0,34,35
754 970 m 0,48,49
 777 970 777 970 794 956 c 128,-1,50
 811 942 811 942 811 921 c 0,51,52
 811 909 811 909 805.5 898 c 128,-1,53
 800 887 800 887 790.5 878 c 128,-1,54
 781 869 781 869 769 864 c 128,-1,55
 757 859 757 859 744 859 c 0,56,57
 718 859 718 859 703.5 873 c 128,-1,58
 689 887 689 887 689 910 c 0,59,60
 689 934 689 934 708.5 952 c 128,-1,61
 728 970 728 970 754 970 c 0,48,49
EndSplineSet
EndChar
StartChar: Thorn
Encoding: 222 222 113
Width: 658
Flags: W
LayerCount: 2
Back
Fore
SplineSet
326 728 m 1,0,-1
 207 747 l 1,1,-1
 217 770 l 1,2,-1
 533 770 l 1,3,-1
 524 747 l 1,4,-1
 436 728 l 1,5,-1
 380 596 l 1,6,-1
 424 596 l 2,7,8
 533 596 533 596 593.5 550 c 128,-1,9
 654 504 654 504 654 420 c 0,10,11
 654 363 654 363 628.5 316.5 c 128,-1,12
 603 270 603 270 556 236.5 c 128,-1,13
 509 203 509 203 443 185 c 128,-1,14
 377 167 377 167 297 167 c 2,15,-1
 199 167 l 1,16,-1
 146 42 l 1,17,-1
 265 23 l 1,18,-1
 255 0 l 1,19,-1
 -61 0 l 1,20,-1
 -52 23 l 1,21,-1
 36 42 l 1,22,-1
 326 728 l 1,0,-1
311 211 m 2,23,24
 360 211 360 211 404 228.5 c 128,-1,25
 448 246 448 246 480 276.5 c 128,-1,26
 512 307 512 307 531 347.5 c 128,-1,27
 550 388 550 388 550 434 c 0,28,29
 550 493 550 493 518 524 c 128,-1,30
 486 555 486 555 424 555 c 2,31,-1
 363 555 l 1,32,-1
 218 211 l 1,33,-1
 311 211 l 2,23,24
EndSplineSet
EndChar
StartChar: germandbls
Encoding: 223 223 287
Width: 669
Flags: W
LayerCount: 2
Back
Fore
SplineSet
346 394 m 0,0,1
 346 430 346 430 360 457 c 128,-1,2
 374 484 374 484 395.5 505.5 c 128,-1,3
 417 527 417 527 441.5 547 c 128,-1,4
 466 567 466 567 487.5 590.5 c 128,-1,5
 509 614 509 614 523 644 c 128,-1,6
 537 674 537 674 537 715 c 0,7,8
 537 803 537 803 469 803 c 0,9,10
 420 803 420 803 380 752.5 c 128,-1,11
 340 702 340 702 299 590 c 2,12,-1
 157 203 l 2,13,14
 115 90 115 90 78 13.5 c 128,-1,15
 41 -63 41 -63 3.5 -110 c 128,-1,16
 -34 -157 -34 -157 -75 -177 c 128,-1,17
 -116 -197 -116 -197 -165 -197 c 0,18,19
 -222 -197 -222 -197 -255.5 -175 c 128,-1,20
 -289 -153 -289 -153 -289 -115 c 0,21,22
 -289 -73 -289 -73 -245 -73 c 0,23,24
 -227 -73 -227 -73 -216.5 -79.5 c 128,-1,25
 -206 -86 -206 -86 -200 -96 c 128,-1,26
 -194 -106 -194 -106 -190 -117.5 c 128,-1,27
 -186 -129 -186 -129 -180.5 -139 c 128,-1,28
 -175 -149 -175 -149 -166 -155.5 c 128,-1,29
 -157 -162 -157 -162 -141 -162 c 0,30,31
 -122 -162 -122 -162 -104.5 -149 c 128,-1,32
 -87 -136 -87 -136 -67.5 -102 c 128,-1,33
 -48 -68 -48 -68 -24 -9 c 128,-1,34
 0 50 0 50 33 143 c 2,35,-1
 197 600 l 2,36,37
 235 709 235 709 307.5 769.5 c 128,-1,38
 380 830 380 830 471 830 c 0,39,40
 540 830 540 830 582 797.5 c 128,-1,41
 624 765 624 765 624 711 c 0,42,43
 624 679 624 679 609.5 655.5 c 128,-1,44
 595 632 595 632 574 612.5 c 128,-1,45
 553 593 553 593 527.5 575 c 128,-1,46
 502 557 502 557 481 536 c 128,-1,47
 460 515 460 515 445.5 490 c 128,-1,48
 431 465 431 465 431 431 c 0,49,50
 431 387 431 387 453 351 c 128,-1,51
 475 315 475 315 502 280.5 c 128,-1,52
 529 246 529 246 551 211.5 c 128,-1,53
 573 177 573 177 573 137 c 0,54,55
 573 106 573 106 558 79.5 c 128,-1,56
 543 53 543 53 517 33 c 128,-1,57
 491 13 491 13 456 1.5 c 128,-1,58
 421 -10 421 -10 381 -10 c 0,59,60
 348 -10 348 -10 318 -2 c 128,-1,61
 288 6 288 6 265.5 19 c 128,-1,62
 243 32 243 32 229.5 49.5 c 128,-1,63
 216 67 216 67 216 87 c 0,64,65
 216 106 216 106 228.5 117 c 128,-1,66
 241 128 241 128 261 128 c 0,67,68
 287 128 287 128 296 111.5 c 128,-1,69
 305 95 305 95 312 74.5 c 128,-1,70
 319 54 319 54 332.5 37.5 c 128,-1,71
 346 21 346 21 381 21 c 0,72,73
 423 21 423 21 449.5 46 c 128,-1,74
 476 71 476 71 476 109 c 0,75,76
 476 144 476 144 455.5 176 c 128,-1,77
 435 208 435 208 411 241.5 c 128,-1,78
 387 275 387 275 366.5 312 c 128,-1,79
 346 349 346 349 346 394 c 0,0,1
EndSplineSet
EndChar
StartChar: aacute
Encoding: 225 225 145
Width: 604
Flags: W
LayerCount: 2
Back
Fore
SplineSet
371 540 m 0,0,1
 399 540 399 540 417.5 529.5 c 128,-1,2
 436 519 436 519 454 493 c 1,3,-1
 470 530 l 1,4,-1
 572 530 l 1,5,-1
 400 109 l 2,6,7
 394 90 394 90 392 82 c 128,-1,8
 390 74 390 74 390 68 c 0,9,10
 390 49 390 49 406 49 c 0,11,12
 421 49 421 49 448 70 c 128,-1,13
 475 91 475 91 517 138 c 1,14,-1
 537 124 l 1,15,16
 484 58 484 58 436.5 24 c 128,-1,17
 389 -10 389 -10 347 -10 c 0,18,19
 319 -10 319 -10 303.5 4.5 c 128,-1,20
 288 19 288 19 288 48 c 0,21,22
 288 70 288 70 295 93.5 c 128,-1,23
 302 117 302 117 322 149 c 1,24,-1
 316 152 l 1,25,26
 257 66 257 66 209 28 c 128,-1,27
 161 -10 161 -10 110 -10 c 256,28,29
 59 -10 59 -10 29.5 24.5 c 128,-1,30
 0 59 0 59 0 122 c 0,31,32
 0 167 0 167 16 215.5 c 128,-1,33
 32 264 32 264 59.5 310.5 c 128,-1,34
 87 357 87 357 123.5 398.5 c 128,-1,35
 160 440 160 440 201.5 471.5 c 128,-1,36
 243 503 243 503 286.5 521.5 c 128,-1,37
 330 540 330 540 371 540 c 0,0,1
129 25 m 0,38,39
 154 25 154 25 189.5 52.5 c 128,-1,40
 225 80 225 80 263 127.5 c 128,-1,41
 301 175 301 175 338.5 238 c 128,-1,42
 376 301 376 301 406 372 c 0,43,44
 421 407 421 407 424.5 425.5 c 128,-1,45
 428 444 428 444 428 458 c 0,46,47
 428 481 428 481 415 494.5 c 128,-1,48
 402 508 402 508 382 508 c 0,49,50
 357 508 357 508 326 486.5 c 128,-1,51
 295 465 295 465 262.5 430 c 128,-1,52
 230 395 230 395 199.5 350 c 128,-1,53
 169 305 169 305 145 257.5 c 128,-1,54
 121 210 121 210 106.5 164.5 c 128,-1,55
 92 119 92 119 92 83 c 0,56,57
 92 53 92 53 100.5 39 c 128,-1,58
 109 25 109 25 129 25 c 0,38,39
407 642 m 1,59,-1
 523 813 l 2,60,61
 552 857 552 857 586 857 c 0,62,63
 607 857 607 857 621 845 c 128,-1,64
 635 833 635 833 635 815 c 0,65,66
 635 800 635 800 623.5 785 c 128,-1,67
 612 770 612 770 585 750 c 2,68,-1
 423 631 l 1,69,-1
 407 642 l 1,59,-1
EndSplineSet
EndChar
StartChar: atilde
Encoding: 227 227 165
Width: 604
Flags: W
LayerCount: 2
Back
Fore
SplineSet
371 540 m 0,0,1
 399 540 399 540 417.5 529.5 c 128,-1,2
 436 519 436 519 454 493 c 1,3,-1
 470 530 l 1,4,-1
 572 530 l 1,5,-1
 400 109 l 2,6,7
 394 90 394 90 392 82 c 128,-1,8
 390 74 390 74 390 68 c 0,9,10
 390 49 390 49 406 49 c 0,11,12
 421 49 421 49 448 70 c 128,-1,13
 475 91 475 91 517 138 c 1,14,-1
 537 124 l 1,15,16
 484 58 484 58 436.5 24 c 128,-1,17
 389 -10 389 -10 347 -10 c 0,18,19
 319 -10 319 -10 303.5 4.5 c 128,-1,20
 288 19 288 19 288 48 c 0,21,22
 288 70 288 70 295 93.5 c 128,-1,23
 302 117 302 117 322 149 c 1,24,-1
 316 152 l 1,25,26
 257 66 257 66 209 28 c 128,-1,27
 161 -10 161 -10 110 -10 c 256,28,29
 59 -10 59 -10 29.5 24.5 c 128,-1,30
 0 59 0 59 0 122 c 0,31,32
 0 167 0 167 16 215.5 c 128,-1,33
 32 264 32 264 59.5 310.5 c 128,-1,34
 87 357 87 357 123.5 398.5 c 128,-1,35
 160 440 160 440 201.5 471.5 c 128,-1,36
 243 503 243 503 286.5 521.5 c 128,-1,37
 330 540 330 540 371 540 c 0,0,1
129 25 m 0,38,39
 154 25 154 25 189.5 52.5 c 128,-1,40
 225 80 225 80 263 127.5 c 128,-1,41
 301 175 301 175 338.5 238 c 128,-1,42
 376 301 376 301 406 372 c 0,43,44
 421 407 421 407 424.5 425.5 c 128,-1,45
 428 444 428 444 428 458 c 0,46,47
 428 481 428 481 415 494.5 c 128,-1,48
 402 508 402 508 382 508 c 0,49,50
 357 508 357 508 326 486.5 c 128,-1,51
 295 465 295 465 262.5 430 c 128,-1,52
 230 395 230 395 199.5 350 c 128,-1,53
 169 305 169 305 145 257.5 c 128,-1,54
 121 210 121 210 106.5 164.5 c 128,-1,55
 92 119 92 119 92 83 c 0,56,57
 92 53 92 53 100.5 39 c 128,-1,58
 109 25 109 25 129 25 c 0,38,39
288 683 m 1,59,60
 302 734 302 734 336 765.5 c 128,-1,61
 370 797 370 797 407 797 c 0,62,63
 424 797 424 797 441.5 791.5 c 128,-1,64
 459 786 459 786 476.5 779.5 c 128,-1,65
 494 773 494 773 511 767.5 c 128,-1,66
 528 762 528 762 545 762 c 0,67,68
 587 762 587 762 607 800 c 1,69,-1
 631 800 l 1,70,71
 614 748 614 748 579.5 715 c 128,-1,72
 545 682 545 682 508 682 c 0,73,74
 490 682 490 682 473.5 688 c 128,-1,75
 457 694 457 694 440 701.5 c 128,-1,76
 423 709 423 709 406.5 715 c 128,-1,77
 390 721 390 721 372 721 c 0,78,79
 326 721 326 721 309 683 c 1,80,-1
 288 683 l 1,59,60
EndSplineSet
EndChar
StartChar: adieresis
Encoding: 228 228 150
Width: 604
Flags: W
LayerCount: 2
Back
Fore
SplineSet
371 540 m 0,0,1
 399 540 399 540 417.5 529.5 c 128,-1,2
 436 519 436 519 454 493 c 1,3,-1
 470 530 l 1,4,-1
 572 530 l 1,5,-1
 400 109 l 2,6,7
 394 90 394 90 392 82 c 128,-1,8
 390 74 390 74 390 68 c 0,9,10
 390 49 390 49 406 49 c 0,11,12
 421 49 421 49 448 70 c 128,-1,13
 475 91 475 91 517 138 c 1,14,-1
 537 124 l 1,15,16
 484 58 484 58 436.5 24 c 128,-1,17
 389 -10 389 -10 347 -10 c 0,18,19
 319 -10 319 -10 303.5 4.5 c 128,-1,20
 288 19 288 19 288 48 c 0,21,22
 288 70 288 70 295 93.5 c 128,-1,23
 302 117 302 117 322 149 c 1,24,-1
 316 152 l 1,25,26
 257 66 257 66 209 28 c 128,-1,27
 161 -10 161 -10 110 -10 c 256,28,29
 59 -10 59 -10 29.5 24.5 c 128,-1,30
 0 59 0 59 0 122 c 0,31,32
 0 167 0 167 16 215.5 c 128,-1,33
 32 264 32 264 59.5 310.5 c 128,-1,34
 87 357 87 357 123.5 398.5 c 128,-1,35
 160 440 160 440 201.5 471.5 c 128,-1,36
 243 503 243 503 286.5 521.5 c 128,-1,37
 330 540 330 540 371 540 c 0,0,1
129 25 m 0,38,39
 154 25 154 25 189.5 52.5 c 128,-1,40
 225 80 225 80 263 127.5 c 128,-1,41
 301 175 301 175 338.5 238 c 128,-1,42
 376 301 376 301 406 372 c 0,43,44
 421 407 421 407 424.5 425.5 c 128,-1,45
 428 444 428 444 428 458 c 0,46,47
 428 481 428 481 415 494.5 c 128,-1,48
 402 508 402 508 382 508 c 0,49,50
 357 508 357 508 326 486.5 c 128,-1,51
 295 465 295 465 262.5 430 c 128,-1,52
 230 395 230 395 199.5 350 c 128,-1,53
 169 305 169 305 145 257.5 c 128,-1,54
 121 210 121 210 106.5 164.5 c 128,-1,55
 92 119 92 119 92 83 c 0,56,57
 92 53 92 53 100.5 39 c 128,-1,58
 109 25 109 25 129 25 c 0,38,39
385 780 m 0,59,60
 408 780 408 780 425 766 c 128,-1,61
 442 752 442 752 442 731 c 0,62,63
 442 719 442 719 436.5 708 c 128,-1,64
 431 697 431 697 421.5 688 c 128,-1,65
 412 679 412 679 400 674 c 128,-1,66
 388 669 388 669 375 669 c 0,67,68
 349 669 349 669 334.5 683 c 128,-1,69
 320 697 320 697 320 720 c 0,70,71
 320 744 320 744 339.5 762 c 128,-1,72
 359 780 359 780 385 780 c 0,59,60
560 780 m 0,73,74
 583 780 583 780 600 766 c 128,-1,75
 617 752 617 752 617 731 c 0,76,77
 617 719 617 719 611.5 708 c 128,-1,78
 606 697 606 697 596.5 688 c 128,-1,79
 587 679 587 679 575 674 c 128,-1,80
 563 669 563 669 550 669 c 0,81,82
 524 669 524 669 509.5 683 c 128,-1,83
 495 697 495 697 495 720 c 0,84,85
 495 744 495 744 514.5 762 c 128,-1,86
 534 780 534 780 560 780 c 0,73,74
EndSplineSet
EndChar
StartChar: aring
Encoding: 229 229 159
Width: 604
Flags: W
LayerCount: 2
Back
Fore
SplineSet
371 540 m 0,0,1
 399 540 399 540 417.5 529.5 c 128,-1,2
 436 519 436 519 454 493 c 1,3,-1
 470 530 l 1,4,-1
 572 530 l 1,5,-1
 400 109 l 2,6,7
 394 90 394 90 392 82 c 128,-1,8
 390 74 390 74 390 68 c 0,9,10
 390 49 390 49 406 49 c 0,11,12
 421 49 421 49 448 70 c 128,-1,13
 475 91 475 91 517 138 c 1,14,-1
 537 124 l 1,15,16
 484 58 484 58 436.5 24 c 128,-1,17
 389 -10 389 -10 347 -10 c 0,18,19
 319 -10 319 -10 303.5 4.5 c 128,-1,20
 288 19 288 19 288 48 c 0,21,22
 288 70 288 70 295 93.5 c 128,-1,23
 302 117 302 117 322 149 c 1,24,-1
 316 152 l 1,25,26
 257 66 257 66 209 28 c 128,-1,27
 161 -10 161 -10 110 -10 c 256,28,29
 59 -10 59 -10 29.5 24.5 c 128,-1,30
 0 59 0 59 0 122 c 0,31,32
 0 167 0 167 16 215.5 c 128,-1,33
 32 264 32 264 59.5 310.5 c 128,-1,34
 87 357 87 357 123.5 398.5 c 128,-1,35
 160 440 160 440 201.5 471.5 c 128,-1,36
 243 503 243 503 286.5 521.5 c 128,-1,37
 330 540 330 540 371 540 c 0,0,1
129 25 m 0,38,39
 154 25 154 25 189.5 52.5 c 128,-1,40
 225 80 225 80 263 127.5 c 128,-1,41
 301 175 301 175 338.5 238 c 128,-1,42
 376 301 376 301 406 372 c 0,43,44
 421 407 421 407 424.5 425.5 c 128,-1,45
 428 444 428 444 428 458 c 0,46,47
 428 481 428 481 415 494.5 c 128,-1,48
 402 508 402 508 382 508 c 0,49,50
 357 508 357 508 326 486.5 c 128,-1,51
 295 465 295 465 262.5 430 c 128,-1,52
 230 395 230 395 199.5 350 c 128,-1,53
 169 305 169 305 145 257.5 c 128,-1,54
 121 210 121 210 106.5 164.5 c 128,-1,55
 92 119 92 119 92 83 c 0,56,57
 92 53 92 53 100.5 39 c 128,-1,58
 109 25 109 25 129 25 c 0,38,39
482 817 m 0,59,60
 517 817 517 817 542 795.5 c 128,-1,61
 567 774 567 774 567 743 c 0,62,63
 567 725 567 725 558.5 708.5 c 128,-1,64
 550 692 550 692 535.5 679 c 128,-1,65
 521 666 521 666 502.5 658.5 c 128,-1,66
 484 651 484 651 464 651 c 0,67,68
 429 651 429 651 407 672.5 c 128,-1,69
 385 694 385 694 385 726 c 0,70,71
 385 744 385 744 392.5 760.5 c 128,-1,72
 400 777 400 777 413.5 789.5 c 128,-1,73
 427 802 427 802 444.5 809.5 c 128,-1,74
 462 817 462 817 482 817 c 0,59,60
479 782 m 0,75,76
 456 782 456 782 439.5 766.5 c 128,-1,77
 423 751 423 751 423 729 c 0,78,79
 423 710 423 710 436 698 c 128,-1,80
 449 686 449 686 469 686 c 0,81,82
 492 686 492 686 510.5 702.5 c 128,-1,83
 529 719 529 719 529 739 c 0,84,85
 529 757 529 757 514 769.5 c 128,-1,86
 499 782 499 782 479 782 c 0,75,76
EndSplineSet
EndChar
StartChar: ccedilla
Encoding: 231 231 186
Width: 498
Flags: W
LayerCount: 2
Back
Fore
SplineSet
6 -210 m 1,0,1
 28 -226 28 -226 58 -226 c 0,2,3
 96 -226 96 -226 121.5 -206.5 c 128,-1,4
 147 -187 147 -187 147 -156 c 0,5,6
 147 -122 147 -122 105 -122 c 0,7,8
 75 -122 75 -122 57 -134 c 1,9,-1
 49 -121 l 1,10,-1
 136 -10 l 1,11,12
 10 -7 10 -7 10 143 c 0,13,14
 11 225 11 225 54.5 307 c 128,-1,15
 98 389 98 389 177 451 c 0,16,17
 231 493 231 493 290 516.5 c 128,-1,18
 349 540 349 540 399 540 c 0,19,20
 425 540 425 540 447 533 c 128,-1,21
 469 526 469 526 485.5 513.5 c 128,-1,22
 502 501 502 501 511 484.5 c 128,-1,23
 520 468 520 468 520 449 c 0,24,25
 520 431 520 431 508 420 c 128,-1,26
 496 409 496 409 476 409 c 0,27,28
 437 409 437 409 430 457 c 0,29,30
 425 485 425 485 415.5 497 c 128,-1,31
 406 509 406 509 387 509 c 0,32,33
 357 509 357 509 324.5 489.5 c 128,-1,34
 292 470 292 470 261.5 437 c 128,-1,35
 231 404 231 404 203 361.5 c 128,-1,36
 175 319 175 319 154.5 273.5 c 128,-1,37
 134 228 134 228 121.5 182.5 c 128,-1,38
 109 137 109 137 109 99 c 256,39,40
 109 61 109 61 122.5 43 c 128,-1,41
 136 25 136 25 168 25 c 0,42,43
 253 25 253 25 384 159 c 1,44,-1
 406 146 l 1,45,46
 293 14 293 14 180 -6 c 1,47,-1
 141 -58 l 1,48,49
 183 -58 183 -58 206 -76.5 c 128,-1,50
 229 -95 229 -95 229 -128 c 0,51,52
 229 -154 229 -154 215 -177 c 128,-1,53
 201 -200 201 -200 177.5 -218 c 128,-1,54
 154 -236 154 -236 123.5 -246.5 c 128,-1,55
 93 -257 93 -257 59 -257 c 0,56,57
 7 -257 7 -257 -11 -233 c 1,58,-1
 6 -210 l 1,0,1
EndSplineSet
EndChar
StartChar: egrave
Encoding: 232 232 229
Width: 485
Flags: W
LayerCount: 2
Back
Fore
SplineSet
398 540 m 0,0,1
 443 540 443 540 468.5 521.5 c 128,-1,2
 494 503 494 503 494 471 c 256,3,4
 494 439 494 439 469 408.5 c 128,-1,5
 444 378 444 378 399 351.5 c 128,-1,6
 354 325 354 325 291.5 303.5 c 128,-1,7
 229 282 229 282 154 269 c 1,8,9
 97 162 97 162 97 92 c 0,10,11
 97 25 97 25 155 25 c 0,12,13
 178 25 178 25 205 35 c 128,-1,14
 232 45 232 45 259 62.5 c 128,-1,15
 286 80 286 80 312.5 104.5 c 128,-1,16
 339 129 339 129 361 159 c 1,17,-1
 383 145 l 1,18,19
 260 -10 260 -10 130 -10 c 0,20,21
 68 -10 68 -10 34 25 c 128,-1,22
 0 60 0 60 0 125 c 0,23,24
 0 171 0 171 17 219.5 c 128,-1,25
 34 268 34 268 63.5 314 c 128,-1,26
 93 360 93 360 132.5 401.5 c 128,-1,27
 172 443 172 443 216 473.5 c 128,-1,28
 260 504 260 504 307 522 c 128,-1,29
 354 540 354 540 398 540 c 0,0,1
176 302 m 1,30,31
 222 311 222 311 265 330 c 128,-1,32
 308 349 308 349 341 373.5 c 128,-1,33
 374 398 374 398 394 425.5 c 128,-1,34
 414 453 414 453 414 479 c 0,35,36
 414 509 414 509 382 509 c 0,37,38
 361 509 361 509 337.5 498 c 128,-1,39
 314 487 314 487 291 467 c 128,-1,40
 268 447 268 447 246.5 420 c 128,-1,41
 225 393 225 393 208 361 c 2,42,-1
 176 302 l 1,30,31
432 636 m 1,43,-1
 387 755 l 2,44,45
 379 775 379 775 376.5 786.5 c 128,-1,46
 374 798 374 798 374 811 c 0,47,48
 374 831 374 831 390 844 c 128,-1,49
 406 857 406 857 426 857 c 0,50,51
 473 857 473 857 473 815 c 0,52,53
 473 805 473 805 472.5 800.5 c 128,-1,54
 472 796 472 796 472 792 c 2,55,-1
 460 642 l 1,56,-1
 432 636 l 1,43,-1
EndSplineSet
EndChar
StartChar: eacute
Encoding: 233 233 222
Width: 485
Flags: W
LayerCount: 2
Back
Fore
SplineSet
398 540 m 0,0,1
 443 540 443 540 468.5 521.5 c 128,-1,2
 494 503 494 503 494 471 c 256,3,4
 494 439 494 439 469 408.5 c 128,-1,5
 444 378 444 378 399 351.5 c 128,-1,6
 354 325 354 325 291.5 303.5 c 128,-1,7
 229 282 229 282 154 269 c 1,8,9
 97 162 97 162 97 92 c 0,10,11
 97 25 97 25 155 25 c 0,12,13
 178 25 178 25 205 35 c 128,-1,14
 232 45 232 45 259 62.5 c 128,-1,15
 286 80 286 80 312.5 104.5 c 128,-1,16
 339 129 339 129 361 159 c 1,17,-1
 383 145 l 1,18,19
 260 -10 260 -10 130 -10 c 0,20,21
 68 -10 68 -10 34 25 c 128,-1,22
 0 60 0 60 0 125 c 0,23,24
 0 171 0 171 17 219.5 c 128,-1,25
 34 268 34 268 63.5 314 c 128,-1,26
 93 360 93 360 132.5 401.5 c 128,-1,27
 172 443 172 443 216 473.5 c 128,-1,28
 260 504 260 504 307 522 c 128,-1,29
 354 540 354 540 398 540 c 0,0,1
176 302 m 1,30,31
 222 311 222 311 265 330 c 128,-1,32
 308 349 308 349 341 373.5 c 128,-1,33
 374 398 374 398 394 425.5 c 128,-1,34
 414 453 414 453 414 479 c 0,35,36
 414 509 414 509 382 509 c 0,37,38
 361 509 361 509 337.5 498 c 128,-1,39
 314 487 314 487 291 467 c 128,-1,40
 268 447 268 447 246.5 420 c 128,-1,41
 225 393 225 393 208 361 c 2,42,-1
 176 302 l 1,30,31
389 642 m 1,43,-1
 505 813 l 2,44,45
 534 857 534 857 568 857 c 0,46,47
 589 857 589 857 603 845 c 128,-1,48
 617 833 617 833 617 815 c 0,49,50
 617 800 617 800 605.5 785 c 128,-1,51
 594 770 594 770 567 750 c 2,52,-1
 405 631 l 1,53,-1
 389 642 l 1,43,-1
EndSplineSet
EndChar
StartChar: edieresis
Encoding: 235 235 226
Width: 485
Flags: W
LayerCount: 2
Back
Fore
SplineSet
398 540 m 0,0,1
 443 540 443 540 468.5 521.5 c 128,-1,2
 494 503 494 503 494 471 c 256,3,4
 494 439 494 439 469 408.5 c 128,-1,5
 444 378 444 378 399 351.5 c 128,-1,6
 354 325 354 325 291.5 303.5 c 128,-1,7
 229 282 229 282 154 269 c 1,8,9
 97 162 97 162 97 92 c 0,10,11
 97 25 97 25 155 25 c 0,12,13
 178 25 178 25 205 35 c 128,-1,14
 232 45 232 45 259 62.5 c 128,-1,15
 286 80 286 80 312.5 104.5 c 128,-1,16
 339 129 339 129 361 159 c 1,17,-1
 383 145 l 1,18,19
 260 -10 260 -10 130 -10 c 0,20,21
 68 -10 68 -10 34 25 c 128,-1,22
 0 60 0 60 0 125 c 0,23,24
 0 171 0 171 17 219.5 c 128,-1,25
 34 268 34 268 63.5 314 c 128,-1,26
 93 360 93 360 132.5 401.5 c 128,-1,27
 172 443 172 443 216 473.5 c 128,-1,28
 260 504 260 504 307 522 c 128,-1,29
 354 540 354 540 398 540 c 0,0,1
176 302 m 1,30,31
 222 311 222 311 265 330 c 128,-1,32
 308 349 308 349 341 373.5 c 128,-1,33
 374 398 374 398 394 425.5 c 128,-1,34
 414 453 414 453 414 479 c 0,35,36
 414 509 414 509 382 509 c 0,37,38
 361 509 361 509 337.5 498 c 128,-1,39
 314 487 314 487 291 467 c 128,-1,40
 268 447 268 447 246.5 420 c 128,-1,41
 225 393 225 393 208 361 c 2,42,-1
 176 302 l 1,30,31
374 780 m 0,43,44
 397 780 397 780 414 766 c 128,-1,45
 431 752 431 752 431 731 c 0,46,47
 431 719 431 719 425.5 708 c 128,-1,48
 420 697 420 697 410.5 688 c 128,-1,49
 401 679 401 679 389 674 c 128,-1,50
 377 669 377 669 364 669 c 0,51,52
 338 669 338 669 323.5 683 c 128,-1,53
 309 697 309 697 309 720 c 0,54,55
 309 744 309 744 328.5 762 c 128,-1,56
 348 780 348 780 374 780 c 0,43,44
549 780 m 0,57,58
 572 780 572 780 589 766 c 128,-1,59
 606 752 606 752 606 731 c 0,60,61
 606 719 606 719 600.5 708 c 128,-1,62
 595 697 595 697 585.5 688 c 128,-1,63
 576 679 576 679 564 674 c 128,-1,64
 552 669 552 669 539 669 c 0,65,66
 513 669 513 669 498.5 683 c 128,-1,67
 484 697 484 697 484 720 c 0,68,69
 484 744 484 744 503.5 762 c 128,-1,70
 523 780 523 780 549 780 c 0,57,58
EndSplineSet
EndChar
StartChar: icircumflex
Encoding: 238 238 306
Width: 340
Flags: W
LayerCount: 2
Back
Fore
SplineSet
227 540 m 0,0,1
 256 540 256 540 274 527.5 c 128,-1,2
 292 515 292 515 292 491 c 0,3,4
 292 463 292 463 276 425 c 2,5,-1
 133 81 l 2,6,7
 130 73 130 73 130 68 c 0,8,9
 130 49 130 49 150 49 c 0,10,11
 157 49 157 49 165 52.5 c 128,-1,12
 173 56 173 56 185 65 c 128,-1,13
 197 74 197 74 214 89.5 c 128,-1,14
 231 105 231 105 255 129 c 1,15,-1
 275 117 l 1,16,17
 228 57 228 57 177 23.5 c 128,-1,18
 126 -10 126 -10 88 -10 c 0,19,20
 59 -10 59 -10 41 3.5 c 128,-1,21
 23 17 23 17 23 46 c 0,22,23
 23 59 23 59 26.5 75 c 128,-1,24
 30 91 30 91 38 111 c 2,25,-1
 183 467 l 2,26,27
 188 478 188 478 188 486 c 0,28,29
 188 495 188 495 175 495 c 0,30,31
 157 495 157 495 133.5 478.5 c 128,-1,32
 110 462 110 462 87 433 c 1,33,-1
 64 451 l 1,34,35
 98 493 98 493 142.5 516.5 c 128,-1,36
 187 540 187 540 227 540 c 0,0,1
350 857 m 0,37,38
 372 857 372 857 380 849.5 c 128,-1,39
 388 842 388 842 390 828 c 2,40,-1
 406 640 l 1,41,-1
 383 628 l 1,42,-1
 313 769 l 1,43,-1
 130 628 l 1,44,-1
 111 640 l 1,45,-1
 282 828 l 2,46,47
 308 857 308 857 350 857 c 0,37,38
EndSplineSet
EndChar
StartChar: idieresis
Encoding: 239 239 307
Width: 340
Flags: W
LayerCount: 2
Back
Fore
SplineSet
227 540 m 0,0,1
 256 540 256 540 274 527.5 c 128,-1,2
 292 515 292 515 292 491 c 0,3,4
 292 463 292 463 276 425 c 2,5,-1
 133 81 l 2,6,7
 130 73 130 73 130 68 c 0,8,9
 130 49 130 49 150 49 c 0,10,11
 157 49 157 49 165 52.5 c 128,-1,12
 173 56 173 56 185 65 c 128,-1,13
 197 74 197 74 214 89.5 c 128,-1,14
 231 105 231 105 255 129 c 1,15,-1
 275 117 l 1,16,17
 228 57 228 57 177 23.5 c 128,-1,18
 126 -10 126 -10 88 -10 c 0,19,20
 59 -10 59 -10 41 3.5 c 128,-1,21
 23 17 23 17 23 46 c 0,22,23
 23 59 23 59 26.5 75 c 128,-1,24
 30 91 30 91 38 111 c 2,25,-1
 183 467 l 2,26,27
 188 478 188 478 188 486 c 0,28,29
 188 495 188 495 175 495 c 0,30,31
 157 495 157 495 133.5 478.5 c 128,-1,32
 110 462 110 462 87 433 c 1,33,-1
 64 451 l 1,34,35
 98 493 98 493 142.5 516.5 c 128,-1,36
 187 540 187 540 227 540 c 0,0,1
215 780 m 0,37,38
 238 780 238 780 255 766 c 128,-1,39
 272 752 272 752 272 731 c 0,40,41
 272 719 272 719 266.5 708 c 128,-1,42
 261 697 261 697 251.5 688 c 128,-1,43
 242 679 242 679 230 674 c 128,-1,44
 218 669 218 669 205 669 c 0,45,46
 179 669 179 669 164.5 683 c 128,-1,47
 150 697 150 697 150 720 c 0,48,49
 150 744 150 744 169.5 762 c 128,-1,50
 189 780 189 780 215 780 c 0,37,38
390 780 m 0,51,52
 413 780 413 780 430 766 c 128,-1,53
 447 752 447 752 447 731 c 0,54,55
 447 719 447 719 441.5 708 c 128,-1,56
 436 697 436 697 426.5 688 c 128,-1,57
 417 679 417 679 405 674 c 128,-1,58
 393 669 393 669 380 669 c 0,59,60
 354 669 354 669 339.5 683 c 128,-1,61
 325 697 325 697 325 720 c 0,62,63
 325 744 325 744 344.5 762 c 128,-1,64
 364 780 364 780 390 780 c 0,51,52
EndSplineSet
EndChar
StartChar: eth
Encoding: 240 240 245
Width: 555
Flags: W
LayerCount: 2
Back
Fore
SplineSet
362 540 m 0,0,1
 418 540 418 540 437 502 c 1,2,-1
 441 502 l 1,3,4
 439 543 439 543 428.5 577.5 c 128,-1,5
 418 612 418 612 395 657 c 1,6,-1
 265 573 l 1,7,-1
 244 606 l 1,8,-1
 379 693 l 1,9,10
 359 724 359 724 330.5 746.5 c 128,-1,11
 302 769 302 769 254 793 c 1,12,-1
 268 819 l 1,13,14
 322 795 322 795 357.5 772 c 128,-1,15
 393 749 393 749 420 720 c 1,16,-1
 550 802 l 1,17,-1
 572 770 l 1,18,-1
 443 688 l 1,19,20
 458 668 458 668 471 637 c 128,-1,21
 484 606 484 606 493.5 568.5 c 128,-1,22
 503 531 503 531 509 491.5 c 128,-1,23
 515 452 515 452 515 416 c 0,24,25
 515 335 515 335 485.5 258 c 128,-1,26
 456 181 456 181 407 121.5 c 128,-1,27
 358 62 358 62 294.5 26 c 128,-1,28
 231 -10 231 -10 164 -10 c 0,29,30
 93 -10 93 -10 53 32.5 c 128,-1,31
 13 75 13 75 13 151 c 0,32,33
 13 196 13 196 27.5 242.5 c 128,-1,34
 42 289 42 289 67.5 332.5 c 128,-1,35
 93 376 93 376 127 413.5 c 128,-1,36
 161 451 161 451 199.5 479.5 c 128,-1,37
 238 508 238 508 279.5 524 c 128,-1,38
 321 540 321 540 362 540 c 0,0,1
374 496 m 0,39,40
 347 496 347 496 316.5 477.5 c 128,-1,41
 286 459 286 459 256 427.5 c 128,-1,42
 226 396 226 396 198.5 355.5 c 128,-1,43
 171 315 171 315 150 270.5 c 128,-1,44
 129 226 129 226 116.5 181 c 128,-1,45
 104 136 104 136 104 97 c 0,46,47
 104 25 104 25 149 25 c 0,48,49
 174 25 174 25 204 44.5 c 128,-1,50
 234 64 234 64 264 96.5 c 128,-1,51
 294 129 294 129 322.5 171 c 128,-1,52
 351 213 351 213 373 258 c 128,-1,53
 395 303 395 303 408 347.5 c 128,-1,54
 421 392 421 392 421 429 c 0,55,56
 421 496 421 496 374 496 c 0,39,40
EndSplineSet
EndChar
StartChar: oacute
Encoding: 243 243 353
Width: 557
Flags: W
LayerCount: 2
Back
Fore
SplineSet
444 642 m 1,0,-1
 560 813 l 2,1,2
 589 857 589 857 623 857 c 0,3,4
 644 857 644 857 658 845 c 128,-1,5
 672 833 672 833 672 815 c 0,6,7
 672 800 672 800 660.5 785 c 128,-1,8
 649 770 649 770 622 750 c 2,9,-1
 460 631 l 1,10,-1
 444 642 l 1,0,-1
161 -10 m 0,11,12
 89 -10 89 -10 51 34 c 128,-1,13
 13 78 13 78 13 155 c 0,14,15
 13 199 13 199 27.5 245 c 128,-1,16
 42 291 42 291 67.5 334 c 128,-1,17
 93 377 93 377 127 414.5 c 128,-1,18
 161 452 161 452 200.5 480 c 128,-1,19
 240 508 240 508 282 524 c 128,-1,20
 324 540 324 540 366 540 c 0,21,22
 438 540 438 540 476.5 496 c 128,-1,23
 515 452 515 452 515 376 c 0,24,25
 515 308 515 308 483 239.5 c 128,-1,26
 451 171 451 171 400 115.5 c 128,-1,27
 349 60 349 60 286 25 c 128,-1,28
 223 -10 223 -10 161 -10 c 0,11,12
378 505 m 0,29,30
 351 505 351 505 320.5 485.5 c 128,-1,31
 290 466 290 466 259.5 434 c 128,-1,32
 229 402 229 402 201 360 c 128,-1,33
 173 318 173 318 151.5 273 c 128,-1,34
 130 228 130 228 117 182.5 c 128,-1,35
 104 137 104 137 104 98 c 0,36,37
 104 62 104 62 114.5 43.5 c 128,-1,38
 125 25 125 25 149 25 c 0,39,40
 174 25 174 25 204 45 c 128,-1,41
 234 65 234 65 265 98.5 c 128,-1,42
 296 132 296 132 325 175.5 c 128,-1,43
 354 219 354 219 376.5 264.5 c 128,-1,44
 399 310 399 310 412.5 355 c 128,-1,45
 426 400 426 400 426 437 c 0,46,47
 426 471 426 471 415 488 c 128,-1,48
 404 505 404 505 378 505 c 0,29,30
EndSplineSet
EndChar
StartChar: otilde
Encoding: 245 245 379
Width: 557
Flags: W
LayerCount: 2
Back
Fore
SplineSet
161 -10 m 0,0,1
 89 -10 89 -10 51 34 c 128,-1,2
 13 78 13 78 13 155 c 0,3,4
 13 199 13 199 27.5 245 c 128,-1,5
 42 291 42 291 67.5 334 c 128,-1,6
 93 377 93 377 127 414.5 c 128,-1,7
 161 452 161 452 200.5 480 c 128,-1,8
 240 508 240 508 282 524 c 128,-1,9
 324 540 324 540 366 540 c 0,10,11
 438 540 438 540 476.5 496 c 128,-1,12
 515 452 515 452 515 376 c 0,13,14
 515 308 515 308 483 239.5 c 128,-1,15
 451 171 451 171 400 115.5 c 128,-1,16
 349 60 349 60 286 25 c 128,-1,17
 223 -10 223 -10 161 -10 c 0,0,1
378 505 m 0,18,19
 351 505 351 505 320.5 485.5 c 128,-1,20
 290 466 290 466 259.5 434 c 128,-1,21
 229 402 229 402 201 360 c 128,-1,22
 173 318 173 318 151.5 273 c 128,-1,23
 130 228 130 228 117 182.5 c 128,-1,24
 104 137 104 137 104 98 c 0,25,26
 104 62 104 62 114.5 43.5 c 128,-1,27
 125 25 125 25 149 25 c 0,28,29
 174 25 174 25 204 45 c 128,-1,30
 234 65 234 65 265 98.5 c 128,-1,31
 296 132 296 132 325 175.5 c 128,-1,32
 354 219 354 219 376.5 264.5 c 128,-1,33
 399 310 399 310 412.5 355 c 128,-1,34
 426 400 426 400 426 437 c 0,35,36
 426 471 426 471 415 488 c 128,-1,37
 404 505 404 505 378 505 c 0,18,19
265 683 m 1,38,39
 279 734 279 734 313 765.5 c 128,-1,40
 347 797 347 797 384 797 c 0,41,42
 401 797 401 797 418.5 791.5 c 128,-1,43
 436 786 436 786 453.5 779.5 c 128,-1,44
 471 773 471 773 488 767.5 c 128,-1,45
 505 762 505 762 522 762 c 0,46,47
 564 762 564 762 584 800 c 1,48,-1
 608 800 l 1,49,50
 591 748 591 748 556.5 715 c 128,-1,51
 522 682 522 682 485 682 c 0,52,53
 467 682 467 682 450.5 688 c 128,-1,54
 434 694 434 694 417 701.5 c 128,-1,55
 400 709 400 709 383.5 715 c 128,-1,56
 367 721 367 721 349 721 c 0,57,58
 303 721 303 721 286 683 c 1,59,-1
 265 683 l 1,38,39
EndSplineSet
EndChar
StartChar: divide
Encoding: 247 247 211
Width: 533
Flags: W
LayerCount: 2
Back
Fore
SplineSet
205 513 m 0,0,1
 205 543 205 543 223.5 563 c 128,-1,2
 242 583 242 583 273 583 c 0,3,4
 305 583 305 583 324 563 c 128,-1,5
 343 543 343 543 343 513 c 0,6,7
 343 485 343 485 324 465 c 128,-1,8
 305 445 305 445 273 445 c 0,9,10
 242 445 242 445 223.5 465 c 128,-1,11
 205 485 205 485 205 513 c 0,0,1
205 170 m 0,12,13
 205 200 205 200 223.5 220 c 128,-1,14
 242 240 242 240 273 240 c 0,15,16
 305 240 305 240 324 220 c 128,-1,17
 343 200 343 200 343 170 c 0,18,19
 343 142 343 142 324 122 c 128,-1,20
 305 102 305 102 273 102 c 0,21,22
 242 102 242 102 223.5 122 c 128,-1,23
 205 142 205 142 205 170 c 0,12,13
77 315 m 1,24,-1
 77 364 l 1,25,-1
 487 364 l 1,26,-1
 487 315 l 1,27,-1
 77 315 l 1,24,-1
EndSplineSet
Substitution2: "'tnum' Tabular Numbers in Latin lookup 3 subtable" divide.tnum
EndChar
StartChar: oslash
Encoding: 248 248 377
Width: 557
Flags: W
LayerCount: 2
Back
Fore
SplineSet
161 -10 m 0,0,1
 89 -10 89 -10 50 35 c 1,2,-1
 13 0 l 1,3,-1
 -40 0 l 1,4,-1
 30 67 l 1,5,6
 13 106 13 106 13 155 c 0,7,8
 13 199 13 199 27.5 245 c 128,-1,9
 42 291 42 291 67.5 334 c 128,-1,10
 93 377 93 377 127 414.5 c 128,-1,11
 161 452 161 452 200.5 480 c 128,-1,12
 240 508 240 508 282 524 c 128,-1,13
 324 540 324 540 366 540 c 0,14,15
 435 540 435 540 476 496 c 1,16,-1
 511 530 l 1,17,-1
 566 530 l 1,18,-1
 497 464 l 1,19,20
 515 426 515 426 515 376 c 0,21,22
 515 308 515 308 483 239.5 c 128,-1,23
 451 171 451 171 400 115.5 c 128,-1,24
 349 60 349 60 286 25 c 128,-1,25
 223 -10 223 -10 161 -10 c 0,0,1
378 505 m 0,26,27
 354 505 354 505 326.5 489 c 128,-1,28
 299 473 299 473 271 445.5 c 128,-1,29
 243 418 243 418 216.5 381.5 c 128,-1,30
 190 345 190 345 168 305 c 128,-1,31
 146 265 146 265 130 223 c 128,-1,32
 114 181 114 181 108 142 c 1,33,-1
 426 448 l 1,34,35
 423 505 423 505 378 505 c 0,26,27
149 25 m 0,36,37
 171 25 171 25 198 41.5 c 128,-1,38
 225 58 225 58 253 86 c 128,-1,39
 281 114 281 114 308 151 c 128,-1,40
 335 188 335 188 358 229 c 128,-1,41
 381 270 381 270 397.5 311.5 c 128,-1,42
 414 353 414 353 421 391 c 1,43,-1
 104 87 l 1,44,45
 106 56 106 56 116 40.5 c 128,-1,46
 126 25 126 25 149 25 c 0,36,37
EndSplineSet
EndChar
StartChar: udieresis
Encoding: 252 252 479
Width: 618
Flags: W
LayerCount: 2
Back
Fore
SplineSet
66 434 m 1,0,1
 111 486 111 486 155.5 513 c 128,-1,2
 200 540 200 540 242 540 c 0,3,4
 270 540 270 540 285.5 527 c 128,-1,5
 301 514 301 514 301 488 c 0,6,7
 301 445 301 445 266 372 c 2,8,-1
 135 103 l 2,9,10
 128 89 128 89 125 76 c 128,-1,11
 122 63 122 63 122 53 c 0,12,13
 122 39 122 39 131 32 c 128,-1,14
 140 25 140 25 152 25 c 0,15,16
 176 25 176 25 207 48.5 c 128,-1,17
 238 72 238 72 272 113 c 128,-1,18
 306 154 306 154 340 211 c 128,-1,19
 374 268 374 268 406 336 c 2,20,-1
 497 530 l 1,21,-1
 596 530 l 1,22,-1
 402 84 l 2,23,24
 391 60 391 60 391 47 c 0,25,26
 391 41 391 41 395.5 38 c 128,-1,27
 400 35 400 35 405 35 c 0,28,29
 423 35 423 35 452 58.5 c 128,-1,30
 481 82 481 82 511 120 c 1,31,-1
 531 104 l 1,32,33
 511 78 511 78 489 57 c 128,-1,34
 467 36 467 36 445.5 21 c 128,-1,35
 424 6 424 6 403.5 -2 c 128,-1,36
 383 -10 383 -10 365 -10 c 0,37,38
 341 -10 341 -10 324.5 6 c 128,-1,39
 308 22 308 22 308 48 c 0,40,41
 308 66 308 66 315 90.5 c 128,-1,42
 322 115 322 115 339 148 c 1,43,-1
 334 150 l 1,44,45
 303 107 303 107 275.5 77 c 128,-1,46
 248 47 248 47 222 28 c 128,-1,47
 196 9 196 9 170.5 0 c 128,-1,48
 145 -9 145 -9 118 -9 c 0,49,50
 29 -9 29 -9 29 79 c 0,51,52
 29 118 29 118 54 170 c 2,53,-1
 171 409 l 2,54,55
 191 449 191 449 191 468 c 0,56,57
 191 481 191 481 179 481 c 0,58,59
 165 481 165 481 141.5 464.5 c 128,-1,60
 118 448 118 448 89 418 c 1,61,-1
 66 434 l 1,0,1
366 780 m 0,62,63
 389 780 389 780 406 766 c 128,-1,64
 423 752 423 752 423 731 c 0,65,66
 423 719 423 719 417.5 708 c 128,-1,67
 412 697 412 697 402.5 688 c 128,-1,68
 393 679 393 679 381 674 c 128,-1,69
 369 669 369 669 356 669 c 0,70,71
 330 669 330 669 315.5 683 c 128,-1,72
 301 697 301 697 301 720 c 0,73,74
 301 744 301 744 320.5 762 c 128,-1,75
 340 780 340 780 366 780 c 0,62,63
541 780 m 0,76,77
 564 780 564 780 581 766 c 128,-1,78
 598 752 598 752 598 731 c 0,79,80
 598 719 598 719 592.5 708 c 128,-1,81
 587 697 587 697 577.5 688 c 128,-1,82
 568 679 568 679 556 674 c 128,-1,83
 544 669 544 669 531 669 c 0,84,85
 505 669 505 669 490.5 683 c 128,-1,86
 476 697 476 697 476 720 c 0,87,88
 476 744 476 744 495.5 762 c 128,-1,89
 515 780 515 780 541 780 c 0,76,77
EndSplineSet
EndChar
StartChar: thorn
Encoding: 254 254 454
Width: 592
Flags: W
LayerCount: 2
Back
Fore
SplineSet
404 820 m 1,0,-1
 297 547 l 1,1,2
 353 545 353 545 398.5 529.5 c 128,-1,3
 444 514 444 514 476.5 487 c 128,-1,4
 509 460 509 460 526.5 423 c 128,-1,5
 544 386 544 386 544 341 c 0,6,7
 544 278 544 278 509 218 c 128,-1,8
 474 158 474 158 415.5 112 c 128,-1,9
 357 66 357 66 282 38 c 128,-1,10
 207 10 207 10 127 10 c 0,11,12
 98 10 98 10 73 13 c 1,13,-1
 -24 -220 l 1,14,-1
 78 -232 l 1,15,-1
 78 -250 l 1,16,-1
 -208 -250 l 1,17,-1
 -208 -235 l 1,18,-1
 -128 -223 l 1,19,-1
 294 793 l 1,20,-1
 216 805 l 1,21,-1
 212 820 l 1,22,-1
 404 820 l 1,0,-1
84 40 m 1,23,24
 91 39 91 39 96.5 39 c 128,-1,25
 102 39 102 39 110 39 c 0,26,27
 172 39 172 39 231 67 c 128,-1,28
 290 95 290 95 336.5 140.5 c 128,-1,29
 383 186 383 186 411.5 244 c 128,-1,30
 440 302 440 302 440 363 c 0,31,32
 440 431 440 431 403 469.5 c 128,-1,33
 366 508 366 508 300 508 c 0,34,35
 286 508 286 508 281 506 c 128,-1,36
 276 504 276 504 274 497 c 2,37,-1
 84 40 l 1,23,24
EndSplineSet
EndChar
StartChar: abreve
Encoding: 259 259 146
Width: 604
Flags: W
LayerCount: 2
Back
Fore
SplineSet
371 540 m 0,0,1
 399 540 399 540 417.5 529.5 c 128,-1,2
 436 519 436 519 454 493 c 1,3,-1
 470 530 l 1,4,-1
 572 530 l 1,5,-1
 400 109 l 2,6,7
 394 90 394 90 392 82 c 128,-1,8
 390 74 390 74 390 68 c 0,9,10
 390 49 390 49 406 49 c 0,11,12
 421 49 421 49 448 70 c 128,-1,13
 475 91 475 91 517 138 c 1,14,-1
 537 124 l 1,15,16
 484 58 484 58 436.5 24 c 128,-1,17
 389 -10 389 -10 347 -10 c 0,18,19
 319 -10 319 -10 303.5 4.5 c 128,-1,20
 288 19 288 19 288 48 c 0,21,22
 288 70 288 70 295 93.5 c 128,-1,23
 302 117 302 117 322 149 c 1,24,-1
 316 152 l 1,25,26
 257 66 257 66 209 28 c 128,-1,27
 161 -10 161 -10 110 -10 c 256,28,29
 59 -10 59 -10 29.5 24.5 c 128,-1,30
 0 59 0 59 0 122 c 0,31,32
 0 167 0 167 16 215.5 c 128,-1,33
 32 264 32 264 59.5 310.5 c 128,-1,34
 87 357 87 357 123.5 398.5 c 128,-1,35
 160 440 160 440 201.5 471.5 c 128,-1,36
 243 503 243 503 286.5 521.5 c 128,-1,37
 330 540 330 540 371 540 c 0,0,1
129 25 m 0,38,39
 154 25 154 25 189.5 52.5 c 128,-1,40
 225 80 225 80 263 127.5 c 128,-1,41
 301 175 301 175 338.5 238 c 128,-1,42
 376 301 376 301 406 372 c 0,43,44
 421 407 421 407 424.5 425.5 c 128,-1,45
 428 444 428 444 428 458 c 0,46,47
 428 481 428 481 415 494.5 c 128,-1,48
 402 508 402 508 382 508 c 0,49,50
 357 508 357 508 326 486.5 c 128,-1,51
 295 465 295 465 262.5 430 c 128,-1,52
 230 395 230 395 199.5 350 c 128,-1,53
 169 305 169 305 145 257.5 c 128,-1,54
 121 210 121 210 106.5 164.5 c 128,-1,55
 92 119 92 119 92 83 c 0,56,57
 92 53 92 53 100.5 39 c 128,-1,58
 109 25 109 25 129 25 c 0,38,39
389 790 m 1,59,60
 390 759 390 759 409.5 742 c 128,-1,61
 429 725 429 725 468 725 c 0,62,63
 501 725 501 725 533.5 740 c 128,-1,64
 566 755 566 755 598 790 c 1,65,-1
 638 790 l 1,66,67
 607 743 607 743 577 715.5 c 128,-1,68
 547 688 547 688 521 674 c 128,-1,69
 495 660 495 660 472.5 655.5 c 128,-1,70
 450 651 450 651 434 651 c 0,71,72
 417 651 417 651 400.5 655.5 c 128,-1,73
 384 660 384 660 371.5 669.5 c 128,-1,74
 359 679 359 679 351.5 695 c 128,-1,75
 344 711 344 711 344 734 c 0,76,77
 344 759 344 759 354 790 c 1,78,-1
 389 790 l 1,59,60
EndSplineSet
EndChar
StartChar: Aogonek
Encoding: 260 260 10
Width: 748
Flags: W
LayerCount: 2
Back
Fore
SplineSet
463 -198 m 1,0,1
 394 -256 394 -256 326 -256 c 0,2,3
 259 -256 259 -256 259 -204 c 0,4,5
 259 -159 259 -159 310 -105 c 128,-1,6
 361 -51 361 -51 449 0 c 1,7,-1
 311 0 l 1,8,-1
 325 28 l 1,9,10
 353 28 353 28 374 31.5 c 128,-1,11
 395 35 395 35 409 43.5 c 128,-1,12
 423 52 423 52 431 67 c 128,-1,13
 439 82 439 82 442 105 c 2,14,-1
 467 286 l 1,15,-1
 230 286 l 1,16,-1
 101 137 l 2,17,18
 78 110 78 110 69.5 96.5 c 128,-1,19
 61 83 61 83 61 69 c 0,20,21
 62 53 62 53 81.5 43.5 c 128,-1,22
 101 34 101 34 146 28 c 1,23,-1
 133 0 l 1,24,-1
 -145 0 l 1,25,-1
 -131 28 l 1,26,27
 -95 33 -95 33 -70 40.5 c 128,-1,28
 -45 48 -45 48 -24.5 61 c 128,-1,29
 -4 74 -4 74 15 92.5 c 128,-1,30
 34 111 34 111 58 139 c 2,31,-1
 521 677 l 1,32,-1
 532 770 l 1,33,-1
 640 793 l 1,34,-1
 549 92 l 2,35,36
 548 87 548 87 548 83 c 128,-1,37
 548 79 548 79 548 75 c 0,38,39
 549 49 549 49 567.5 40 c 128,-1,40
 586 31 586 31 633 28 c 1,41,-1
 619 0 l 1,42,-1
 493 0 l 1,43,44
 427 -52 427 -52 391.5 -97 c 128,-1,45
 356 -142 356 -142 356 -172 c 0,46,47
 356 -201 356 -201 393 -201 c 0,48,49
 407 -201 407 -201 421 -196.5 c 128,-1,50
 435 -192 435 -192 458 -180 c 1,51,-1
 463 -198 l 1,0,1
514 614 m 1,52,-1
 262 323 l 1,53,-1
 472 323 l 1,54,-1
 514 614 l 1,52,-1
EndSplineSet
EndChar
StartChar: aogonek
Encoding: 261 261 157
Width: 605
Flags: W
LayerCount: 2
Back
Fore
SplineSet
366 -198 m 1,0,1
 297 -256 297 -256 229 -256 c 0,2,3
 162 -256 162 -256 162 -204 c 0,4,5
 162 -162 162 -162 208.5 -110 c 128,-1,6
 255 -58 255 -58 336 -9 c 1,7,8
 313 -7 313 -7 300.5 7.5 c 128,-1,9
 288 22 288 22 288 48 c 0,10,11
 288 70 288 70 295 93.5 c 128,-1,12
 302 117 302 117 322 149 c 1,13,-1
 316 152 l 1,14,15
 257 66 257 66 209 28 c 128,-1,16
 161 -10 161 -10 110 -10 c 256,17,18
 59 -10 59 -10 29.5 24.5 c 128,-1,19
 0 59 0 59 0 122 c 0,20,21
 0 167 0 167 16 215.5 c 128,-1,22
 32 264 32 264 59.5 310.5 c 128,-1,23
 87 357 87 357 123.5 398.5 c 128,-1,24
 160 440 160 440 201.5 471.5 c 128,-1,25
 243 503 243 503 286.5 521.5 c 128,-1,26
 330 540 330 540 371 540 c 0,27,28
 399 540 399 540 417.5 529.5 c 128,-1,29
 436 519 436 519 454 493 c 1,30,-1
 470 530 l 1,31,-1
 572 530 l 1,32,-1
 400 109 l 2,33,34
 394 90 394 90 392 82 c 128,-1,35
 390 74 390 74 390 68 c 0,36,37
 390 49 390 49 406 49 c 0,38,39
 421 49 421 49 448 70 c 128,-1,40
 475 91 475 91 517 138 c 1,41,-1
 537 124 l 1,42,43
 464 31 464 31 399 2 c 1,44,45
 332 -51 332 -51 295.5 -96 c 128,-1,46
 259 -141 259 -141 259 -172 c 0,47,48
 259 -201 259 -201 296 -201 c 0,49,50
 310 -201 310 -201 324 -196.5 c 128,-1,51
 338 -192 338 -192 361 -180 c 1,52,-1
 366 -198 l 1,0,1
129 25 m 0,53,54
 154 25 154 25 189.5 52.5 c 128,-1,55
 225 80 225 80 263 127.5 c 128,-1,56
 301 175 301 175 338.5 238 c 128,-1,57
 376 301 376 301 406 372 c 0,58,59
 421 407 421 407 424.5 425.5 c 128,-1,60
 428 444 428 444 428 458 c 0,61,62
 428 481 428 481 415 494.5 c 128,-1,63
 402 508 402 508 382 508 c 0,64,65
 357 508 357 508 326 486.5 c 128,-1,66
 295 465 295 465 262.5 430 c 128,-1,67
 230 395 230 395 199.5 350 c 128,-1,68
 169 305 169 305 145 257.5 c 128,-1,69
 121 210 121 210 106.5 164.5 c 128,-1,70
 92 119 92 119 92 83 c 0,71,72
 92 53 92 53 100.5 39 c 128,-1,73
 109 25 109 25 129 25 c 0,53,54
EndSplineSet
EndChar
StartChar: cacute
Encoding: 263 263 181
Width: 498
Flags: W
LayerCount: 2
Back
Fore
SplineSet
387 509 m 0,0,1
 357 509 357 509 324.5 489.5 c 128,-1,2
 292 470 292 470 261.5 437 c 128,-1,3
 231 404 231 404 203 361.5 c 128,-1,4
 175 319 175 319 154.5 273.5 c 128,-1,5
 134 228 134 228 121.5 182.5 c 128,-1,6
 109 137 109 137 109 99 c 256,7,8
 109 61 109 61 122.5 43 c 128,-1,9
 136 25 136 25 168 25 c 0,10,11
 253 25 253 25 384 159 c 1,12,-1
 406 146 l 1,13,14
 340 69 340 69 273 29.5 c 128,-1,15
 206 -10 206 -10 140 -10 c 0,16,17
 75 -10 75 -10 42.5 29 c 128,-1,18
 10 68 10 68 10 143 c 0,19,20
 11 225 11 225 54.5 307 c 128,-1,21
 98 389 98 389 177 451 c 0,22,23
 231 493 231 493 290 516.5 c 128,-1,24
 349 540 349 540 399 540 c 0,25,26
 425 540 425 540 447 533 c 128,-1,27
 469 526 469 526 485.5 513.5 c 128,-1,28
 502 501 502 501 511 484.5 c 128,-1,29
 520 468 520 468 520 449 c 0,30,31
 520 431 520 431 508 420 c 128,-1,32
 496 409 496 409 476 409 c 0,33,34
 437 409 437 409 430 457 c 0,35,36
 425 485 425 485 415.5 497 c 128,-1,37
 406 509 406 509 387 509 c 0,0,1
349 642 m 1,38,-1
 465 813 l 2,39,40
 494 857 494 857 528 857 c 0,41,42
 549 857 549 857 563 845 c 128,-1,43
 577 833 577 833 577 815 c 0,44,45
 577 800 577 800 565.5 785 c 128,-1,46
 554 770 554 770 527 750 c 2,47,-1
 365 631 l 1,48,-1
 349 642 l 1,38,-1
EndSplineSet
EndChar
StartChar: Cdotaccent
Encoding: 266 266 21
Width: 742
Flags: W
LayerCount: 2
Back
Fore
SplineSet
540 77 m 1,0,-1
 536 77 l 1,1,2
 477 30 477 30 421 10 c 128,-1,3
 365 -10 365 -10 298 -10 c 0,4,5
 63 -10 63 -10 63 213 c 0,6,7
 63 284 63 284 85.5 353.5 c 128,-1,8
 108 423 108 423 147.5 486 c 128,-1,9
 187 549 187 549 241 602.5 c 128,-1,10
 295 656 295 656 358 695.5 c 128,-1,11
 421 735 421 735 491 757.5 c 128,-1,12
 561 780 561 780 632 780 c 0,13,14
 680 780 680 780 721 768.5 c 128,-1,15
 762 757 762 757 789 737 c 1,16,-1
 825 770 l 1,17,-1
 847 770 l 1,18,-1
 750 540 l 1,19,-1
 721 540 l 1,20,21
 736 595 736 595 736 634 c 0,22,23
 736 688 736 688 708.5 712 c 128,-1,24
 681 736 681 736 622 736 c 0,25,26
 566 736 566 736 510.5 715.5 c 128,-1,27
 455 695 455 695 405.5 659 c 128,-1,28
 356 623 356 623 313.5 574 c 128,-1,29
 271 525 271 525 239.5 467.5 c 128,-1,30
 208 410 208 410 190.5 346.5 c 128,-1,31
 173 283 173 283 173 219 c 0,32,33
 173 37 173 37 325 37 c 0,34,35
 373 37 373 37 419 54.5 c 128,-1,36
 465 72 465 72 506 105 c 128,-1,37
 547 138 547 138 581 185.5 c 128,-1,38
 615 233 615 233 641 293 c 1,39,-1
 670 293 l 1,40,-1
 559 0 l 1,41,-1
 532 0 l 1,42,-1
 540 77 l 1,0,-1
710 970 m 0,43,44
 736 970 736 970 755 954 c 128,-1,45
 774 938 774 938 774 915 c 0,46,47
 774 901 774 901 767.5 888.5 c 128,-1,48
 761 876 761 876 750.5 866.5 c 128,-1,49
 740 857 740 857 726.5 851 c 128,-1,50
 713 845 713 845 699 845 c 0,51,52
 670 845 670 845 653.5 860.5 c 128,-1,53
 637 876 637 876 637 902 c 0,54,55
 637 930 637 930 659 950 c 128,-1,56
 681 970 681 970 710 970 c 0,43,44
EndSplineSet
EndChar
StartChar: cdotaccent
Encoding: 267 267 188
Width: 498
Flags: W
LayerCount: 2
Back
Fore
SplineSet
387 509 m 0,0,1
 357 509 357 509 324.5 489.5 c 128,-1,2
 292 470 292 470 261.5 437 c 128,-1,3
 231 404 231 404 203 361.5 c 128,-1,4
 175 319 175 319 154.5 273.5 c 128,-1,5
 134 228 134 228 121.5 182.5 c 128,-1,6
 109 137 109 137 109 99 c 256,7,8
 109 61 109 61 122.5 43 c 128,-1,9
 136 25 136 25 168 25 c 0,10,11
 253 25 253 25 384 159 c 1,12,-1
 406 146 l 1,13,14
 340 69 340 69 273 29.5 c 128,-1,15
 206 -10 206 -10 140 -10 c 0,16,17
 75 -10 75 -10 42.5 29 c 128,-1,18
 10 68 10 68 10 143 c 0,19,20
 11 225 11 225 54.5 307 c 128,-1,21
 98 389 98 389 177 451 c 0,22,23
 231 493 231 493 290 516.5 c 128,-1,24
 349 540 349 540 399 540 c 0,25,26
 425 540 425 540 447 533 c 128,-1,27
 469 526 469 526 485.5 513.5 c 128,-1,28
 502 501 502 501 511 484.5 c 128,-1,29
 520 468 520 468 520 449 c 0,30,31
 520 431 520 431 508 420 c 128,-1,32
 496 409 496 409 476 409 c 0,33,34
 437 409 437 409 430 457 c 0,35,36
 425 485 425 485 415.5 497 c 128,-1,37
 406 509 406 509 387 509 c 0,0,1
464 780 m 0,38,39
 490 780 490 780 509 764 c 128,-1,40
 528 748 528 748 528 725 c 0,41,42
 528 711 528 711 521.5 698.5 c 128,-1,43
 515 686 515 686 504.5 676.5 c 128,-1,44
 494 667 494 667 480.5 661 c 128,-1,45
 467 655 467 655 453 655 c 0,46,47
 424 655 424 655 407.5 670.5 c 128,-1,48
 391 686 391 686 391 712 c 0,49,50
 391 740 391 740 413 760 c 128,-1,51
 435 780 435 780 464 780 c 0,38,39
EndSplineSet
EndChar
StartChar: Ccaron
Encoding: 268 268 18
Width: 742
Flags: W
LayerCount: 2
Back
Fore
SplineSet
540 77 m 1,0,-1
 536 77 l 1,1,2
 477 30 477 30 421 10 c 128,-1,3
 365 -10 365 -10 298 -10 c 0,4,5
 63 -10 63 -10 63 213 c 0,6,7
 63 284 63 284 85.5 353.5 c 128,-1,8
 108 423 108 423 147.5 486 c 128,-1,9
 187 549 187 549 241 602.5 c 128,-1,10
 295 656 295 656 358 695.5 c 128,-1,11
 421 735 421 735 491 757.5 c 128,-1,12
 561 780 561 780 632 780 c 0,13,14
 680 780 680 780 721 768.5 c 128,-1,15
 762 757 762 757 789 737 c 1,16,-1
 825 770 l 1,17,-1
 847 770 l 1,18,-1
 750 540 l 1,19,-1
 721 540 l 1,20,21
 736 595 736 595 736 634 c 0,22,23
 736 688 736 688 708.5 712 c 128,-1,24
 681 736 681 736 622 736 c 0,25,26
 566 736 566 736 510.5 715.5 c 128,-1,27
 455 695 455 695 405.5 659 c 128,-1,28
 356 623 356 623 313.5 574 c 128,-1,29
 271 525 271 525 239.5 467.5 c 128,-1,30
 208 410 208 410 190.5 346.5 c 128,-1,31
 173 283 173 283 173 219 c 0,32,33
 173 37 173 37 325 37 c 0,34,35
 373 37 373 37 419 54.5 c 128,-1,36
 465 72 465 72 506 105 c 128,-1,37
 547 138 547 138 581 185.5 c 128,-1,38
 615 233 615 233 641 293 c 1,39,-1
 670 293 l 1,40,-1
 559 0 l 1,41,-1
 532 0 l 1,42,-1
 540 77 l 1,0,-1
658 830 m 0,43,44
 641 830 641 830 631.5 836.5 c 128,-1,45
 622 843 622 843 614 857 c 2,46,-1
 560 953 l 1,47,-1
 586 970 l 1,48,-1
 677 902 l 1,49,-1
 842 970 l 1,50,-1
 854 953 l 1,51,-1
 722 857 l 2,52,53
 704 844 704 844 690.5 837 c 128,-1,54
 677 830 677 830 658 830 c 0,43,44
EndSplineSet
EndChar
StartChar: dcaron
Encoding: 271 271 204
Width: 604
Flags: W
LayerCount: 2
Back
Fore
SplineSet
481 820 m 1,0,-1
 672 820 l 1,1,-1
 404 109 l 2,2,3
 397 91 397 91 395 82.5 c 128,-1,4
 393 74 393 74 393 68 c 0,5,6
 393 57 393 57 398 53 c 128,-1,7
 403 49 403 49 411 49 c 0,8,9
 426 49 426 49 450 70 c 128,-1,10
 474 91 474 91 516 138 c 1,11,-1
 536 124 l 1,12,13
 437 -10 437 -10 353 -10 c 0,14,15
 320 -10 320 -10 306 8 c 128,-1,16
 292 26 292 26 292 62 c 0,17,18
 292 80 292 80 299.5 100.5 c 128,-1,19
 307 121 307 121 321 149 c 1,20,-1
 319 152 l 1,21,22
 289 108 289 108 263 77 c 128,-1,23
 237 46 237 46 212.5 26.5 c 128,-1,24
 188 7 188 7 163.5 -1.5 c 128,-1,25
 139 -10 139 -10 112 -10 c 0,26,27
 3 -10 3 -10 3 120 c 0,28,29
 3 190 3 190 35.5 264 c 128,-1,30
 68 338 68 338 120 399.5 c 128,-1,31
 172 461 172 461 235.5 500.5 c 128,-1,32
 299 540 299 540 362 540 c 0,33,34
 391 540 391 540 409.5 529.5 c 128,-1,35
 428 519 428 519 447 493 c 1,36,-1
 563 793 l 1,37,-1
 486 805 l 1,38,-1
 481 820 l 1,0,-1
130 25 m 0,39,40
 155 25 155 25 190 53 c 128,-1,41
 225 81 225 81 262 128.5 c 128,-1,42
 299 176 299 176 335.5 239 c 128,-1,43
 372 302 372 302 401 372 c 0,44,45
 415 407 415 407 420 425 c 128,-1,46
 425 443 425 443 426 458 c 0,47,48
 422 481 422 481 410.5 494.5 c 128,-1,49
 399 508 399 508 379 508 c 0,50,51
 354 508 354 508 323 486.5 c 128,-1,52
 292 465 292 465 260 429.5 c 128,-1,53
 228 394 228 394 198 349 c 128,-1,54
 168 304 168 304 144.5 256.5 c 128,-1,55
 121 209 121 209 107 163 c 128,-1,56
 93 117 93 117 93 81 c 0,57,58
 93 52 93 52 103 38.5 c 128,-1,59
 113 25 113 25 130 25 c 0,39,40
705 642 m 1,60,-1
 757 811 l 2,61,62
 765 836 765 836 777.5 846.5 c 128,-1,63
 790 857 790 857 807 857 c 0,64,65
 830 857 830 857 839.5 845.5 c 128,-1,66
 849 834 849 834 849 817 c 0,67,68
 849 807 849 807 845 797 c 128,-1,69
 841 787 841 787 830 773 c 2,70,-1
 730 642 l 1,71,-1
 705 642 l 1,60,-1
EndSplineSet
EndChar
StartChar: Dcroat
Encoding: 272 272 24
Width: 808
Flags: W
LayerCount: 2
Back
Fore
SplineSet
-55 23 m 1,0,-1
 37 42 l 1,1,-1
 175 376 l 1,2,-1
 78 376 l 1,3,-1
 96 420 l 1,4,-1
 193 420 l 1,5,-1
 321 728 l 1,6,-1
 243 747 l 1,7,-1
 253 770 l 1,8,-1
 459 770 l 2,9,10
 533 770 533 770 593 749 c 128,-1,11
 653 728 653 728 695.5 689 c 128,-1,12
 738 650 738 650 761 594.5 c 128,-1,13
 784 539 784 539 784 470 c 0,14,15
 784 403 784 403 764 339 c 128,-1,16
 744 275 744 275 708 219.5 c 128,-1,17
 672 164 672 164 621 119.5 c 128,-1,18
 570 75 570 75 508 47 c 0,19,20
 404 0 404 0 245 0 c 2,21,-1
 -65 0 l 1,22,-1
 -55 23 l 1,0,-1
239 42 m 0,23,24
 326 42 326 42 405 72.5 c 128,-1,25
 484 103 484 103 544 161 c 128,-1,26
 604 219 604 219 639 303.5 c 128,-1,27
 674 388 674 388 674 495 c 0,28,29
 674 607 674 607 617.5 668.5 c 128,-1,30
 561 730 561 730 458 730 c 2,31,-1
 431 730 l 1,32,-1
 302 420 l 1,33,-1
 453 420 l 1,34,-1
 434 376 l 1,35,-1
 284 376 l 1,36,-1
 182 129 l 2,37,38
 169 99 169 99 169 80 c 0,39,40
 169 59 169 59 185 50.5 c 128,-1,41
 201 42 201 42 239 42 c 0,23,24
EndSplineSet
EndChar
StartChar: dcroat
Encoding: 273 273 205
Width: 603
Flags: W
LayerCount: 2
Back
Fore
SplineSet
481 820 m 1,0,-1
 672 820 l 1,1,-1
 628 704 l 1,2,-1
 706 704 l 1,3,-1
 688 662 l 1,4,-1
 612 662 l 1,5,-1
 404 109 l 2,6,7
 397 91 397 91 395 82.5 c 128,-1,8
 393 74 393 74 393 68 c 0,9,10
 393 57 393 57 398 53 c 128,-1,11
 403 49 403 49 411 49 c 0,12,13
 426 49 426 49 450 70 c 128,-1,14
 474 91 474 91 516 138 c 1,15,-1
 536 124 l 1,16,17
 437 -10 437 -10 353 -10 c 0,18,19
 320 -10 320 -10 306 8 c 128,-1,20
 292 26 292 26 292 62 c 0,21,22
 292 80 292 80 299.5 100.5 c 128,-1,23
 307 121 307 121 321 149 c 1,24,-1
 319 152 l 1,25,26
 289 108 289 108 263 77 c 128,-1,27
 237 46 237 46 212.5 26.5 c 128,-1,28
 188 7 188 7 163.5 -1.5 c 128,-1,29
 139 -10 139 -10 112 -10 c 0,30,31
 3 -10 3 -10 3 120 c 0,32,33
 3 190 3 190 35.5 264 c 128,-1,34
 68 338 68 338 120 399.5 c 128,-1,35
 172 461 172 461 235.5 500.5 c 128,-1,36
 299 540 299 540 362 540 c 0,37,38
 391 540 391 540 409.5 529.5 c 128,-1,39
 428 519 428 519 447 493 c 1,40,-1
 512 662 l 1,41,-1
 402 662 l 1,42,-1
 419 704 l 1,43,-1
 528 704 l 1,44,-1
 563 793 l 1,45,-1
 486 805 l 1,46,-1
 481 820 l 1,0,-1
130 25 m 0,47,48
 155 25 155 25 190 53 c 128,-1,49
 225 81 225 81 262 128.5 c 128,-1,50
 299 176 299 176 335.5 239 c 128,-1,51
 372 302 372 302 401 372 c 0,52,53
 415 407 415 407 420 425 c 128,-1,54
 425 443 425 443 426 458 c 0,55,56
 422 481 422 481 410.5 494.5 c 128,-1,57
 399 508 399 508 379 508 c 0,58,59
 354 508 354 508 323 486.5 c 128,-1,60
 292 465 292 465 260 429.5 c 128,-1,61
 228 394 228 394 198 349 c 128,-1,62
 168 304 168 304 144.5 256.5 c 128,-1,63
 121 209 121 209 107 163 c 128,-1,64
 93 117 93 117 93 81 c 0,65,66
 93 52 93 52 103 38.5 c 128,-1,67
 113 25 113 25 130 25 c 0,47,48
EndSplineSet
EndChar
StartChar: emacron
Encoding: 275 275 238
Width: 485
Flags: W
LayerCount: 2
Back
Fore
SplineSet
398 540 m 0,0,1
 443 540 443 540 468.5 521.5 c 128,-1,2
 494 503 494 503 494 471 c 256,3,4
 494 439 494 439 469 408.5 c 128,-1,5
 444 378 444 378 399 351.5 c 128,-1,6
 354 325 354 325 291.5 303.5 c 128,-1,7
 229 282 229 282 154 269 c 1,8,9
 97 162 97 162 97 92 c 0,10,11
 97 25 97 25 155 25 c 0,12,13
 178 25 178 25 205 35 c 128,-1,14
 232 45 232 45 259 62.5 c 128,-1,15
 286 80 286 80 312.5 104.5 c 128,-1,16
 339 129 339 129 361 159 c 1,17,-1
 383 145 l 1,18,19
 260 -10 260 -10 130 -10 c 0,20,21
 68 -10 68 -10 34 25 c 128,-1,22
 0 60 0 60 0 125 c 0,23,24
 0 171 0 171 17 219.5 c 128,-1,25
 34 268 34 268 63.5 314 c 128,-1,26
 93 360 93 360 132.5 401.5 c 128,-1,27
 172 443 172 443 216 473.5 c 128,-1,28
 260 504 260 504 307 522 c 128,-1,29
 354 540 354 540 398 540 c 0,0,1
176 302 m 1,30,31
 222 311 222 311 265 330 c 128,-1,32
 308 349 308 349 341 373.5 c 128,-1,33
 374 398 374 398 394 425.5 c 128,-1,34
 414 453 414 453 414 479 c 0,35,36
 414 509 414 509 382 509 c 0,37,38
 361 509 361 509 337.5 498 c 128,-1,39
 314 487 314 487 291 467 c 128,-1,40
 268 447 268 447 246.5 420 c 128,-1,41
 225 393 225 393 208 361 c 2,42,-1
 176 302 l 1,30,31
287 709 m 1,43,-1
 315 780 l 1,44,-1
 602 780 l 1,45,-1
 573 709 l 1,46,-1
 287 709 l 1,43,-1
EndSplineSet
EndChar
StartChar: Ebreve
Encoding: 276 276 28
Width: 713
Flags: W
LayerCount: 2
Back
Fore
SplineSet
-68 0 m 1,0,-1
 -58 23 l 1,1,-1
 34 42 l 1,2,-1
 318 728 l 1,3,-1
 240 747 l 1,4,-1
 250 770 l 1,5,-1
 730 770 l 1,6,-1
 738 550 l 1,7,-1
 711 550 l 1,8,9
 702 604 702 604 688.5 648 c 128,-1,10
 675 692 675 692 653 730 c 1,11,-1
 427 730 l 1,12,-1
 303 426 l 1,13,-1
 471 426 l 1,14,15
 520 483 520 483 555 540 c 1,16,-1
 584 540 l 1,17,-1
 471 266 l 1,18,-1
 442 266 l 1,19,20
 450 296 450 296 453.5 326 c 128,-1,21
 457 356 457 356 459 386 c 1,22,-1
 285 386 l 1,23,-1
 143 40 l 1,24,-1
 466 40 l 1,25,26
 507 88 507 88 540.5 135 c 128,-1,27
 574 182 574 182 603 230 c 1,28,-1
 632 230 l 1,29,-1
 541 0 l 1,30,-1
 -68 0 l 1,0,-1
499 970 m 1,31,32
 500 939 500 939 519.5 922 c 128,-1,33
 539 905 539 905 578 905 c 0,34,35
 611 905 611 905 643.5 920 c 128,-1,36
 676 935 676 935 708 970 c 1,37,-1
 748 970 l 1,38,39
 717 923 717 923 687 895.5 c 128,-1,40
 657 868 657 868 631 854 c 128,-1,41
 605 840 605 840 582.5 835.5 c 128,-1,42
 560 831 560 831 544 831 c 0,43,44
 527 831 527 831 510.5 835.5 c 128,-1,45
 494 840 494 840 481.5 849.5 c 128,-1,46
 469 859 469 859 461.5 875 c 128,-1,47
 454 891 454 891 454 914 c 0,48,49
 454 939 454 939 464 970 c 1,50,-1
 499 970 l 1,31,32
EndSplineSet
EndChar
StartChar: ebreve
Encoding: 277 277 223
Width: 485
Flags: W
LayerCount: 2
Back
Fore
SplineSet
398 540 m 0,0,1
 443 540 443 540 468.5 521.5 c 128,-1,2
 494 503 494 503 494 471 c 256,3,4
 494 439 494 439 469 408.5 c 128,-1,5
 444 378 444 378 399 351.5 c 128,-1,6
 354 325 354 325 291.5 303.5 c 128,-1,7
 229 282 229 282 154 269 c 1,8,9
 97 162 97 162 97 92 c 0,10,11
 97 25 97 25 155 25 c 0,12,13
 178 25 178 25 205 35 c 128,-1,14
 232 45 232 45 259 62.5 c 128,-1,15
 286 80 286 80 312.5 104.5 c 128,-1,16
 339 129 339 129 361 159 c 1,17,-1
 383 145 l 1,18,19
 260 -10 260 -10 130 -10 c 0,20,21
 68 -10 68 -10 34 25 c 128,-1,22
 0 60 0 60 0 125 c 0,23,24
 0 171 0 171 17 219.5 c 128,-1,25
 34 268 34 268 63.5 314 c 128,-1,26
 93 360 93 360 132.5 401.5 c 128,-1,27
 172 443 172 443 216 473.5 c 128,-1,28
 260 504 260 504 307 522 c 128,-1,29
 354 540 354 540 398 540 c 0,0,1
176 302 m 1,30,31
 222 311 222 311 265 330 c 128,-1,32
 308 349 308 349 341 373.5 c 128,-1,33
 374 398 374 398 394 425.5 c 128,-1,34
 414 453 414 453 414 479 c 0,35,36
 414 509 414 509 382 509 c 0,37,38
 361 509 361 509 337.5 498 c 128,-1,39
 314 487 314 487 291 467 c 128,-1,40
 268 447 268 447 246.5 420 c 128,-1,41
 225 393 225 393 208 361 c 2,42,-1
 176 302 l 1,30,31
377 790 m 1,43,44
 378 759 378 759 397.5 742 c 128,-1,45
 417 725 417 725 456 725 c 0,46,47
 489 725 489 725 521.5 740 c 128,-1,48
 554 755 554 755 586 790 c 1,49,-1
 626 790 l 1,50,51
 595 743 595 743 565 715.5 c 128,-1,52
 535 688 535 688 509 674 c 128,-1,53
 483 660 483 660 460.5 655.5 c 128,-1,54
 438 651 438 651 422 651 c 0,55,56
 405 651 405 651 388.5 655.5 c 128,-1,57
 372 660 372 660 359.5 669.5 c 128,-1,58
 347 679 347 679 339.5 695 c 128,-1,59
 332 711 332 711 332 734 c 0,60,61
 332 759 332 759 342 790 c 1,62,-1
 377 790 l 1,43,44
EndSplineSet
EndChar
StartChar: Edotaccent
Encoding: 278 278 32
Width: 713
Flags: W
LayerCount: 2
Back
Fore
SplineSet
-68 0 m 1,0,-1
 -58 23 l 1,1,-1
 34 42 l 1,2,-1
 318 728 l 1,3,-1
 240 747 l 1,4,-1
 250 770 l 1,5,-1
 730 770 l 1,6,-1
 738 550 l 1,7,-1
 711 550 l 1,8,9
 702 604 702 604 688.5 648 c 128,-1,10
 675 692 675 692 653 730 c 1,11,-1
 427 730 l 1,12,-1
 303 426 l 1,13,-1
 471 426 l 1,14,15
 520 483 520 483 555 540 c 1,16,-1
 584 540 l 1,17,-1
 471 266 l 1,18,-1
 442 266 l 1,19,20
 450 296 450 296 453.5 326 c 128,-1,21
 457 356 457 356 459 386 c 1,22,-1
 285 386 l 1,23,-1
 143 40 l 1,24,-1
 466 40 l 1,25,26
 507 88 507 88 540.5 135 c 128,-1,27
 574 182 574 182 603 230 c 1,28,-1
 632 230 l 1,29,-1
 541 0 l 1,30,-1
 -68 0 l 1,0,-1
583 970 m 0,31,32
 609 970 609 970 628 954 c 128,-1,33
 647 938 647 938 647 915 c 0,34,35
 647 901 647 901 640.5 888.5 c 128,-1,36
 634 876 634 876 623.5 866.5 c 128,-1,37
 613 857 613 857 599.5 851 c 128,-1,38
 586 845 586 845 572 845 c 0,39,40
 543 845 543 845 526.5 860.5 c 128,-1,41
 510 876 510 876 510 902 c 0,42,43
 510 930 510 930 532 950 c 128,-1,44
 554 970 554 970 583 970 c 0,31,32
EndSplineSet
EndChar
StartChar: Eogonek
Encoding: 280 280 37
Width: 713
Flags: W
LayerCount: 2
Back
Fore
SplineSet
462 -198 m 1,0,1
 393 -256 393 -256 325 -256 c 0,2,3
 258 -256 258 -256 258 -204 c 0,4,5
 258 -159 258 -159 301 -105 c 128,-1,6
 344 -51 344 -51 431 0 c 1,7,-1
 -68 0 l 1,8,-1
 -58 23 l 1,9,-1
 34 42 l 1,10,-1
 318 728 l 1,11,-1
 240 747 l 1,12,-1
 250 770 l 1,13,-1
 730 770 l 1,14,-1
 738 550 l 1,15,-1
 711 550 l 1,16,17
 702 604 702 604 688.5 648 c 128,-1,18
 675 692 675 692 653 730 c 1,19,-1
 427 730 l 1,20,-1
 303 426 l 1,21,-1
 471 426 l 1,22,23
 520 483 520 483 555 540 c 1,24,-1
 584 540 l 1,25,-1
 471 266 l 1,26,-1
 442 266 l 1,27,28
 450 296 450 296 453.5 326 c 128,-1,29
 457 356 457 356 459 386 c 1,30,-1
 285 386 l 1,31,-1
 143 40 l 1,32,-1
 466 40 l 1,33,34
 507 88 507 88 540.5 135 c 128,-1,35
 574 182 574 182 603 230 c 1,36,-1
 632 230 l 1,37,-1
 541 0 l 1,38,-1
 475 0 l 1,39,40
 410 -52 410 -52 382.5 -97 c 128,-1,41
 355 -142 355 -142 355 -172 c 0,42,43
 355 -201 355 -201 392 -201 c 0,44,45
 406 -201 406 -201 420 -196.5 c 128,-1,46
 434 -192 434 -192 457 -180 c 1,47,-1
 462 -198 l 1,0,1
EndSplineSet
EndChar
StartChar: eogonek
Encoding: 281 281 242
Width: 485
Flags: W
LayerCount: 2
Back
Fore
SplineSet
180 -198 m 1,0,1
 111 -256 111 -256 43 -256 c 0,2,3
 -24 -256 -24 -256 -24 -204 c 0,4,5
 -24 -162 -24 -162 23 -109.5 c 128,-1,6
 70 -57 70 -57 151 -9 c 1,7,8
 146 -9 146 -9 140.5 -9.5 c 128,-1,9
 135 -10 135 -10 130 -10 c 0,10,11
 68 -10 68 -10 34 25 c 128,-1,12
 0 60 0 60 0 125 c 0,13,14
 0 171 0 171 17 219.5 c 128,-1,15
 34 268 34 268 63.5 314 c 128,-1,16
 93 360 93 360 132.5 401.5 c 128,-1,17
 172 443 172 443 216 473.5 c 128,-1,18
 260 504 260 504 307 522 c 128,-1,19
 354 540 354 540 398 540 c 0,20,21
 443 540 443 540 468.5 521.5 c 128,-1,22
 494 503 494 503 494 471 c 256,23,24
 494 439 494 439 469 408.5 c 128,-1,25
 444 378 444 378 399 351.5 c 128,-1,26
 354 325 354 325 291.5 303.5 c 128,-1,27
 229 282 229 282 154 269 c 1,28,29
 97 162 97 162 97 92 c 0,30,31
 97 25 97 25 155 25 c 0,32,33
 178 25 178 25 205 35 c 128,-1,34
 232 45 232 45 259 62.5 c 128,-1,35
 286 80 286 80 312.5 104.5 c 128,-1,36
 339 129 339 129 361 159 c 1,37,-1
 383 145 l 1,38,39
 344 96 344 96 300.5 60 c 128,-1,40
 257 24 257 24 219 1 c 0,41,42
 141 -46 141 -46 107 -93 c 128,-1,43
 73 -140 73 -140 73 -172 c 0,44,45
 73 -201 73 -201 110 -201 c 0,46,47
 124 -201 124 -201 138 -196.5 c 128,-1,48
 152 -192 152 -192 175 -180 c 1,49,-1
 180 -198 l 1,0,1
176 302 m 1,50,51
 222 311 222 311 265 330 c 128,-1,52
 308 349 308 349 341 373.5 c 128,-1,53
 374 398 374 398 394 425.5 c 128,-1,54
 414 453 414 453 414 479 c 0,55,56
 414 509 414 509 382 509 c 0,57,58
 361 509 361 509 337.5 498 c 128,-1,59
 314 487 314 487 291 467 c 128,-1,60
 268 447 268 447 246.5 420 c 128,-1,61
 225 393 225 393 208 361 c 2,62,-1
 176 302 l 1,50,51
EndSplineSet
EndChar
